G04*
G04 #@! TF.GenerationSoftware,Altium Limited,Altium Designer,20.2.6 (244)*
G04*
G04 Layer_Color=8388736*
%FSLAX25Y25*%
%MOIN*%
G70*
G04*
G04 #@! TF.SameCoordinates,023A6027-31B4-44E3-9114-37264AD4D944*
G04*
G04*
G04 #@! TF.FilePolarity,Negative*
G04*
G01*
G75*
%ADD22R,0.03150X0.03150*%
%ADD23R,0.04469X0.04182*%
%ADD30R,0.03591X0.03772*%
%ADD31R,0.03150X0.03150*%
%ADD36R,0.04560X0.03985*%
%ADD45R,0.05276X0.04370*%
%ADD46O,0.05276X0.04370*%
%ADD47R,0.04921X0.03150*%
%ADD48R,0.04724X0.03937*%
%ADD49O,0.08661X0.05906*%
%ADD50R,0.08661X0.05906*%
%ADD51R,0.04724X0.04331*%
%ADD52R,0.04921X0.04331*%
%ADD53R,0.03937X0.04724*%
%ADD54R,0.04331X0.04724*%
%ADD55R,0.05512X0.06299*%
%ADD56R,0.07874X0.05906*%
%ADD57R,0.07795X0.06378*%
%ADD58R,0.05709X0.03543*%
%ADD59R,0.05315X0.03543*%
%ADD60R,0.04724X0.04724*%
%ADD61R,0.04724X0.03150*%
%ADD62R,0.05906X0.14173*%
%ADD63R,0.10630X0.09449*%
%ADD64R,0.04724X0.04724*%
%ADD65O,0.09787X0.07787*%
%ADD66R,0.09787X0.07787*%
%ADD67C,0.12795*%
%ADD68C,0.18504*%
%ADD69C,0.07787*%
%ADD70R,0.07787X0.07787*%
%ADD71C,0.20472*%
%ADD72R,0.09787X0.08287*%
%ADD73O,0.09787X0.08287*%
%ADD74C,0.08787*%
%ADD75C,0.12598*%
%ADD76O,0.07787X0.09787*%
%ADD77R,0.07787X0.09787*%
%ADD78C,0.05512*%
%ADD79C,0.03150*%
G36*
X118654Y81482D02*
X118705Y81472D01*
X118754Y81456D01*
X118800Y81433D01*
X118843Y81404D01*
X118882Y81370D01*
X118916Y81331D01*
X118944Y81289D01*
X118967Y81242D01*
X118984Y81193D01*
X118994Y81143D01*
X118997Y81091D01*
Y80502D01*
X130807D01*
X130859Y80498D01*
X130910Y80488D01*
X130958Y80472D01*
X131005Y80449D01*
X131048Y80420D01*
X131086Y80386D01*
X131121Y80347D01*
X131149Y80304D01*
X131172Y80258D01*
X131189Y80209D01*
X131199Y80159D01*
X131202Y80107D01*
Y63572D01*
X131199Y63520D01*
X131189Y63469D01*
X131172Y63421D01*
X131149Y63374D01*
X131121Y63332D01*
X131086Y63293D01*
X131048Y63259D01*
X131005Y63230D01*
X130958Y63207D01*
X130910Y63191D01*
X130859Y63181D01*
X130807Y63177D01*
X118997D01*
Y62587D01*
X118994Y62536D01*
X118984Y62485D01*
X118967Y62436D01*
X118944Y62390D01*
X118916Y62347D01*
X118882Y62308D01*
X118843Y62274D01*
X118800Y62246D01*
X118754Y62223D01*
X118705Y62206D01*
X118654Y62196D01*
X118603Y62193D01*
X111615Y62193D01*
X111563Y62196D01*
X111512Y62206D01*
X111464Y62223D01*
X111417Y62246D01*
X111374Y62274D01*
X111336Y62308D01*
X111302Y62347D01*
X111273Y62390D01*
X111250Y62436D01*
X111233Y62485D01*
X111223Y62536D01*
X111220Y62587D01*
Y71820D01*
X111220Y76544D01*
X111220Y79064D01*
Y79064D01*
Y79064D01*
X111220Y81091D01*
X111223Y81143D01*
X111233Y81194D01*
X111245Y81227D01*
X111250Y81242D01*
X111273Y81289D01*
D01*
X111273Y81289D01*
X111287Y81310D01*
X111302Y81331D01*
X111336Y81370D01*
X111336D01*
Y81370D01*
X111374Y81404D01*
X111396Y81419D01*
X111417Y81433D01*
X111417Y81433D01*
D01*
X111464Y81456D01*
X111479Y81461D01*
X111512Y81472D01*
X111563Y81482D01*
X111615Y81486D01*
X118603D01*
X118654Y81482D01*
D02*
G37*
G36*
X118654Y136601D02*
X118705Y136591D01*
X118754Y136574D01*
X118800Y136551D01*
X118843Y136522D01*
X118882Y136488D01*
X118916Y136450D01*
X118944Y136407D01*
X118967Y136360D01*
X118984Y136312D01*
X118994Y136261D01*
X118997Y136209D01*
Y135620D01*
X130807D01*
X130859Y135616D01*
X130910Y135606D01*
X130958Y135590D01*
X131005Y135567D01*
X131048Y135538D01*
X131086Y135504D01*
X131121Y135465D01*
X131149Y135423D01*
X131172Y135376D01*
X131188Y135327D01*
X131199Y135277D01*
X131202Y135225D01*
Y118690D01*
X131199Y118638D01*
X131188Y118588D01*
X131172Y118539D01*
X131149Y118492D01*
X131121Y118450D01*
X131086Y118411D01*
X131048Y118377D01*
X131005Y118348D01*
X130958Y118325D01*
X130910Y118309D01*
X130859Y118299D01*
X130807Y118295D01*
X118997D01*
Y117706D01*
X118994Y117654D01*
X118984Y117603D01*
X118967Y117554D01*
X118944Y117508D01*
X118916Y117465D01*
X118882Y117427D01*
X118843Y117393D01*
X118800Y117364D01*
X118754Y117341D01*
X118705Y117324D01*
X118654Y117314D01*
X118603Y117311D01*
X111615D01*
X111563Y117314D01*
X111512Y117324D01*
X111464Y117341D01*
X111417Y117364D01*
X111374Y117393D01*
X111336Y117427D01*
X111302Y117465D01*
X111273Y117508D01*
X111250Y117554D01*
X111233Y117603D01*
X111223Y117654D01*
X111220Y117706D01*
Y126938D01*
Y131662D01*
X111220Y134182D01*
Y134182D01*
Y134182D01*
X111220Y136209D01*
X111223Y136261D01*
X111233Y136312D01*
X111245Y136345D01*
X111250Y136360D01*
X111273Y136407D01*
D01*
X111273Y136407D01*
X111287Y136428D01*
X111302Y136450D01*
X111336Y136488D01*
X111336D01*
Y136488D01*
X111374Y136522D01*
X111396Y136537D01*
X111417Y136551D01*
X111417Y136551D01*
D01*
X111464Y136574D01*
X111479Y136579D01*
X111512Y136591D01*
X111563Y136601D01*
X111615Y136604D01*
X118603D01*
X118654Y136601D01*
D02*
G37*
G36*
Y191719D02*
X118705Y191709D01*
X118754Y191692D01*
X118800Y191669D01*
X118843Y191641D01*
X118882Y191606D01*
X118916Y191568D01*
X118944Y191525D01*
X118967Y191479D01*
X118984Y191430D01*
X118994Y191379D01*
X118997Y191328D01*
Y190738D01*
X130807D01*
X130859Y190735D01*
X130910Y190724D01*
X130958Y190708D01*
X131005Y190685D01*
X131048Y190656D01*
X131086Y190622D01*
X131121Y190584D01*
X131149Y190541D01*
X131172Y190494D01*
X131188Y190445D01*
X131199Y190395D01*
X131202Y190343D01*
Y173808D01*
X131199Y173756D01*
X131188Y173706D01*
X131172Y173657D01*
X131149Y173611D01*
X131121Y173568D01*
X131086Y173529D01*
X131048Y173495D01*
X131005Y173466D01*
X130958Y173443D01*
X130910Y173427D01*
X130859Y173417D01*
X130807Y173413D01*
X118997D01*
Y172824D01*
X118994Y172772D01*
X118984Y172722D01*
X118967Y172673D01*
X118944Y172626D01*
X118916Y172583D01*
X118882Y172545D01*
X118843Y172511D01*
X118800Y172482D01*
X118754Y172459D01*
X118705Y172442D01*
X118654Y172432D01*
X118603Y172429D01*
X111615D01*
X111563Y172432D01*
X111512Y172442D01*
X111464Y172459D01*
X111417Y172482D01*
X111374Y172511D01*
X111336Y172545D01*
X111302Y172583D01*
X111273Y172626D01*
X111250Y172673D01*
X111233Y172722D01*
X111223Y172772D01*
X111220Y172824D01*
Y182056D01*
Y186780D01*
X111220Y189300D01*
Y189300D01*
Y189300D01*
X111220Y191328D01*
X111223Y191379D01*
X111233Y191430D01*
X111245Y191463D01*
X111250Y191479D01*
X111273Y191525D01*
D01*
X111273Y191525D01*
X111287Y191546D01*
X111302Y191568D01*
X111336Y191606D01*
X111336D01*
Y191606D01*
X111374Y191641D01*
X111396Y191655D01*
X111417Y191669D01*
X111417Y191669D01*
D01*
X111464Y191692D01*
X111479Y191697D01*
X111512Y191709D01*
X111563Y191719D01*
X111615Y191722D01*
X118603D01*
X118654Y191719D01*
D02*
G37*
D22*
X81693Y203740D02*
D03*
X81693Y197835D02*
D03*
X90551Y203740D02*
D03*
Y197835D02*
D03*
X99409D02*
D03*
Y203740D02*
D03*
D23*
X125712Y24606D02*
D03*
X119291D02*
D03*
D30*
X64961Y127469D02*
D03*
Y121744D02*
D03*
D31*
X138779Y7874D02*
D03*
X132874D02*
D03*
X138779Y15748D02*
D03*
X132874D02*
D03*
X138779Y24606D02*
D03*
X132874D02*
D03*
D36*
X72457Y75787D02*
D03*
X65945D02*
D03*
X41339Y36417D02*
D03*
X34827D02*
D03*
D45*
X115158Y53217D02*
D03*
Y163453D02*
D03*
Y108335D02*
D03*
D46*
Y48217D02*
D03*
Y43217D02*
D03*
Y38217D02*
D03*
X136654Y53217D02*
D03*
Y48217D02*
D03*
Y43217D02*
D03*
Y38217D02*
D03*
X115158Y158454D02*
D03*
Y153454D02*
D03*
Y148453D02*
D03*
X136654Y163453D02*
D03*
Y158454D02*
D03*
Y153454D02*
D03*
Y148453D02*
D03*
X115158Y103335D02*
D03*
Y98335D02*
D03*
Y93335D02*
D03*
X136654Y108335D02*
D03*
Y103335D02*
D03*
Y98335D02*
D03*
Y93335D02*
D03*
D47*
X156496Y65146D02*
D03*
X167126D02*
D03*
Y72627D02*
D03*
X156496Y68887D02*
D03*
X156496Y72627D02*
D03*
X156496Y175383D02*
D03*
X167126D02*
D03*
Y182863D02*
D03*
X156496Y179123D02*
D03*
Y182863D02*
D03*
Y120265D02*
D03*
X167126D02*
D03*
Y127745D02*
D03*
X156496Y124005D02*
D03*
Y127745D02*
D03*
D48*
X69882Y62992D02*
D03*
Y57087D02*
D03*
X64961Y143701D02*
D03*
Y137795D02*
D03*
D49*
X167520Y23016D02*
D03*
X167520Y5299D02*
D03*
X200591Y23016D02*
D03*
D50*
Y5299D02*
D03*
D51*
X74803Y121260D02*
D03*
Y127953D02*
D03*
X156496Y11205D02*
D03*
Y4512D02*
D03*
D52*
X74803Y143701D02*
D03*
Y137992D02*
D03*
D53*
X125984Y7874D02*
D03*
X120079D02*
D03*
X125984Y15748D02*
D03*
X120079D02*
D03*
D54*
X44685Y3937D02*
D03*
X37992D02*
D03*
D55*
X72244Y84646D02*
D03*
X65551D02*
D03*
D56*
X106299Y52745D02*
D03*
Y41328D02*
D03*
Y162981D02*
D03*
Y151564D02*
D03*
Y107863D02*
D03*
Y96446D02*
D03*
D57*
X78740Y49882D02*
D03*
Y60354D02*
D03*
D58*
X137205Y179576D02*
D03*
Y174576D02*
D03*
Y184576D02*
D03*
Y189576D02*
D03*
X137205Y69339D02*
D03*
Y64339D02*
D03*
Y74339D02*
D03*
Y79339D02*
D03*
X137205Y134458D02*
D03*
Y129457D02*
D03*
Y119457D02*
D03*
Y124458D02*
D03*
D59*
X123032Y182076D02*
D03*
X123032Y71839D02*
D03*
X123032Y126957D02*
D03*
D60*
X13780Y146653D02*
D03*
X7480D02*
D03*
X13780Y153543D02*
D03*
X7480D02*
D03*
D61*
X9514Y136811D02*
D03*
X18962Y140551D02*
D03*
Y133071D02*
D03*
D62*
X174016Y51170D02*
D03*
X150788D02*
D03*
Y161406D02*
D03*
X174016D02*
D03*
X150788Y106288D02*
D03*
X174016D02*
D03*
D63*
X213318Y84646D02*
D03*
X194815D02*
D03*
Y194882D02*
D03*
X213318D02*
D03*
X194815Y139764D02*
D03*
X213318D02*
D03*
D64*
X96457Y43887D02*
D03*
Y50186D02*
D03*
X174213Y72627D02*
D03*
Y78926D02*
D03*
Y189162D02*
D03*
Y182863D02*
D03*
X96457Y160422D02*
D03*
Y154123D02*
D03*
X174213Y134044D02*
D03*
Y127745D02*
D03*
X96457Y105304D02*
D03*
Y99005D02*
D03*
D65*
X39370Y98110D02*
D03*
Y88110D02*
D03*
Y108110D02*
D03*
D66*
Y118110D02*
D03*
D67*
X62599Y219685D02*
D03*
X17717Y219685D02*
D03*
D68*
X62598Y169291D02*
D03*
X40157D02*
D03*
X17717D02*
D03*
X40157Y190945D02*
D03*
X62598Y190945D02*
D03*
X17717D02*
D03*
D69*
X148307Y206693D02*
D03*
X138307D02*
D03*
X158307D02*
D03*
X168307D02*
D03*
X148307Y216693D02*
D03*
X138307D02*
D03*
X158307D02*
D03*
X128307Y206693D02*
D03*
Y216693D02*
D03*
D70*
X168307D02*
D03*
D71*
X93504Y220472D02*
D03*
X15748Y15748D02*
D03*
X220472Y220472D02*
D03*
Y15748D02*
D03*
D72*
X39370Y64961D02*
D03*
D73*
Y54961D02*
D03*
D74*
X207137Y173228D02*
D03*
X195337D02*
D03*
X207137Y161429D02*
D03*
X195337Y161428D02*
D03*
Y51192D02*
D03*
X207137Y51193D02*
D03*
X195337Y62992D02*
D03*
X207137D02*
D03*
Y118110D02*
D03*
X195337D02*
D03*
X207137Y106311D02*
D03*
X195337Y106310D02*
D03*
D75*
X224145Y167323D02*
D03*
Y57087D02*
D03*
Y112205D02*
D03*
D76*
X79055Y39370D02*
D03*
X69055D02*
D03*
D77*
X59055D02*
D03*
D78*
X41339Y25184D02*
D03*
Y15184D02*
D03*
X54134Y64961D02*
D03*
Y54961D02*
D03*
X82677Y82677D02*
D03*
X92677D02*
D03*
D79*
X161417Y182863D02*
D03*
X121783Y48228D02*
D03*
X88582Y95472D02*
D03*
X82677Y88583D02*
D03*
X78059Y157995D02*
D03*
X69882Y156496D02*
D03*
X85630Y92520D02*
D03*
X73819Y157480D02*
D03*
X161700Y127574D02*
D03*
X161417Y72835D02*
D03*
X121783Y158465D02*
D03*
Y103347D02*
D03*
M02*
