G04*
G04 #@! TF.GenerationSoftware,Altium Limited,Altium Designer,20.2.6 (244)*
G04*
G04 Layer_Color=32896*
%FSLAX25Y25*%
%MOIN*%
G70*
G04*
G04 #@! TF.SameCoordinates,023A6027-31B4-44E3-9114-37264AD4D944*
G04*
G04*
G04 #@! TF.FilePolarity,Positive*
G04*
G01*
G75*
%ADD13C,0.01000*%
%ADD14C,0.00984*%
%ADD16C,0.00787*%
%ADD82C,0.01968*%
%ADD119C,0.02362*%
D13*
X105904Y220472D02*
X105864Y221470D01*
X105743Y222462D01*
X105544Y223440D01*
X105266Y224399D01*
X104912Y225333D01*
X104484Y226235D01*
X103984Y227100D01*
X103417Y227922D01*
X102786Y228695D01*
X102094Y229415D01*
X101346Y230078D01*
X100548Y230677D01*
X99704Y231211D01*
X98820Y231675D01*
X97901Y232067D01*
X96954Y232383D01*
X95984Y232622D01*
X94999Y232782D01*
X94003Y232862D01*
X93005D01*
X92009Y232782D01*
X91024Y232622D01*
X90054Y232383D01*
X89107Y232067D01*
X88188Y231675D01*
X87304Y231211D01*
X86460Y230677D01*
X85662Y230078D01*
X84914Y229415D01*
X84222Y228695D01*
X83591Y227922D01*
X83024Y227100D01*
X82524Y226235D01*
X82096Y225333D01*
X81742Y224399D01*
X81464Y223440D01*
X81265Y222462D01*
X81144Y221470D01*
X81104Y220472D01*
X81144Y219475D01*
X81265Y218483D01*
X81464Y217505D01*
X81742Y216546D01*
X82096Y215612D01*
X82524Y214710D01*
X83024Y213845D01*
X83591Y213023D01*
X84222Y212250D01*
X84914Y211529D01*
X85662Y210867D01*
X86460Y210267D01*
X87304Y209734D01*
X88188Y209270D01*
X89107Y208878D01*
X90054Y208562D01*
X91024Y208323D01*
X92009Y208163D01*
X93005Y208083D01*
X94003D01*
X94999Y208163D01*
X95984Y208323D01*
X96954Y208562D01*
X97901Y208878D01*
X98820Y209270D01*
X99704Y209734D01*
X100548Y210267D01*
X101346Y210867D01*
X102094Y211529D01*
X102786Y212250D01*
X103417Y213023D01*
X103984Y213845D01*
X104484Y214710D01*
X104912Y215612D01*
X105266Y216546D01*
X105544Y217505D01*
X105743Y218483D01*
X105864Y219475D01*
X105904Y220472D01*
X28148Y15748D02*
X28108Y16746D01*
X27988Y17737D01*
X27788Y18715D01*
X27510Y19675D01*
X27156Y20608D01*
X26728Y21511D01*
X26228Y22375D01*
X25661Y23197D01*
X25030Y23971D01*
X24338Y24691D01*
X23590Y25353D01*
X22792Y25953D01*
X21948Y26487D01*
X21064Y26951D01*
X20145Y27342D01*
X19198Y27658D01*
X18228Y27897D01*
X17243Y28058D01*
X16247Y28138D01*
X15249D01*
X14253Y28058D01*
X13268Y27897D01*
X12298Y27658D01*
X11351Y27342D01*
X10432Y26951D01*
X9548Y26487D01*
X8704Y25953D01*
X7906Y25353D01*
X7158Y24691D01*
X6466Y23971D01*
X5835Y23197D01*
X5268Y22375D01*
X4768Y21511D01*
X4340Y20608D01*
X3986Y19675D01*
X3708Y18715D01*
X3509Y17737D01*
X3388Y16746D01*
X3348Y15748D01*
X3388Y14750D01*
X3509Y13759D01*
X3708Y12780D01*
X3986Y11821D01*
X4340Y10888D01*
X4768Y9985D01*
X5268Y9121D01*
X5835Y8299D01*
X6466Y7525D01*
X7158Y6805D01*
X7906Y6143D01*
X8704Y5543D01*
X9548Y5009D01*
X10432Y4545D01*
X11351Y4154D01*
X12298Y3838D01*
X13268Y3599D01*
X14253Y3438D01*
X15249Y3358D01*
X16247D01*
X17243Y3438D01*
X18228Y3599D01*
X19198Y3838D01*
X20145Y4154D01*
X21064Y4545D01*
X21948Y5009D01*
X22792Y5543D01*
X23590Y6143D01*
X24338Y6805D01*
X25030Y7525D01*
X25661Y8299D01*
X26228Y9121D01*
X26728Y9985D01*
X27156Y10888D01*
X27510Y11821D01*
X27788Y12780D01*
X27988Y13759D01*
X28108Y14750D01*
X28148Y15748D01*
X232872Y220472D02*
X232832Y221470D01*
X232712Y222462D01*
X232512Y223440D01*
X232234Y224399D01*
X231880Y225333D01*
X231452Y226235D01*
X230953Y227100D01*
X230385Y227922D01*
X229754Y228695D01*
X229062Y229415D01*
X228315Y230078D01*
X227516Y230677D01*
X226672Y231211D01*
X225788Y231675D01*
X224869Y232067D01*
X223922Y232383D01*
X222953Y232622D01*
X221967Y232782D01*
X220972Y232862D01*
X219973D01*
X218978Y232782D01*
X217992Y232622D01*
X217022Y232383D01*
X216075Y232067D01*
X215157Y231675D01*
X214272Y231211D01*
X213428Y230677D01*
X212630Y230078D01*
X211883Y229415D01*
X211191Y228695D01*
X210559Y227922D01*
X209992Y227100D01*
X209493Y226235D01*
X209065Y225333D01*
X208711Y224399D01*
X208433Y223440D01*
X208233Y222462D01*
X208113Y221470D01*
X208072Y220472D01*
X208113Y219475D01*
X208233Y218483D01*
X208433Y217505D01*
X208711Y216546D01*
X209065Y215612D01*
X209493Y214710D01*
X209992Y213845D01*
X210559Y213023D01*
X211191Y212250D01*
X211883Y211529D01*
X212630Y210867D01*
X213428Y210267D01*
X214272Y209734D01*
X215157Y209270D01*
X216075Y208878D01*
X217023Y208562D01*
X217992Y208323D01*
X218978Y208163D01*
X219973Y208083D01*
X220972D01*
X221967Y208163D01*
X222953Y208323D01*
X223922Y208562D01*
X224870Y208878D01*
X225788Y209270D01*
X226673Y209734D01*
X227517Y210267D01*
X228315Y210867D01*
X229062Y211529D01*
X229754Y212250D01*
X230385Y213023D01*
X230953Y213845D01*
X231452Y214710D01*
X231880Y215612D01*
X232234Y216546D01*
X232512Y217505D01*
X232712Y218483D01*
X232832Y219475D01*
X232872Y220472D01*
Y15748D02*
X232832Y16746D01*
X232712Y17737D01*
X232512Y18715D01*
X232234Y19675D01*
X231880Y20608D01*
X231452Y21511D01*
X230953Y22375D01*
X230385Y23197D01*
X229754Y23971D01*
X229062Y24691D01*
X228315Y25353D01*
X227516Y25953D01*
X226672Y26487D01*
X225788Y26951D01*
X224869Y27342D01*
X223922Y27658D01*
X222953Y27897D01*
X221967Y28058D01*
X220972Y28138D01*
X219973D01*
X218978Y28058D01*
X217992Y27897D01*
X217022Y27658D01*
X216075Y27342D01*
X215157Y26951D01*
X214272Y26487D01*
X213428Y25953D01*
X212630Y25353D01*
X211883Y24691D01*
X211191Y23971D01*
X210559Y23197D01*
X209992Y22375D01*
X209493Y21511D01*
X209065Y20608D01*
X208711Y19675D01*
X208433Y18715D01*
X208233Y17737D01*
X208113Y16746D01*
X208072Y15748D01*
X208113Y14750D01*
X208233Y13759D01*
X208433Y12780D01*
X208711Y11821D01*
X209065Y10888D01*
X209493Y9985D01*
X209992Y9121D01*
X210559Y8299D01*
X211191Y7525D01*
X211883Y6805D01*
X212630Y6143D01*
X213428Y5543D01*
X214272Y5009D01*
X215157Y4545D01*
X216075Y4154D01*
X217023Y3838D01*
X217992Y3599D01*
X218978Y3438D01*
X219973Y3358D01*
X220972D01*
X221967Y3438D01*
X222953Y3599D01*
X223922Y3838D01*
X224870Y4154D01*
X225788Y4545D01*
X226673Y5009D01*
X227517Y5543D01*
X228315Y6143D01*
X229062Y6805D01*
X229754Y7525D01*
X230385Y8299D01*
X230953Y9121D01*
X231452Y9985D01*
X231880Y10888D01*
X232234Y11821D01*
X232512Y12780D01*
X232712Y13759D01*
X232832Y14750D01*
X232872Y15748D01*
D14*
X90354Y71969D02*
X89616Y72395D01*
Y71542D01*
X90354Y71969D01*
X61048Y148391D02*
X60310Y148817D01*
Y147964D01*
X61048Y148391D01*
X32185Y65158D02*
X31447Y65584D01*
Y64731D01*
X32185Y65158D01*
X18012Y54921D02*
X17274Y55348D01*
Y54495D01*
X18012Y54921D01*
D16*
X85039Y51181D02*
Y70866D01*
X72441Y51181D02*
Y70866D01*
X85039D01*
X72441Y51181D02*
X85039D01*
X99779Y83047D02*
X110851D01*
X99779Y90181D02*
X110851D01*
X61776Y141732D02*
X95241D01*
Y108268D02*
Y141732D01*
X61776Y108268D02*
X95241D01*
X61776D02*
Y141732D01*
X181890Y205118D02*
X183465D01*
X181890Y208268D02*
X183465D01*
X181890Y218898D02*
X183465D01*
X181890Y222047D02*
X183465D01*
X181890Y212008D02*
X183465D01*
X181890Y215158D02*
X183465D01*
X134473Y134531D02*
Y145603D01*
X127338Y134531D02*
Y145603D01*
X80775Y155882D02*
X91847D01*
X80775Y163016D02*
X91847D01*
X41732Y130512D02*
X44882D01*
X30882Y131957D02*
Y143028D01*
X38016Y131957D02*
Y143028D01*
X23425Y103937D02*
X25000D01*
X23425Y100787D02*
X25000D01*
X23425Y117717D02*
X25000D01*
X23425Y114567D02*
X25000D01*
X23425Y83268D02*
X25000D01*
X23425Y80118D02*
X25000D01*
X179504Y3019D02*
Y14091D01*
X186638Y3019D02*
Y14091D01*
X115551Y140551D02*
Y142520D01*
X108858Y140551D02*
Y142520D01*
X118480Y134531D02*
Y145603D01*
X125614Y134531D02*
Y145603D01*
X48295Y96087D02*
X59366D01*
X48295Y88952D02*
X59366D01*
X48295Y87229D02*
X59366D01*
X48295Y80094D02*
X59366D01*
X109646Y118701D02*
X112795D01*
X23425Y121457D02*
X25000D01*
X23425Y124606D02*
X25000D01*
X23425Y90158D02*
X25000D01*
X23425Y87008D02*
X25000D01*
X23425Y97047D02*
X25000D01*
X23425Y93898D02*
X25000D01*
X23425Y110827D02*
X25000D01*
X23425Y107677D02*
X25000D01*
X18701Y72638D02*
X21850D01*
X18701Y68701D02*
Y72638D01*
X27362D02*
X30512D01*
Y68701D02*
Y72638D01*
X27362Y47441D02*
X30512D01*
Y51378D01*
X18701Y47441D02*
X21850D01*
X18701D02*
Y51378D01*
X126114Y153740D02*
Y155315D01*
X129263Y153740D02*
Y155315D01*
X126114Y98622D02*
Y100197D01*
X129263Y98622D02*
Y100197D01*
X126114Y43504D02*
Y45079D01*
X129263Y43504D02*
Y45079D01*
X81823Y77362D02*
Y74738D01*
X81299Y74213D01*
X80249D01*
X79724Y74738D01*
Y77362D01*
X78675Y74213D02*
X77625D01*
X78150D01*
Y77362D01*
X78675Y76837D01*
X169025Y200078D02*
Y203226D01*
X167450D01*
X166926Y202702D01*
Y201652D01*
X167450Y201127D01*
X169025D01*
X167975D02*
X166926Y200078D01*
X164302D02*
Y203226D01*
X165876Y201652D01*
X163777D01*
X162727Y199553D02*
X160628D01*
X159579Y200078D02*
Y203226D01*
X158004D01*
X157480Y202702D01*
Y201652D01*
X158004Y201127D01*
X159579D01*
X156430Y202702D02*
X155905Y203226D01*
X154856D01*
X154331Y202702D01*
Y202177D01*
X154856Y201652D01*
X155381D01*
X154856D01*
X154331Y201127D01*
Y200603D01*
X154856Y200078D01*
X155905D01*
X156430Y200603D01*
X167711Y89042D02*
Y92191D01*
X166137D01*
X165612Y91666D01*
Y90617D01*
X166137Y90092D01*
X167711D01*
X166661D02*
X165612Y89042D01*
X162988D02*
Y92191D01*
X164562Y90617D01*
X162463D01*
X161414Y88518D02*
X159315D01*
X158265Y89042D02*
Y92191D01*
X156691D01*
X156166Y91666D01*
Y90617D01*
X156691Y90092D01*
X158265D01*
X155116Y89042D02*
X154067D01*
X154592D01*
Y92191D01*
X155116Y91666D01*
X104002Y150196D02*
Y147573D01*
X103477Y147048D01*
X102427D01*
X101903Y147573D01*
Y150196D01*
X99279Y147048D02*
Y150196D01*
X100853Y148622D01*
X98754D01*
X12205Y52821D02*
X15354D01*
Y51246D01*
X14829Y50722D01*
X12730D01*
X12205Y51246D01*
Y52821D01*
X15354Y47573D02*
Y49672D01*
X13255Y47573D01*
X12730D01*
X12205Y48098D01*
Y49147D01*
X12730Y49672D01*
X12205Y71981D02*
X15354D01*
Y70407D01*
X14829Y69882D01*
X12730D01*
X12205Y70407D01*
Y71981D01*
X15354Y68832D02*
Y67783D01*
Y68308D01*
X12205D01*
X12730Y68832D01*
X28282Y227952D02*
Y224804D01*
X29857D01*
X30381Y225328D01*
Y226378D01*
X29857Y226903D01*
X28282D01*
X29332D02*
X30381Y227952D01*
X33530D02*
X31431D01*
X33530Y225853D01*
Y225328D01*
X33005Y224804D01*
X31956D01*
X31431Y225328D01*
X34579D02*
X35104Y224804D01*
X36154D01*
X36678Y225328D01*
Y225853D01*
X36154Y226378D01*
X36678Y226903D01*
Y227428D01*
X36154Y227952D01*
X35104D01*
X34579Y227428D01*
Y226903D01*
X35104Y226378D01*
X34579Y225853D01*
Y225328D01*
X35104Y226378D02*
X36154D01*
X28282Y219094D02*
Y215945D01*
X29857D01*
X30381Y216470D01*
Y217520D01*
X29857Y218044D01*
X28282D01*
X29332D02*
X30381Y219094D01*
X33530D02*
X31431D01*
X33530Y216995D01*
Y216470D01*
X33005Y215945D01*
X31956D01*
X31431Y216470D01*
X34579Y215945D02*
X36678D01*
Y216470D01*
X34579Y218569D01*
Y219094D01*
X27987Y209251D02*
Y206103D01*
X29561D01*
X30086Y206628D01*
Y207677D01*
X29561Y208202D01*
X27987D01*
X29037D02*
X30086Y209251D01*
X33235D02*
X31135D01*
X33235Y207152D01*
Y206628D01*
X32710Y206103D01*
X31660D01*
X31135Y206628D01*
X36383Y206103D02*
X35334Y206628D01*
X34284Y207677D01*
Y208727D01*
X34809Y209251D01*
X35858D01*
X36383Y208727D01*
Y208202D01*
X35858Y207677D01*
X34284D01*
X14041Y87008D02*
Y90157D01*
X12466D01*
X11942Y89632D01*
Y88583D01*
X12466Y88058D01*
X14041D01*
X12991D02*
X11942Y87008D01*
X8793D02*
X10892D01*
X8793Y89107D01*
Y89632D01*
X9318Y90157D01*
X10367D01*
X10892Y89632D01*
X7744D02*
X7219Y90157D01*
X6169D01*
X5644Y89632D01*
Y89107D01*
X6169Y88583D01*
X6694D01*
X6169D01*
X5644Y88058D01*
Y87533D01*
X6169Y87008D01*
X7219D01*
X7744Y87533D01*
X14041Y93898D02*
Y97047D01*
X12466D01*
X11942Y96522D01*
Y95473D01*
X12466Y94948D01*
X14041D01*
X12991D02*
X11942Y93898D01*
X8793D02*
X10892D01*
X8793Y95997D01*
Y96522D01*
X9318Y97047D01*
X10367D01*
X10892Y96522D01*
X5644Y93898D02*
X7744D01*
X5644Y95997D01*
Y96522D01*
X6169Y97047D01*
X7219D01*
X7744Y96522D01*
X13516Y107678D02*
Y110826D01*
X11942D01*
X11417Y110301D01*
Y109252D01*
X11942Y108727D01*
X13516D01*
X12466D02*
X11417Y107678D01*
X8268D02*
X10367D01*
X8268Y109777D01*
Y110301D01*
X8793Y110826D01*
X9843D01*
X10367Y110301D01*
X7219Y107678D02*
X6169D01*
X6694D01*
Y110826D01*
X7219Y110301D01*
X189568Y208267D02*
Y205119D01*
X191142D01*
X191667Y205643D01*
Y206693D01*
X191142Y207218D01*
X189568D01*
X190618D02*
X191667Y208267D01*
X192717D02*
X193766D01*
X193242D01*
Y205119D01*
X192717Y205643D01*
X195341D02*
X195865Y205119D01*
X196915D01*
X197440Y205643D01*
Y206168D01*
X196915Y206693D01*
X197440Y207218D01*
Y207742D01*
X196915Y208267D01*
X195865D01*
X195341Y207742D01*
Y207218D01*
X195865Y206693D01*
X195341Y206168D01*
Y205643D01*
X195865Y206693D02*
X196915D01*
X189568Y222047D02*
Y218898D01*
X191142D01*
X191667Y219423D01*
Y220472D01*
X191142Y220997D01*
X189568D01*
X190618D02*
X191667Y222047D01*
X192717D02*
X193766D01*
X193242D01*
Y218898D01*
X192717Y219423D01*
X197440Y218898D02*
X195341D01*
Y220472D01*
X196390Y219948D01*
X196915D01*
X197440Y220472D01*
Y221522D01*
X196915Y222047D01*
X195865D01*
X195341Y221522D01*
X189568Y215157D02*
Y212008D01*
X191142D01*
X191667Y212533D01*
Y213583D01*
X191142Y214107D01*
X189568D01*
X190618D02*
X191667Y215157D01*
X192717D02*
X193766D01*
X193242D01*
Y212008D01*
X192717Y212533D01*
X196915Y215157D02*
Y212008D01*
X195341Y213583D01*
X197440D01*
X13778Y80119D02*
Y83267D01*
X12204D01*
X11679Y82742D01*
Y81693D01*
X12204Y81168D01*
X13778D01*
X12729D02*
X11679Y80119D01*
X10630D02*
X9580D01*
X10105D01*
Y83267D01*
X10630Y82742D01*
X8006D02*
X7481Y83267D01*
X6431D01*
X5907Y82742D01*
Y82218D01*
X6431Y81693D01*
X6956D01*
X6431D01*
X5907Y81168D01*
Y80643D01*
X6431Y80119D01*
X7481D01*
X8006Y80643D01*
X13253Y100788D02*
Y103937D01*
X11679D01*
X11154Y103412D01*
Y102362D01*
X11679Y101837D01*
X13253D01*
X12204D02*
X11154Y100788D01*
X10105D02*
X9055D01*
X9580D01*
Y103937D01*
X10105Y103412D01*
X7481Y100788D02*
X6431D01*
X6956D01*
Y103937D01*
X7481Y103412D01*
X13778Y114567D02*
Y117716D01*
X12204D01*
X11679Y117191D01*
Y116142D01*
X12204Y115617D01*
X13778D01*
X12729D02*
X11679Y114567D01*
X10630D02*
X9580D01*
X10105D01*
Y117716D01*
X10630Y117191D01*
X8006D02*
X7481Y117716D01*
X6431D01*
X5907Y117191D01*
Y115092D01*
X6431Y114567D01*
X7481D01*
X8006Y115092D01*
Y117191D01*
X13451Y121457D02*
Y124606D01*
X11876D01*
X11351Y124081D01*
Y123031D01*
X11876Y122507D01*
X13451D01*
X12401D02*
X11351Y121457D01*
X10302Y124081D02*
X9777Y124606D01*
X8728D01*
X8203Y124081D01*
Y123556D01*
X8728Y123031D01*
X8203Y122507D01*
Y121982D01*
X8728Y121457D01*
X9777D01*
X10302Y121982D01*
Y122507D01*
X9777Y123031D01*
X10302Y123556D01*
Y124081D01*
X9777Y123031D02*
X8728D01*
X135560Y162074D02*
Y165223D01*
X133986D01*
X133461Y164698D01*
Y163648D01*
X133986Y163124D01*
X135560D01*
X134511D02*
X133461Y162074D01*
X130312Y165223D02*
X132411D01*
Y163648D01*
X131362Y164173D01*
X130837D01*
X130312Y163648D01*
Y162599D01*
X130837Y162074D01*
X131887D01*
X132411Y162599D01*
X129263Y161549D02*
X127164D01*
X126114Y162074D02*
Y165223D01*
X124540D01*
X124015Y164698D01*
Y163648D01*
X124540Y163124D01*
X126114D01*
X122966Y164698D02*
X122441Y165223D01*
X121391D01*
X120867Y164698D01*
Y164173D01*
X121391Y163648D01*
X121916D01*
X121391D01*
X120867Y163124D01*
Y162599D01*
X121391Y162074D01*
X122441D01*
X122966Y162599D01*
X135560Y106956D02*
Y110104D01*
X133986D01*
X133461Y109580D01*
Y108530D01*
X133986Y108005D01*
X135560D01*
X134511D02*
X133461Y106956D01*
X130312Y110104D02*
X132411D01*
Y108530D01*
X131362Y109055D01*
X130837D01*
X130312Y108530D01*
Y107481D01*
X130837Y106956D01*
X131887D01*
X132411Y107481D01*
X129263Y106431D02*
X127164D01*
X126114Y106956D02*
Y110104D01*
X124540D01*
X124015Y109580D01*
Y108530D01*
X124540Y108005D01*
X126114D01*
X120867Y106956D02*
X122966D01*
X120867Y109055D01*
Y109580D01*
X121391Y110104D01*
X122441D01*
X122966Y109580D01*
X134511Y51838D02*
Y54986D01*
X132936D01*
X132411Y54461D01*
Y53412D01*
X132936Y52887D01*
X134511D01*
X133461D02*
X132411Y51838D01*
X129263Y54986D02*
X131362D01*
Y53412D01*
X130312Y53937D01*
X129788D01*
X129263Y53412D01*
Y52363D01*
X129788Y51838D01*
X130837D01*
X131362Y52363D01*
X128213Y51313D02*
X126114D01*
X125065Y51838D02*
Y54986D01*
X123490D01*
X122966Y54461D01*
Y53412D01*
X123490Y52887D01*
X125065D01*
X121916Y51838D02*
X120867D01*
X121391D01*
Y54986D01*
X121916Y54461D01*
X169025Y144665D02*
Y147813D01*
X167450D01*
X166926Y147288D01*
Y146239D01*
X167450Y145714D01*
X169025D01*
X167975D02*
X166926Y144665D01*
X164302D02*
Y147813D01*
X165876Y146239D01*
X163777D01*
X162727Y144140D02*
X160628D01*
X159579Y144665D02*
Y147813D01*
X158004D01*
X157480Y147288D01*
Y146239D01*
X158004Y145714D01*
X159579D01*
X154331Y144665D02*
X156430D01*
X154331Y146764D01*
Y147288D01*
X154856Y147813D01*
X155905D01*
X156430Y147288D01*
X101049Y63386D02*
Y66535D01*
X99475D01*
X98950Y66010D01*
Y64961D01*
X99475Y64436D01*
X101049D01*
X99999D02*
X98950Y63386D01*
X97900Y66010D02*
X97376Y66535D01*
X96326D01*
X95801Y66010D01*
Y65485D01*
X96326Y64961D01*
X96851D01*
X96326D01*
X95801Y64436D01*
Y63911D01*
X96326Y63386D01*
X97376D01*
X97900Y63911D01*
X100524Y76772D02*
Y79921D01*
X98950D01*
X98425Y79396D01*
Y78347D01*
X98950Y77822D01*
X100524D01*
X99475D02*
X98425Y76772D01*
X97376D02*
X96326D01*
X96851D01*
Y79921D01*
X97376Y79396D01*
X98031Y176771D02*
X100130D01*
Y175197D01*
X99080D01*
X100130D01*
Y173623D01*
X96981Y176771D02*
Y173623D01*
X95407D01*
X94882Y174147D01*
Y174672D01*
X95407Y175197D01*
X96981D01*
X95407D01*
X94882Y175722D01*
Y176246D01*
X95407Y176771D01*
X96981D01*
X93833Y173623D02*
X92783D01*
X93308D01*
Y176771D01*
X93833Y176246D01*
X45406Y146719D02*
X45931Y147244D01*
X46980D01*
X47505Y146719D01*
Y144620D01*
X46980Y144095D01*
X45931D01*
X45406Y144620D01*
X42258Y144095D02*
X44357D01*
X42258Y146194D01*
Y146719D01*
X42782Y147244D01*
X43832D01*
X44357Y146719D01*
X41208D02*
X40683Y147244D01*
X39634D01*
X39109Y146719D01*
Y144620D01*
X39634Y144095D01*
X40683D01*
X41208Y144620D01*
Y146719D01*
X184907Y20128D02*
X185432Y20653D01*
X186482D01*
X187007Y20128D01*
Y18029D01*
X186482Y17504D01*
X185432D01*
X184907Y18029D01*
X183858Y17504D02*
X182808D01*
X183333D01*
Y20653D01*
X183858Y20128D01*
X181234Y20653D02*
X179135D01*
Y20128D01*
X181234Y18029D01*
Y17504D01*
X111155Y158136D02*
X110630Y158661D01*
Y159710D01*
X111155Y160235D01*
X113254D01*
X113779Y159710D01*
Y158661D01*
X113254Y158136D01*
X113779Y157086D02*
Y156037D01*
Y156562D01*
X110630D01*
X111155Y157086D01*
X110630Y152364D02*
X111155Y153413D01*
X112205Y154463D01*
X113254D01*
X113779Y153938D01*
Y152888D01*
X113254Y152364D01*
X112730D01*
X112205Y152888D01*
Y154463D01*
X36285Y149672D02*
X36810Y150196D01*
X37860D01*
X38385Y149672D01*
Y147573D01*
X37860Y147048D01*
X36810D01*
X36285Y147573D01*
X35236Y147048D02*
X34186D01*
X34711D01*
Y150196D01*
X35236Y149672D01*
X30513Y150196D02*
X32612D01*
Y148622D01*
X31563Y149147D01*
X31038D01*
X30513Y148622D01*
Y147573D01*
X31038Y147048D01*
X32087D01*
X32612Y147573D01*
X120998Y128427D02*
X120473Y128952D01*
Y130001D01*
X120998Y130526D01*
X123097D01*
X123621Y130001D01*
Y128952D01*
X123097Y128427D01*
X123621Y127378D02*
Y126328D01*
Y126853D01*
X120473D01*
X120998Y127378D01*
X123621Y123179D02*
X120473D01*
X122047Y124754D01*
Y122655D01*
X128872Y128427D02*
X128347Y128952D01*
Y130001D01*
X128872Y130526D01*
X130971D01*
X131495Y130001D01*
Y128952D01*
X130971Y128427D01*
X131495Y127378D02*
Y126328D01*
Y126853D01*
X128347D01*
X128872Y127378D01*
Y124754D02*
X128347Y124229D01*
Y123179D01*
X128872Y122655D01*
X129396D01*
X129921Y123179D01*
Y123704D01*
Y123179D01*
X130446Y122655D01*
X130971D01*
X131495Y123179D01*
Y124229D01*
X130971Y124754D01*
X93675Y87664D02*
X94200Y88188D01*
X95249D01*
X95774Y87664D01*
Y85565D01*
X95249Y85040D01*
X94200D01*
X93675Y85565D01*
X92626Y85040D02*
X91576D01*
X92101D01*
Y88188D01*
X92626Y87664D01*
X87903Y85040D02*
X90002D01*
X87903Y87139D01*
Y87664D01*
X88428Y88188D01*
X89477D01*
X90002Y87664D01*
X67257Y84711D02*
X67782Y85236D01*
X68831D01*
X69356Y84711D01*
Y82612D01*
X68831Y82087D01*
X67782D01*
X67257Y82612D01*
X66207Y82087D02*
X65158D01*
X65683D01*
Y85236D01*
X66207Y84711D01*
X63583Y82087D02*
X62534D01*
X63059D01*
Y85236D01*
X63583Y84711D01*
X68766Y93569D02*
X69291Y94094D01*
X70340D01*
X70865Y93569D01*
Y91470D01*
X70340Y90945D01*
X69291D01*
X68766Y91470D01*
X67716Y90945D02*
X66667D01*
X67191D01*
Y94094D01*
X67716Y93569D01*
X65092D02*
X64568Y94094D01*
X63518D01*
X62993Y93569D01*
Y91470D01*
X63518Y90945D01*
X64568D01*
X65092Y91470D01*
Y93569D01*
X111745Y122506D02*
X112270Y123031D01*
X113320D01*
X113844Y122506D01*
Y120407D01*
X113320Y119882D01*
X112270D01*
X111745Y120407D01*
X110696D02*
X110171Y119882D01*
X109121D01*
X108597Y120407D01*
Y122506D01*
X109121Y123031D01*
X110171D01*
X110696Y122506D01*
Y121981D01*
X110171Y121457D01*
X108597D01*
X97375Y169357D02*
X97900Y169881D01*
X98949D01*
X99474Y169357D01*
Y167258D01*
X98949Y166733D01*
X97900D01*
X97375Y167258D01*
X96326Y169881D02*
X94226D01*
Y169357D01*
X96326Y167258D01*
Y166733D01*
X97966Y160498D02*
X98491Y161023D01*
X99540D01*
X100065Y160498D01*
Y158399D01*
X99540Y157875D01*
X98491D01*
X97966Y158399D01*
X96916Y160498D02*
X96391Y161023D01*
X95342D01*
X94817Y160498D01*
Y159974D01*
X95342Y159449D01*
X94817Y158924D01*
Y158399D01*
X95342Y157875D01*
X96391D01*
X96916Y158399D01*
Y158924D01*
X96391Y159449D01*
X96916Y159974D01*
Y160498D01*
X96391Y159449D02*
X95342D01*
D82*
X66107Y138386D02*
X65615Y139238D01*
X64631D01*
X64139Y138386D01*
X64631Y137533D01*
X65615D01*
X66107Y138386D01*
D119*
X82284Y66929D02*
X81839Y67852D01*
X80840Y68081D01*
X80038Y67442D01*
Y66417D01*
X80840Y65778D01*
X81839Y66006D01*
X82284Y66929D01*
M02*
