G04*
G04 #@! TF.GenerationSoftware,Altium Limited,Altium Designer,20.2.6 (244)*
G04*
G04 Layer_Physical_Order=3*
G04 Layer_Color=16776960*
%FSLAX25Y25*%
%MOIN*%
G70*
G04*
G04 #@! TF.SameCoordinates,023A6027-31B4-44E3-9114-37264AD4D944*
G04*
G04*
G04 #@! TF.FilePolarity,Positive*
G04*
G01*
G75*
%ADD13C,0.01000*%
%ADD81C,0.01200*%
%ADD88C,0.07000*%
%ADD96R,0.07000X0.09000*%
%ADD97C,0.04724*%
%ADD98C,0.02362*%
G36*
X42983Y232095D02*
X42895Y232003D01*
X42746Y231829D01*
X42685Y231746D01*
X42634Y231666D01*
X42592Y231589D01*
X42560Y231515D01*
X42537Y231444D01*
X42524Y231376D01*
X42520Y231311D01*
X41350Y232480D01*
X41415Y232484D01*
X41483Y232498D01*
X41554Y232521D01*
X41628Y232553D01*
X41705Y232595D01*
X41785Y232646D01*
X41868Y232706D01*
X41954Y232776D01*
X42135Y232944D01*
X42983Y232095D01*
D02*
G37*
G36*
X40495Y230472D02*
X40446Y230516D01*
X40389Y230554D01*
X40322Y230588D01*
X40247Y230618D01*
X40163Y230643D01*
X40071Y230663D01*
X39969Y230679D01*
X39859Y230690D01*
X39613Y230699D01*
Y231899D01*
X39740Y231902D01*
X39969Y231920D01*
X40071Y231936D01*
X40163Y231956D01*
X40247Y231981D01*
X40322Y232010D01*
X40389Y232044D01*
X40446Y232083D01*
X40495Y232126D01*
Y230472D01*
D02*
G37*
G36*
X234691Y223361D02*
X234191Y223301D01*
X233828Y224812D01*
X232985Y226848D01*
X231834Y228727D01*
X230403Y230403D01*
X228727Y231834D01*
X226848Y232985D01*
X224812Y233828D01*
X223301Y234191D01*
X223361Y234691D01*
X234691D01*
Y223361D01*
D02*
G37*
G36*
X217643Y234191D02*
X216133Y233828D01*
X214097Y232985D01*
X212218Y231834D01*
X210542Y230403D01*
X209111Y228727D01*
X207960Y226848D01*
X207117Y224812D01*
X206602Y222669D01*
X206429Y220472D01*
X206602Y218276D01*
X207117Y216133D01*
X207960Y214097D01*
X209111Y212218D01*
X210542Y210542D01*
X212218Y209111D01*
X214097Y207960D01*
X216133Y207117D01*
X218276Y206602D01*
X220472Y206429D01*
X222669Y206602D01*
X224812Y207117D01*
X226848Y207960D01*
X228727Y209111D01*
X230403Y210542D01*
X231834Y212218D01*
X232985Y214097D01*
X233828Y216133D01*
X234191Y217643D01*
X234691Y217584D01*
Y198110D01*
X234191Y197940D01*
X233836Y198403D01*
X232805Y199194D01*
X231604Y199692D01*
X230315Y199862D01*
X229026Y199692D01*
X227825Y199194D01*
X226794Y198403D01*
X226260Y197707D01*
X225760D01*
X225335Y198261D01*
X224304Y199053D01*
X223103Y199550D01*
X221814Y199720D01*
X220525Y199550D01*
X219324Y199053D01*
X218293Y198261D01*
X217501Y197230D01*
X217004Y196029D01*
X216834Y194740D01*
X217004Y193451D01*
X217501Y192251D01*
X218293Y191219D01*
X219324Y190428D01*
X220525Y189930D01*
X221814Y189761D01*
X223103Y189930D01*
X224304Y190428D01*
X225335Y191219D01*
X225869Y191915D01*
X226369D01*
X226794Y191361D01*
X227825Y190569D01*
X229026Y190072D01*
X230315Y189902D01*
X231604Y190072D01*
X232805Y190569D01*
X233836Y191361D01*
X234191Y191823D01*
X234691Y191654D01*
Y142992D01*
X234191Y142822D01*
X233836Y143285D01*
X232805Y144076D01*
X231604Y144574D01*
X230315Y144743D01*
X229026Y144574D01*
X227825Y144076D01*
X226794Y143285D01*
X226260Y142589D01*
X225760D01*
X225335Y143143D01*
X224304Y143935D01*
X223103Y144432D01*
X221814Y144602D01*
X220525Y144432D01*
X219324Y143935D01*
X218293Y143143D01*
X217501Y142112D01*
X217004Y140911D01*
X216834Y139622D01*
X217004Y138333D01*
X217501Y137132D01*
X218293Y136101D01*
X219324Y135310D01*
X220525Y134812D01*
X221814Y134643D01*
X223103Y134812D01*
X224304Y135310D01*
X225335Y136101D01*
X225869Y136797D01*
X226369D01*
X226794Y136243D01*
X227825Y135451D01*
X229026Y134954D01*
X230315Y134784D01*
X231604Y134954D01*
X232805Y135451D01*
X233836Y136243D01*
X234191Y136705D01*
X234691Y136536D01*
Y87524D01*
X234191Y87354D01*
X233568Y88167D01*
X232536Y88958D01*
X231335Y89456D01*
X230047Y89625D01*
X228758Y89456D01*
X227557Y88958D01*
X226525Y88167D01*
X226182Y87719D01*
X225682D01*
X225338Y88167D01*
X224307Y88958D01*
X223106Y89456D01*
X221817Y89625D01*
X220528Y89456D01*
X219327Y88958D01*
X218296Y88167D01*
X217504Y87135D01*
X217007Y85935D01*
X216837Y84646D01*
X217007Y83357D01*
X217504Y82156D01*
X218296Y81125D01*
X219327Y80333D01*
X220528Y79836D01*
X221817Y79666D01*
X223106Y79836D01*
X224307Y80333D01*
X225338Y81125D01*
X225682Y81573D01*
X226182D01*
X226525Y81125D01*
X227557Y80333D01*
X228758Y79836D01*
X230047Y79666D01*
X231335Y79836D01*
X232536Y80333D01*
X233568Y81125D01*
X234191Y81937D01*
X234691Y81767D01*
Y18636D01*
X234191Y18577D01*
X233828Y20088D01*
X232985Y22124D01*
X231834Y24002D01*
X230403Y25678D01*
X228727Y27109D01*
X226848Y28261D01*
X224812Y29104D01*
X222669Y29618D01*
X220472Y29791D01*
X218276Y29618D01*
X216133Y29104D01*
X214097Y28261D01*
X212218Y27109D01*
X210542Y25678D01*
X209111Y24002D01*
X207960Y22124D01*
X207117Y20088D01*
X206602Y17945D01*
X206429Y15748D01*
X206602Y13551D01*
X207117Y11408D01*
X207960Y9373D01*
X209111Y7494D01*
X210542Y5818D01*
X212218Y4387D01*
X214097Y3235D01*
X216133Y2392D01*
X217643Y2029D01*
X217584Y1529D01*
X18636D01*
X18577Y2029D01*
X20088Y2392D01*
X22124Y3235D01*
X24002Y4387D01*
X25678Y5818D01*
X27109Y7494D01*
X28261Y9373D01*
X29104Y11408D01*
X29618Y13551D01*
X29791Y15748D01*
X29618Y17945D01*
X29104Y20088D01*
X28261Y22124D01*
X27109Y24002D01*
X25678Y25678D01*
X24002Y27109D01*
X22124Y28261D01*
X20088Y29104D01*
X17945Y29618D01*
X15748Y29791D01*
X13551Y29618D01*
X11408Y29104D01*
X9373Y28261D01*
X7494Y27109D01*
X5818Y25678D01*
X4387Y24002D01*
X3235Y22124D01*
X2392Y20088D01*
X2029Y18577D01*
X1529Y18636D01*
Y234691D01*
X41770D01*
X41961Y234229D01*
X41250Y233517D01*
X41246Y233514D01*
X41228Y233501D01*
X40488Y233354D01*
X39860Y232934D01*
X39850Y232933D01*
X39820Y232931D01*
X15748D01*
X15124Y232806D01*
X14594Y232453D01*
X3768Y221626D01*
X3414Y221097D01*
X3290Y220472D01*
Y160433D01*
X3414Y159809D01*
X3768Y159280D01*
X22388Y140659D01*
X22391Y140655D01*
X22404Y140637D01*
X22552Y139897D01*
X23034Y139175D01*
X23755Y138693D01*
X24606Y138524D01*
X25358Y138674D01*
X40185Y123846D01*
X40714Y123493D01*
X41339Y123369D01*
X44463D01*
X44671Y123102D01*
X44450Y122610D01*
X33870D01*
Y113610D01*
X44870D01*
Y122176D01*
X44870Y122391D01*
X45370Y122598D01*
X48566Y119403D01*
Y106299D01*
X48690Y105675D01*
X49043Y105146D01*
X52980Y101209D01*
X53510Y100855D01*
X54134Y100731D01*
X58408D01*
Y81693D01*
X58532Y81069D01*
X58886Y80539D01*
X66282Y73143D01*
Y49860D01*
X52165D01*
X51541Y49736D01*
X51012Y49382D01*
X40185Y38555D01*
X39831Y38026D01*
X39707Y37402D01*
Y28148D01*
X39643Y28121D01*
X38941Y27582D01*
X38402Y26880D01*
X38063Y26062D01*
X37947Y25184D01*
X38063Y24306D01*
X38402Y23489D01*
X38941Y22786D01*
X39643Y22247D01*
X40461Y21908D01*
X41339Y21793D01*
X42216Y21908D01*
X43034Y22247D01*
X43736Y22786D01*
X44276Y23489D01*
X44614Y24306D01*
X44730Y25184D01*
X44614Y26062D01*
X44276Y26880D01*
X43736Y27582D01*
X43034Y28121D01*
X42970Y28148D01*
Y36726D01*
X52841Y46597D01*
X66408D01*
X66413Y46597D01*
X66435Y46593D01*
X67062Y46174D01*
X67913Y46005D01*
X68764Y46174D01*
X69392Y46593D01*
X69402Y46595D01*
X69432Y46597D01*
X84646D01*
X85270Y46721D01*
X85799Y47075D01*
X105656Y66931D01*
X106009Y67461D01*
X106119Y68010D01*
X106822Y68713D01*
X107371Y68822D01*
X107900Y69176D01*
X108437Y69713D01*
X108782Y70228D01*
X108856Y70278D01*
X109299Y70941D01*
X109611Y71082D01*
X109806Y71141D01*
X120254Y60693D01*
Y49871D01*
X120251Y49852D01*
X120244Y49823D01*
X120211Y49801D01*
X119729Y49079D01*
X119559Y48228D01*
X119729Y47377D01*
X120211Y46656D01*
X120932Y46174D01*
X121783Y46005D01*
X122634Y46174D01*
X123355Y46656D01*
X123838Y47377D01*
X124007Y48228D01*
X123838Y49079D01*
X123355Y49801D01*
X123322Y49823D01*
X123315Y49852D01*
X123312Y49871D01*
Y61326D01*
X123196Y61912D01*
X122864Y62408D01*
X90639Y94633D01*
X90806Y95472D01*
X90637Y96323D01*
X90155Y97045D01*
X89433Y97527D01*
X88582Y97696D01*
X87731Y97527D01*
X87600Y97439D01*
X87159Y97675D01*
Y98776D01*
X90200Y101817D01*
X120140D01*
X120159Y101814D01*
X120188Y101808D01*
X120211Y101774D01*
X120932Y101292D01*
X121783Y101123D01*
X122634Y101292D01*
X123355Y101774D01*
X123838Y102495D01*
X124007Y103347D01*
X123838Y104198D01*
X123355Y104919D01*
X122634Y105401D01*
X121783Y105570D01*
X120932Y105401D01*
X120211Y104919D01*
X120188Y104885D01*
X120159Y104879D01*
X120140Y104876D01*
X89567D01*
X88982Y104759D01*
X88485Y104428D01*
X84548Y100491D01*
X84217Y99995D01*
X84101Y99410D01*
Y94162D01*
X84098Y94143D01*
X84091Y94115D01*
X84057Y94092D01*
X83575Y93371D01*
X83435Y92664D01*
X82951Y92440D01*
X81254Y94137D01*
Y107050D01*
X81695Y107285D01*
X81826Y107197D01*
X82677Y107028D01*
X83528Y107197D01*
X84250Y107679D01*
X84732Y108401D01*
X84901Y109252D01*
X84732Y110103D01*
X84250Y110825D01*
X83528Y111307D01*
X82677Y111476D01*
X81826Y111307D01*
X81695Y111219D01*
X81254Y111454D01*
Y111971D01*
X81695Y112206D01*
X81826Y112119D01*
X82677Y111949D01*
X83528Y112119D01*
X84250Y112601D01*
X84732Y113322D01*
X84901Y114173D01*
X84732Y115024D01*
X84250Y115746D01*
X84031Y115892D01*
Y116392D01*
X84250Y116538D01*
X84732Y117259D01*
X84901Y118110D01*
X84732Y118961D01*
X84250Y119683D01*
X83528Y120165D01*
X82677Y120334D01*
X81826Y120165D01*
X81695Y120077D01*
X81254Y120313D01*
Y133858D01*
X81137Y134443D01*
X81031Y134603D01*
X81419Y134922D01*
X92422Y123919D01*
X92919Y123587D01*
X93504Y123471D01*
X105666D01*
X130360Y98776D01*
Y93996D01*
Y90551D01*
Y86614D01*
X130477Y86029D01*
X130808Y85533D01*
X144588Y71753D01*
X145084Y71422D01*
X145669Y71305D01*
X159775D01*
X159793Y71302D01*
X159822Y71296D01*
X159845Y71262D01*
X160566Y70780D01*
X161417Y70611D01*
X162268Y70780D01*
X162990Y71262D01*
X163472Y71984D01*
X163641Y72835D01*
X163472Y73686D01*
X162990Y74407D01*
X162268Y74889D01*
X161417Y75059D01*
X160566Y74889D01*
X159845Y74407D01*
X159822Y74373D01*
X159793Y74367D01*
X159775Y74364D01*
X146303D01*
X133419Y87248D01*
Y90551D01*
Y93996D01*
Y99410D01*
X133303Y99995D01*
X132971Y100491D01*
X107879Y125583D01*
X108071Y126045D01*
X160057D01*
X160076Y126042D01*
X160105Y126035D01*
X160128Y126002D01*
X160849Y125520D01*
X161700Y125350D01*
X162551Y125520D01*
X163273Y126002D01*
X163755Y126723D01*
X163887Y127390D01*
X164391Y127593D01*
X166169Y125815D01*
X166699Y125461D01*
X167323Y125337D01*
X177503D01*
Y73356D01*
X177502Y73351D01*
X177498Y73329D01*
X177079Y72701D01*
X176910Y71850D01*
X177079Y70999D01*
X177498Y70372D01*
X177500Y70362D01*
X177503Y70332D01*
Y40046D01*
X156407Y18950D01*
X156403Y18947D01*
X156385Y18934D01*
X155645Y18787D01*
X154924Y18305D01*
X154441Y17583D01*
X154272Y16732D01*
X154441Y15881D01*
X154924Y15160D01*
X155645Y14678D01*
X156496Y14508D01*
X157347Y14678D01*
X158069Y15160D01*
X158551Y15881D01*
X158698Y16621D01*
X158704Y16630D01*
X158724Y16653D01*
X180287Y38217D01*
X180641Y38746D01*
X180765Y39370D01*
Y70345D01*
X180766Y70350D01*
X180769Y70372D01*
X181188Y70999D01*
X181358Y71850D01*
X181188Y72701D01*
X180769Y73329D01*
X180768Y73339D01*
X180765Y73369D01*
Y125463D01*
X180766Y125468D01*
X180769Y125490D01*
X181188Y126118D01*
X181358Y126969D01*
X181188Y127820D01*
X180769Y128447D01*
X180768Y128457D01*
X180765Y128487D01*
Y180581D01*
X180766Y180586D01*
X180769Y180608D01*
X181188Y181236D01*
X181358Y182087D01*
X181188Y182938D01*
X180706Y183659D01*
X179985Y184141D01*
X179134Y184310D01*
X178283Y184141D01*
X177655Y183722D01*
X177645Y183720D01*
X177615Y183718D01*
X168983D01*
X163555Y189146D01*
X163026Y189499D01*
X162402Y189623D01*
X151575D01*
X150951Y189499D01*
X150421Y189146D01*
X143025Y181749D01*
X91073D01*
X91067Y181750D01*
X91045Y181753D01*
X90418Y182173D01*
X89567Y182342D01*
X88716Y182173D01*
X88089Y181753D01*
X88078Y181752D01*
X88048Y181749D01*
X67369D01*
X67243Y182249D01*
X68102Y182708D01*
X69603Y183940D01*
X70835Y185441D01*
X71750Y187154D01*
X72314Y189012D01*
X72504Y190945D01*
X72314Y192877D01*
X71750Y194736D01*
X70835Y196448D01*
X69603Y197950D01*
X68102Y199181D01*
X66389Y200097D01*
X64531Y200660D01*
X62598Y200851D01*
X60666Y200660D01*
X58808Y200097D01*
X57095Y199181D01*
X55594Y197950D01*
X54362Y196448D01*
X53447Y194736D01*
X52883Y192877D01*
X52693Y190945D01*
X52883Y189012D01*
X53447Y187154D01*
X54362Y185441D01*
X55594Y183940D01*
X57095Y182708D01*
X57954Y182249D01*
X57828Y181749D01*
X57087D01*
X56462Y181625D01*
X55933Y181272D01*
X50028Y175366D01*
X49674Y174837D01*
X49550Y174213D01*
Y173693D01*
X49050Y173568D01*
X48394Y174795D01*
X47162Y176296D01*
X45661Y177528D01*
X43948Y178443D01*
X42090Y179007D01*
X40157Y179197D01*
X38225Y179007D01*
X36367Y178443D01*
X34654Y177528D01*
X33153Y176296D01*
X31921Y174795D01*
X31006Y173082D01*
X30442Y171224D01*
X30252Y169291D01*
X30442Y167359D01*
X31006Y165500D01*
X31921Y163788D01*
X33153Y162287D01*
X34654Y161055D01*
X36367Y160139D01*
X38225Y159576D01*
X40157Y159385D01*
X42090Y159576D01*
X43948Y160139D01*
X45661Y161055D01*
X47162Y162287D01*
X48394Y163788D01*
X49050Y165015D01*
X49550Y164890D01*
Y162093D01*
X29836Y142379D01*
X26112D01*
X26107Y142380D01*
X26085Y142383D01*
X25457Y142803D01*
X24717Y142950D01*
X24709Y142956D01*
X24686Y142975D01*
X6553Y161109D01*
Y219797D01*
X16424Y229668D01*
X39833D01*
X39838Y229667D01*
X39860Y229664D01*
X40488Y229245D01*
X41339Y229075D01*
X42190Y229245D01*
X42911Y229727D01*
X43393Y230448D01*
X43540Y231188D01*
X43546Y231196D01*
X43566Y231220D01*
X45142Y232795D01*
X85898D01*
X86034Y232314D01*
X85250Y231834D01*
X83574Y230403D01*
X82143Y228727D01*
X80991Y226848D01*
X80148Y224812D01*
X79634Y222669D01*
X79461Y220472D01*
X79634Y218276D01*
X80148Y216133D01*
X80991Y214097D01*
X82143Y212218D01*
X83574Y210542D01*
X85250Y209111D01*
X87128Y207960D01*
X89164Y207117D01*
X91307Y206602D01*
X93504Y206429D01*
X95701Y206602D01*
X97844Y207117D01*
X99879Y207960D01*
X101758Y209111D01*
X103434Y210542D01*
X104865Y212218D01*
X106017Y214097D01*
X106860Y216133D01*
X107374Y218276D01*
X107547Y220472D01*
X107374Y222669D01*
X106860Y224812D01*
X106017Y226848D01*
X104865Y228727D01*
X103434Y230403D01*
X101758Y231834D01*
X100974Y232314D01*
X101110Y232795D01*
X147772D01*
X156683Y223884D01*
Y220891D01*
X156038Y220624D01*
X155098Y219902D01*
X154376Y218962D01*
X153923Y217868D01*
X153768Y216693D01*
X153923Y215518D01*
X154376Y214423D01*
X155098Y213484D01*
X156038Y212762D01*
X157132Y212309D01*
X158307Y212154D01*
X159482Y212309D01*
X160576Y212762D01*
X161516Y213484D01*
X162238Y214423D01*
X162691Y215518D01*
X162846Y216693D01*
X162691Y217868D01*
X162238Y218962D01*
X161516Y219902D01*
X160576Y220624D01*
X159946Y220885D01*
Y224560D01*
X159946Y224560D01*
X159821Y225184D01*
X159468Y225713D01*
X150952Y234229D01*
X151143Y234691D01*
X217584D01*
X217643Y234191D01*
D02*
G37*
G36*
X163170Y184916D02*
X162852Y184528D01*
X162268Y184918D01*
X161417Y185087D01*
X160566Y184918D01*
X159845Y184436D01*
X159363Y183714D01*
X159194Y182863D01*
X159363Y182012D01*
X159837Y181302D01*
X159515Y180819D01*
X159398Y180233D01*
Y178012D01*
X159515Y177427D01*
X159624Y177264D01*
Y158834D01*
X153894Y153104D01*
X91039D01*
X84869Y159274D01*
X84373Y159606D01*
X83788Y159722D01*
X79400D01*
X78910Y160050D01*
X78059Y160219D01*
X77208Y160050D01*
X76486Y159568D01*
X76068Y158941D01*
X75692Y158871D01*
X75503Y158887D01*
X75391Y159053D01*
X74670Y159535D01*
X73819Y159704D01*
X72968Y159535D01*
X72246Y159053D01*
X71804Y158391D01*
X71732Y158324D01*
X71232Y158217D01*
X70733Y158551D01*
X70026Y158691D01*
X69802Y159175D01*
X78389Y167762D01*
X110323D01*
X119540Y158545D01*
X119552Y158529D01*
X119567Y158504D01*
X119559Y158465D01*
X119729Y157614D01*
X120211Y156892D01*
X120932Y156410D01*
X121783Y156241D01*
X122634Y156410D01*
X123355Y156892D01*
X123838Y157614D01*
X124007Y158465D01*
X123838Y159316D01*
X123355Y160037D01*
X122634Y160519D01*
X121783Y160688D01*
X121743Y160680D01*
X121718Y160696D01*
X121703Y160708D01*
X112038Y170373D01*
X111541Y170704D01*
X110956Y170821D01*
X77756D01*
X77171Y170704D01*
X76674Y170373D01*
X72478Y166176D01*
X72036Y166441D01*
X72314Y167359D01*
X72504Y169291D01*
X72314Y171224D01*
X71750Y173082D01*
X70835Y174795D01*
X69603Y176296D01*
X68102Y177528D01*
X67243Y177987D01*
X67369Y178487D01*
X88061D01*
X88066Y178486D01*
X88089Y178483D01*
X88716Y178064D01*
X89567Y177894D01*
X90418Y178064D01*
X91045Y178483D01*
X91055Y178484D01*
X91086Y178487D01*
X143701D01*
X144325Y178611D01*
X144854Y178965D01*
X152251Y186361D01*
X161726D01*
X163170Y184916D01*
D02*
G37*
G36*
X178290Y181260D02*
X178242Y181303D01*
X178184Y181342D01*
X178118Y181376D01*
X178042Y181405D01*
X177959Y181430D01*
X177866Y181450D01*
X177765Y181466D01*
X177654Y181477D01*
X177408Y181487D01*
Y182687D01*
X177535Y182689D01*
X177765Y182707D01*
X177866Y182723D01*
X177959Y182743D01*
X178042Y182768D01*
X178118Y182798D01*
X178184Y182832D01*
X178242Y182870D01*
X178290Y182913D01*
Y181260D01*
D02*
G37*
G36*
X162182Y181953D02*
X162127Y181880D01*
X162077Y181801D01*
X162035Y181716D01*
X161999Y181626D01*
X161970Y181529D01*
X161947Y181427D01*
X161930Y181319D01*
X161921Y181204D01*
X161917Y181084D01*
X160917D01*
X160914Y181204D01*
X160904Y181319D01*
X160888Y181427D01*
X160865Y181529D01*
X160836Y181626D01*
X160800Y181716D01*
X160757Y181801D01*
X160708Y181880D01*
X160653Y181953D01*
X160591Y182020D01*
X162244D01*
X162182Y181953D01*
D02*
G37*
G36*
X179918Y181194D02*
X179879Y181137D01*
X179845Y181070D01*
X179815Y180995D01*
X179791Y180911D01*
X179770Y180819D01*
X179754Y180717D01*
X179743Y180607D01*
X179734Y180361D01*
X178534D01*
X178532Y180488D01*
X178513Y180717D01*
X178498Y180819D01*
X178477Y180911D01*
X178452Y180995D01*
X178423Y181070D01*
X178389Y181137D01*
X178350Y181194D01*
X178307Y181243D01*
X179961D01*
X179918Y181194D01*
D02*
G37*
G36*
X90459Y180902D02*
X90517Y180863D01*
X90583Y180829D01*
X90658Y180800D01*
X90742Y180775D01*
X90835Y180754D01*
X90936Y180738D01*
X91046Y180727D01*
X91293Y180718D01*
Y179518D01*
X91165Y179516D01*
X90936Y179498D01*
X90835Y179482D01*
X90742Y179461D01*
X90658Y179437D01*
X90583Y179407D01*
X90517Y179373D01*
X90459Y179334D01*
X90410Y179291D01*
Y180945D01*
X90459Y180902D01*
D02*
G37*
G36*
X88723Y179291D02*
X88675Y179334D01*
X88617Y179373D01*
X88551Y179407D01*
X88476Y179437D01*
X88392Y179461D01*
X88299Y179482D01*
X88198Y179498D01*
X88087Y179509D01*
X87841Y179518D01*
Y180718D01*
X87969Y180720D01*
X88198Y180738D01*
X88299Y180754D01*
X88392Y180775D01*
X88476Y180800D01*
X88551Y180829D01*
X88617Y180863D01*
X88675Y180902D01*
X88723Y180945D01*
Y179291D01*
D02*
G37*
G36*
X120966Y159993D02*
X121054Y159920D01*
X121142Y159854D01*
X121230Y159798D01*
X121319Y159751D01*
X121409Y159712D01*
X121499Y159682D01*
X121589Y159661D01*
X121680Y159649D01*
X121771Y159646D01*
X120602Y158476D01*
X120598Y158568D01*
X120586Y158659D01*
X120565Y158749D01*
X120535Y158839D01*
X120497Y158928D01*
X120449Y159017D01*
X120393Y159106D01*
X120328Y159194D01*
X120254Y159282D01*
X120172Y159369D01*
X120879Y160076D01*
X120966Y159993D01*
D02*
G37*
G36*
X75003Y157377D02*
X75016Y157286D01*
X75037Y157196D01*
X75067Y157106D01*
X75105Y157017D01*
X75153Y156928D01*
X75209Y156839D01*
X75274Y156751D01*
X75348Y156663D01*
X75430Y156576D01*
X74723Y155869D01*
X74636Y155952D01*
X74548Y156025D01*
X74460Y156090D01*
X74372Y156147D01*
X74283Y156194D01*
X74193Y156233D01*
X74103Y156263D01*
X74013Y156283D01*
X73922Y156296D01*
X73831Y156299D01*
X75000Y157468D01*
X75003Y157377D01*
D02*
G37*
G36*
X70647Y155586D02*
X70591Y155513D01*
X70542Y155434D01*
X70499Y155349D01*
X70464Y155259D01*
X70434Y155162D01*
X70411Y155060D01*
X70395Y154952D01*
X70385Y154837D01*
X70382Y154717D01*
X69382D01*
X69379Y154837D01*
X69369Y154952D01*
X69353Y155060D01*
X69330Y155162D01*
X69300Y155259D01*
X69264Y155349D01*
X69222Y155434D01*
X69173Y155513D01*
X69117Y155586D01*
X69055Y155653D01*
X70709D01*
X70647Y155586D01*
D02*
G37*
G36*
X167154Y180933D02*
X167683Y180579D01*
X168307Y180455D01*
X177503D01*
Y128600D01*
X167999D01*
X151744Y144854D01*
X151215Y145208D01*
X150591Y145332D01*
X138317D01*
X138312Y145333D01*
X138289Y145336D01*
X137662Y145755D01*
X136811Y145925D01*
X135960Y145755D01*
X135239Y145273D01*
X134757Y144552D01*
X134587Y143701D01*
X134757Y142850D01*
X135239Y142128D01*
X135960Y141646D01*
X136811Y141477D01*
X137662Y141646D01*
X138289Y142066D01*
X138300Y142067D01*
X138330Y142069D01*
X140645D01*
X140694Y141569D01*
X140617Y141554D01*
X139896Y141072D01*
X139413Y140351D01*
X139244Y139500D01*
X139413Y138649D01*
X139896Y137927D01*
X140617Y137445D01*
X141468Y137276D01*
X142319Y137445D01*
X143041Y137927D01*
X143523Y138649D01*
X143692Y139500D01*
X143523Y140351D01*
X143041Y141072D01*
X142319Y141554D01*
X142242Y141569D01*
X142291Y142069D01*
X149915D01*
X161719Y130265D01*
X161516Y129761D01*
X160849Y129629D01*
X160128Y129147D01*
X160105Y129113D01*
X160076Y129106D01*
X160057Y129103D01*
X104359D01*
X78177Y155285D01*
X78342Y155828D01*
X78910Y155941D01*
X79631Y156423D01*
X79792Y156664D01*
X80268D01*
X80583Y156164D01*
X80453Y155512D01*
X80623Y154661D01*
X81105Y153939D01*
X81826Y153457D01*
X82677Y153288D01*
X83528Y153457D01*
X84250Y153939D01*
X84619Y154492D01*
X85195Y154623D01*
X89324Y150493D01*
X89821Y150162D01*
X90406Y150045D01*
X139266D01*
X139501Y149604D01*
X139413Y149473D01*
X139244Y148622D01*
X139413Y147771D01*
X139896Y147050D01*
X140617Y146567D01*
X141468Y146398D01*
X142319Y146567D01*
X143041Y147050D01*
X143523Y147771D01*
X143692Y148622D01*
X143523Y149473D01*
X143435Y149604D01*
X143671Y150045D01*
X154527D01*
X155113Y150162D01*
X155609Y150493D01*
X162235Y157119D01*
X162566Y157615D01*
X162682Y158200D01*
Y177787D01*
X162566Y178372D01*
X162457Y178535D01*
Y179600D01*
X162499Y179641D01*
X162830Y180138D01*
X162947Y180723D01*
Y181220D01*
X162950Y181239D01*
X162956Y181268D01*
X162990Y181291D01*
X163472Y182012D01*
X163641Y182863D01*
X163472Y183714D01*
X163082Y184297D01*
X163471Y184616D01*
X167154Y180933D01*
D02*
G37*
G36*
X137703Y144484D02*
X137761Y144446D01*
X137827Y144412D01*
X137902Y144382D01*
X137986Y144358D01*
X138079Y144337D01*
X138180Y144321D01*
X138291Y144310D01*
X138537Y144301D01*
Y143101D01*
X138409Y143098D01*
X138180Y143080D01*
X138079Y143064D01*
X137986Y143044D01*
X137902Y143019D01*
X137827Y142990D01*
X137761Y142956D01*
X137703Y142917D01*
X137654Y142874D01*
Y144528D01*
X137703Y144484D01*
D02*
G37*
G36*
X23902Y142304D02*
X24077Y142155D01*
X24160Y142095D01*
X24240Y142043D01*
X24317Y142002D01*
X24390Y141970D01*
X24462Y141947D01*
X24530Y141933D01*
X24595Y141929D01*
X23425Y140760D01*
X23421Y140825D01*
X23408Y140893D01*
X23385Y140964D01*
X23353Y141038D01*
X23311Y141115D01*
X23260Y141195D01*
X23199Y141278D01*
X23130Y141364D01*
X22962Y141544D01*
X23810Y142393D01*
X23902Y142304D01*
D02*
G37*
G36*
X25499Y141532D02*
X25556Y141493D01*
X25623Y141459D01*
X25698Y141430D01*
X25782Y141405D01*
X25874Y141384D01*
X25976Y141368D01*
X26086Y141357D01*
X26332Y141348D01*
Y140782D01*
X26699Y140489D01*
X26008Y139482D01*
X25914Y139572D01*
X25744Y139712D01*
X25666Y139763D01*
X25594Y139802D01*
X25527Y139827D01*
X25465Y139840D01*
X25409Y139840D01*
X25358Y139827D01*
X25312Y139801D01*
X25450Y140490D01*
Y141575D01*
X25499Y141532D01*
D02*
G37*
G36*
X179736Y128567D02*
X179754Y128338D01*
X179770Y128236D01*
X179791Y128144D01*
X179815Y128060D01*
X179845Y127985D01*
X179879Y127918D01*
X179918Y127861D01*
X179961Y127812D01*
X178307D01*
X178350Y127861D01*
X178389Y127918D01*
X178423Y127985D01*
X178452Y128060D01*
X178477Y128144D01*
X178498Y128236D01*
X178513Y128338D01*
X178525Y128448D01*
X178534Y128694D01*
X179734D01*
X179736Y128567D01*
D02*
G37*
G36*
X160857Y126747D02*
X160790Y126809D01*
X160717Y126865D01*
X160638Y126914D01*
X160553Y126956D01*
X160463Y126992D01*
X160366Y127022D01*
X160264Y127045D01*
X160156Y127061D01*
X160041Y127071D01*
X159921Y127074D01*
Y128074D01*
X160041Y128077D01*
X160156Y128087D01*
X160264Y128103D01*
X160366Y128126D01*
X160463Y128156D01*
X160553Y128192D01*
X160638Y128234D01*
X160717Y128283D01*
X160790Y128339D01*
X160857Y128401D01*
Y126747D01*
D02*
G37*
G36*
X72968Y155426D02*
X73819Y155256D01*
X73859Y155264D01*
X73883Y155249D01*
X73899Y155237D01*
X86020Y143116D01*
X85889Y142540D01*
X85337Y142171D01*
X84855Y141449D01*
X84685Y140598D01*
X84855Y139747D01*
X85337Y139026D01*
X86058Y138544D01*
X86909Y138374D01*
X87760Y138544D01*
X88482Y139026D01*
X88851Y139578D01*
X89427Y139709D01*
X92736Y136400D01*
X92571Y135858D01*
X91931Y135431D01*
X91449Y134709D01*
X91280Y133858D01*
X91449Y133007D01*
X91931Y132286D01*
X92653Y131804D01*
X93504Y131634D01*
X94355Y131804D01*
X95076Y132286D01*
X95504Y132925D01*
X96046Y133090D01*
X102145Y126991D01*
X101954Y126529D01*
X94137D01*
X71411Y149256D01*
Y154853D01*
X71414Y154872D01*
X71421Y154901D01*
X71454Y154924D01*
X71897Y155586D01*
X71969Y155652D01*
X72469Y155759D01*
X72968Y155426D01*
D02*
G37*
G36*
X178290Y126142D02*
X178242Y126185D01*
X178184Y126223D01*
X178118Y126257D01*
X178042Y126287D01*
X177959Y126312D01*
X177866Y126332D01*
X177765Y126348D01*
X177654Y126359D01*
X177408Y126368D01*
Y127568D01*
X177535Y127571D01*
X177765Y127589D01*
X177866Y127605D01*
X177959Y127625D01*
X178042Y127650D01*
X178118Y127680D01*
X178184Y127714D01*
X178242Y127752D01*
X178290Y127795D01*
Y126142D01*
D02*
G37*
G36*
X179918Y126076D02*
X179879Y126019D01*
X179845Y125952D01*
X179815Y125877D01*
X179791Y125793D01*
X179770Y125701D01*
X179754Y125599D01*
X179743Y125489D01*
X179734Y125242D01*
X178534D01*
X178532Y125370D01*
X178513Y125599D01*
X178498Y125701D01*
X178477Y125793D01*
X178452Y125877D01*
X178423Y125952D01*
X178389Y126019D01*
X178350Y126076D01*
X178307Y126125D01*
X179961D01*
X179918Y126076D01*
D02*
G37*
G36*
X120940Y102520D02*
X120873Y102582D01*
X120800Y102637D01*
X120721Y102686D01*
X120636Y102729D01*
X120546Y102765D01*
X120449Y102794D01*
X120347Y102817D01*
X120238Y102833D01*
X120124Y102843D01*
X120004Y102847D01*
Y103847D01*
X120124Y103850D01*
X120238Y103859D01*
X120347Y103876D01*
X120449Y103899D01*
X120546Y103928D01*
X120636Y103964D01*
X120721Y104007D01*
X120800Y104056D01*
X120873Y104111D01*
X120940Y104173D01*
Y102520D01*
D02*
G37*
G36*
X59196Y101535D02*
X59147Y101578D01*
X59089Y101617D01*
X59023Y101651D01*
X58948Y101681D01*
X58864Y101706D01*
X58772Y101726D01*
X58670Y101742D01*
X58560Y101753D01*
X58313Y101762D01*
Y102962D01*
X58441Y102964D01*
X58670Y102983D01*
X58772Y102998D01*
X58864Y103019D01*
X58948Y103044D01*
X59023Y103073D01*
X59089Y103107D01*
X59147Y103146D01*
X59196Y103189D01*
Y101535D01*
D02*
G37*
G36*
X60823Y101470D02*
X60785Y101412D01*
X60751Y101346D01*
X60721Y101271D01*
X60696Y101187D01*
X60676Y101094D01*
X60660Y100993D01*
X60648Y100883D01*
X60639Y100636D01*
X59439D01*
X59437Y100764D01*
X59419Y100993D01*
X59403Y101094D01*
X59383Y101187D01*
X59358Y101271D01*
X59328Y101346D01*
X59294Y101412D01*
X59256Y101470D01*
X59213Y101519D01*
X60866D01*
X60823Y101470D01*
D02*
G37*
G36*
X89513Y94731D02*
X89490Y94664D01*
X89480Y94595D01*
X89484Y94523D01*
X89501Y94447D01*
X89532Y94369D01*
X89577Y94287D01*
X89635Y94203D01*
X89706Y94116D01*
X89791Y94025D01*
X88380Y94023D01*
X87998Y94446D01*
X89550Y94794D01*
X89513Y94731D01*
D02*
G37*
G36*
X86133Y94178D02*
X86143Y94064D01*
X86159Y93956D01*
X86182Y93854D01*
X86212Y93757D01*
X86248Y93666D01*
X86290Y93582D01*
X86339Y93503D01*
X86395Y93430D01*
X86457Y93363D01*
X84803D01*
X84865Y93430D01*
X84921Y93503D01*
X84970Y93582D01*
X85012Y93666D01*
X85048Y93757D01*
X85078Y93854D01*
X85101Y93956D01*
X85117Y94064D01*
X85127Y94178D01*
X85130Y94298D01*
X86130D01*
X86133Y94178D01*
D02*
G37*
G36*
X83180Y90241D02*
X83190Y90127D01*
X83207Y90019D01*
X83229Y89917D01*
X83259Y89820D01*
X83295Y89729D01*
X83337Y89645D01*
X83386Y89566D01*
X83442Y89493D01*
X83504Y89426D01*
X81850D01*
X81912Y89493D01*
X81968Y89566D01*
X82017Y89645D01*
X82060Y89729D01*
X82095Y89820D01*
X82125Y89917D01*
X82148Y90019D01*
X82164Y90127D01*
X82174Y90241D01*
X82177Y90361D01*
X83177D01*
X83180Y90241D01*
D02*
G37*
G36*
X179736Y73449D02*
X179754Y73220D01*
X179770Y73118D01*
X179791Y73026D01*
X179815Y72942D01*
X179845Y72867D01*
X179879Y72800D01*
X179918Y72743D01*
X179961Y72694D01*
X178307D01*
X178350Y72743D01*
X178389Y72800D01*
X178423Y72867D01*
X178452Y72942D01*
X178477Y73026D01*
X178498Y73118D01*
X178513Y73220D01*
X178525Y73330D01*
X178534Y73576D01*
X179734D01*
X179736Y73449D01*
D02*
G37*
G36*
X160574Y72008D02*
X160507Y72070D01*
X160434Y72126D01*
X160355Y72175D01*
X160271Y72217D01*
X160180Y72253D01*
X160083Y72282D01*
X159981Y72305D01*
X159873Y72322D01*
X159759Y72331D01*
X159639Y72335D01*
Y73335D01*
X159759Y73338D01*
X159873Y73348D01*
X159981Y73364D01*
X160083Y73387D01*
X160180Y73416D01*
X160271Y73452D01*
X160355Y73495D01*
X160434Y73544D01*
X160507Y73599D01*
X160574Y73661D01*
Y72008D01*
D02*
G37*
G36*
X179918Y70958D02*
X179879Y70900D01*
X179845Y70834D01*
X179815Y70759D01*
X179791Y70675D01*
X179770Y70582D01*
X179754Y70481D01*
X179743Y70371D01*
X179734Y70124D01*
X178534D01*
X178532Y70252D01*
X178513Y70481D01*
X178498Y70582D01*
X178477Y70675D01*
X178452Y70759D01*
X178423Y70834D01*
X178389Y70900D01*
X178350Y70958D01*
X178307Y71007D01*
X179961D01*
X179918Y70958D01*
D02*
G37*
G36*
X53447Y165500D02*
X54362Y163788D01*
X55594Y162287D01*
X57095Y161055D01*
X58808Y160139D01*
X60666Y159576D01*
X62598Y159385D01*
X64531Y159576D01*
X65449Y159854D01*
X65714Y159412D01*
X63879Y157578D01*
X63548Y157081D01*
X63431Y156496D01*
Y148622D01*
X63548Y148037D01*
X63879Y147541D01*
X78195Y133225D01*
Y93504D01*
X78311Y92919D01*
X78643Y92422D01*
X81027Y90039D01*
X80623Y89434D01*
X80453Y88583D01*
X80623Y87732D01*
X81105Y87010D01*
X81826Y86528D01*
X82030Y86488D01*
X82014Y85981D01*
X81800Y85953D01*
X80982Y85614D01*
X80279Y85075D01*
X79740Y84373D01*
X79401Y83555D01*
X79286Y82677D01*
X79401Y81800D01*
X79740Y80982D01*
X80279Y80279D01*
X80982Y79740D01*
X81800Y79401D01*
X82677Y79286D01*
X83555Y79401D01*
X84373Y79740D01*
X85075Y80279D01*
X85614Y80982D01*
X85953Y81800D01*
X86068Y82677D01*
X85953Y83555D01*
X85614Y84373D01*
X85075Y85075D01*
X84373Y85614D01*
X83555Y85953D01*
X83341Y85981D01*
X83324Y86488D01*
X83528Y86528D01*
X84250Y87010D01*
X84732Y87732D01*
X84901Y88583D01*
X84732Y89434D01*
X84473Y89821D01*
X84523Y90045D01*
X84779Y90465D01*
X85630Y90296D01*
X86481Y90465D01*
X87202Y90947D01*
X87685Y91669D01*
X87831Y92408D01*
X88299Y92647D01*
X106574Y74372D01*
X106515Y74178D01*
X106374Y73866D01*
X105711Y73423D01*
X105229Y72701D01*
X105060Y71850D01*
X105114Y71574D01*
X104978Y71483D01*
X103349Y69854D01*
X102995Y69325D01*
X102886Y68776D01*
X83970Y49860D01*
X69545D01*
Y73819D01*
X69421Y74443D01*
X69067Y74972D01*
X61671Y82369D01*
Y100857D01*
X61671Y100862D01*
X61675Y100884D01*
X62094Y101511D01*
X62263Y102362D01*
X62094Y103213D01*
X61612Y103935D01*
X60890Y104417D01*
X60039Y104586D01*
X59188Y104417D01*
X58561Y103998D01*
X58551Y103996D01*
X58521Y103994D01*
X54810D01*
X51828Y106975D01*
Y120079D01*
X51704Y120703D01*
X51350Y121232D01*
X46429Y126154D01*
X45900Y126507D01*
X45276Y126631D01*
X42014D01*
X29991Y138655D01*
X30182Y139117D01*
X30512D01*
X31136Y139241D01*
X31665Y139594D01*
X52335Y160264D01*
X52688Y160793D01*
X52812Y161417D01*
Y165868D01*
X53312Y165943D01*
X53447Y165500D01*
D02*
G37*
G36*
X122286Y49887D02*
X122296Y49773D01*
X122312Y49665D01*
X122335Y49562D01*
X122365Y49466D01*
X122401Y49375D01*
X122443Y49290D01*
X122492Y49212D01*
X122548Y49139D01*
X122610Y49072D01*
X120956D01*
X121018Y49139D01*
X121074Y49212D01*
X121123Y49290D01*
X121165Y49375D01*
X121201Y49466D01*
X121231Y49562D01*
X121254Y49665D01*
X121270Y49773D01*
X121280Y49887D01*
X121283Y50007D01*
X122283D01*
X122286Y49887D01*
D02*
G37*
G36*
X68516Y49827D02*
X68534Y49598D01*
X68550Y49496D01*
X68570Y49404D01*
X68595Y49320D01*
X68625Y49245D01*
X68659Y49178D01*
X68697Y49121D01*
X68740Y49072D01*
X67087D01*
X67130Y49121D01*
X67168Y49178D01*
X67202Y49245D01*
X67232Y49320D01*
X67257Y49404D01*
X67277Y49496D01*
X67293Y49598D01*
X67304Y49708D01*
X67313Y49954D01*
X68513D01*
X68516Y49827D01*
D02*
G37*
G36*
X68806Y49012D02*
X68863Y48974D01*
X68930Y48939D01*
X69005Y48910D01*
X69089Y48885D01*
X69181Y48865D01*
X69283Y48849D01*
X69393Y48837D01*
X69639Y48828D01*
Y47628D01*
X69512Y47626D01*
X69283Y47608D01*
X69181Y47592D01*
X69089Y47572D01*
X69005Y47547D01*
X68930Y47517D01*
X68863Y47483D01*
X68806Y47445D01*
X68757Y47402D01*
Y49055D01*
X68806Y49012D01*
D02*
G37*
G36*
X67070Y47402D02*
X67021Y47445D01*
X66963Y47483D01*
X66897Y47517D01*
X66822Y47547D01*
X66738Y47572D01*
X66645Y47592D01*
X66544Y47608D01*
X66434Y47619D01*
X66187Y47628D01*
Y48828D01*
X66315Y48831D01*
X66544Y48849D01*
X66645Y48865D01*
X66738Y48885D01*
X66822Y48910D01*
X66897Y48939D01*
X66963Y48974D01*
X67021Y49012D01*
X67070Y49055D01*
Y47402D01*
D02*
G37*
G36*
X158141Y17528D02*
X158052Y17437D01*
X157903Y17262D01*
X157843Y17179D01*
X157791Y17099D01*
X157750Y17022D01*
X157718Y16948D01*
X157695Y16877D01*
X157681Y16809D01*
X157677Y16744D01*
X156508Y17913D01*
X156573Y17917D01*
X156641Y17931D01*
X156712Y17954D01*
X156786Y17986D01*
X156863Y18028D01*
X156943Y18079D01*
X157026Y18139D01*
X157112Y18209D01*
X157292Y18377D01*
X158141Y17528D01*
D02*
G37*
G36*
X234691Y12860D02*
Y1529D01*
X223361D01*
X223301Y2029D01*
X224812Y2392D01*
X226848Y3235D01*
X228727Y4387D01*
X230403Y5818D01*
X231834Y7494D01*
X232985Y9373D01*
X233828Y11408D01*
X234191Y12919D01*
X234691Y12860D01*
D02*
G37*
G36*
X2392Y11408D02*
X3235Y9373D01*
X4387Y7494D01*
X5818Y5818D01*
X7494Y4387D01*
X9373Y3235D01*
X11408Y2392D01*
X12919Y2029D01*
X12860Y1529D01*
X1529D01*
Y12860D01*
X2029Y12919D01*
X2392Y11408D01*
D02*
G37*
%LPC*%
G36*
X175197Y222696D02*
X174346Y222527D01*
X173624Y222045D01*
X173302Y221563D01*
X172932Y221265D01*
X172607Y221193D01*
X172341Y221193D01*
X163807D01*
Y212193D01*
X172807D01*
Y212333D01*
X173307Y212485D01*
X173624Y212010D01*
X174346Y211528D01*
X175197Y211359D01*
X176048Y211528D01*
X176769Y212010D01*
X177251Y212732D01*
X177421Y213583D01*
X177251Y214434D01*
X176769Y215155D01*
X176048Y215637D01*
X175197Y215807D01*
X174346Y215637D01*
X173624Y215155D01*
X173307Y214680D01*
X172807Y214832D01*
Y219223D01*
X173307Y219375D01*
X173624Y218900D01*
X174346Y218418D01*
X175197Y218249D01*
X176048Y218418D01*
X176769Y218900D01*
X177251Y219621D01*
X177421Y220472D01*
X177251Y221323D01*
X176769Y222045D01*
X176048Y222527D01*
X175197Y222696D01*
D02*
G37*
G36*
X128807Y221166D02*
Y217193D01*
X132780D01*
X132691Y217868D01*
X132238Y218962D01*
X131517Y219902D01*
X130577Y220624D01*
X129482Y221077D01*
X128807Y221166D01*
D02*
G37*
G36*
X127807D02*
X127132Y221077D01*
X126038Y220624D01*
X125098Y219902D01*
X124376Y218962D01*
X123923Y217868D01*
X123834Y217193D01*
X127807D01*
Y221166D01*
D02*
G37*
G36*
X62599Y226723D02*
X61225Y226588D01*
X59905Y226187D01*
X58688Y225537D01*
X57622Y224662D01*
X56747Y223595D01*
X56096Y222378D01*
X55696Y221058D01*
X55561Y219685D01*
X55696Y218312D01*
X56096Y216992D01*
X56747Y215775D01*
X57622Y214709D01*
X58688Y213833D01*
X59905Y213183D01*
X61225Y212783D01*
X62599Y212647D01*
X63972Y212783D01*
X65292Y213183D01*
X66509Y213833D01*
X67575Y214709D01*
X68450Y215775D01*
X69100Y216992D01*
X69501Y218312D01*
X69636Y219685D01*
X69501Y221058D01*
X69100Y222378D01*
X68450Y223595D01*
X67575Y224662D01*
X66509Y225537D01*
X65292Y226187D01*
X63972Y226588D01*
X62599Y226723D01*
D02*
G37*
G36*
X17717Y226723D02*
X16343Y226588D01*
X15023Y226187D01*
X13807Y225537D01*
X12740Y224661D01*
X11865Y223595D01*
X11214Y222378D01*
X10814Y221058D01*
X10679Y219685D01*
X10814Y218312D01*
X11214Y216992D01*
X11865Y215775D01*
X12740Y214709D01*
X13807Y213833D01*
X15023Y213183D01*
X16343Y212783D01*
X17717Y212647D01*
X19090Y212783D01*
X20410Y213183D01*
X21627Y213833D01*
X22693Y214709D01*
X23568Y215775D01*
X24219Y216992D01*
X24619Y218312D01*
X24754Y219685D01*
X24619Y221058D01*
X24219Y222378D01*
X23568Y223595D01*
X22693Y224661D01*
X21627Y225537D01*
X20410Y226187D01*
X19090Y226588D01*
X17717Y226723D01*
D02*
G37*
G36*
X132780Y216193D02*
X128807D01*
Y212220D01*
X129482Y212309D01*
X130577Y212762D01*
X131517Y213484D01*
X132238Y214423D01*
X132691Y215518D01*
X132780Y216193D01*
D02*
G37*
G36*
X127807D02*
X123834D01*
X123923Y215518D01*
X124376Y214423D01*
X125098Y213484D01*
X126038Y212762D01*
X127132Y212309D01*
X127807Y212220D01*
Y216193D01*
D02*
G37*
G36*
X148307Y221232D02*
X147132Y221077D01*
X146038Y220624D01*
X145098Y219902D01*
X144376Y218962D01*
X143923Y217868D01*
X143768Y216693D01*
X143923Y215518D01*
X144376Y214423D01*
X145098Y213484D01*
X146038Y212762D01*
X147132Y212309D01*
X148307Y212154D01*
X149482Y212309D01*
X150576Y212762D01*
X151516Y213484D01*
X152238Y214423D01*
X152691Y215518D01*
X152846Y216693D01*
X152691Y217868D01*
X152238Y218962D01*
X151516Y219902D01*
X150576Y220624D01*
X149482Y221077D01*
X148307Y221232D01*
D02*
G37*
G36*
X138307D02*
X137132Y221077D01*
X136038Y220624D01*
X135098Y219902D01*
X134376Y218962D01*
X133923Y217868D01*
X133768Y216693D01*
X133923Y215518D01*
X134376Y214423D01*
X135098Y213484D01*
X136038Y212762D01*
X137132Y212309D01*
X138307Y212154D01*
X139482Y212309D01*
X140577Y212762D01*
X141516Y213484D01*
X142238Y214423D01*
X142691Y215518D01*
X142846Y216693D01*
X142691Y217868D01*
X142238Y218962D01*
X141516Y219902D01*
X140577Y220624D01*
X139482Y221077D01*
X138307Y221232D01*
D02*
G37*
G36*
X128807Y211166D02*
Y207193D01*
X132780D01*
X132691Y207868D01*
X132238Y208962D01*
X131517Y209902D01*
X130577Y210624D01*
X129482Y211077D01*
X128807Y211166D01*
D02*
G37*
G36*
X127807D02*
X127132Y211077D01*
X126038Y210624D01*
X125098Y209902D01*
X124376Y208962D01*
X123923Y207868D01*
X123834Y207193D01*
X127807D01*
Y211166D01*
D02*
G37*
G36*
X168307Y211232D02*
X167132Y211077D01*
X166038Y210624D01*
X165098Y209902D01*
X164376Y208962D01*
X163923Y207868D01*
X163768Y206693D01*
X163923Y205518D01*
X164376Y204423D01*
X165098Y203484D01*
X166038Y202762D01*
X167132Y202309D01*
X168307Y202154D01*
X169482Y202309D01*
X170577Y202762D01*
X171517Y203484D01*
X172238Y204423D01*
X172691Y205518D01*
X172709Y205653D01*
X173222Y205722D01*
X173624Y205120D01*
X174346Y204638D01*
X175197Y204469D01*
X176048Y204638D01*
X176769Y205120D01*
X177251Y205842D01*
X177421Y206693D01*
X177251Y207544D01*
X176769Y208265D01*
X176048Y208748D01*
X175197Y208917D01*
X174346Y208748D01*
X173624Y208265D01*
X173222Y207664D01*
X172709Y207733D01*
X172691Y207868D01*
X172238Y208962D01*
X171517Y209902D01*
X170577Y210624D01*
X169482Y211077D01*
X168307Y211232D01*
D02*
G37*
G36*
X132780Y206193D02*
X128807D01*
Y202220D01*
X129482Y202309D01*
X130577Y202762D01*
X131517Y203484D01*
X132238Y204423D01*
X132691Y205518D01*
X132780Y206193D01*
D02*
G37*
G36*
X127807D02*
X123834D01*
X123923Y205518D01*
X124376Y204423D01*
X125098Y203484D01*
X126038Y202762D01*
X127132Y202309D01*
X127807Y202220D01*
Y206193D01*
D02*
G37*
G36*
X158307Y211232D02*
X157132Y211077D01*
X156038Y210624D01*
X155098Y209902D01*
X154376Y208962D01*
X153923Y207868D01*
X153768Y206693D01*
X153923Y205518D01*
X154376Y204423D01*
X155098Y203484D01*
X156038Y202762D01*
X157132Y202309D01*
X158307Y202154D01*
X159482Y202309D01*
X160576Y202762D01*
X161516Y203484D01*
X162238Y204423D01*
X162691Y205518D01*
X162846Y206693D01*
X162691Y207868D01*
X162238Y208962D01*
X161516Y209902D01*
X160576Y210624D01*
X159482Y211077D01*
X158307Y211232D01*
D02*
G37*
G36*
X148307D02*
X147132Y211077D01*
X146038Y210624D01*
X145098Y209902D01*
X144376Y208962D01*
X143923Y207868D01*
X143768Y206693D01*
X143923Y205518D01*
X144376Y204423D01*
X145098Y203484D01*
X146038Y202762D01*
X147132Y202309D01*
X148307Y202154D01*
X149482Y202309D01*
X150576Y202762D01*
X151516Y203484D01*
X152238Y204423D01*
X152691Y205518D01*
X152846Y206693D01*
X152691Y207868D01*
X152238Y208962D01*
X151516Y209902D01*
X150576Y210624D01*
X149482Y211077D01*
X148307Y211232D01*
D02*
G37*
G36*
X138307D02*
X137132Y211077D01*
X136038Y210624D01*
X135098Y209902D01*
X134376Y208962D01*
X133923Y207868D01*
X133768Y206693D01*
X133923Y205518D01*
X134376Y204423D01*
X135098Y203484D01*
X136038Y202762D01*
X137132Y202309D01*
X138307Y202154D01*
X139482Y202309D01*
X140577Y202762D01*
X141516Y203484D01*
X142238Y204423D01*
X142691Y205518D01*
X142846Y206693D01*
X142691Y207868D01*
X142238Y208962D01*
X141516Y209902D01*
X140577Y210624D01*
X139482Y211077D01*
X138307Y211232D01*
D02*
G37*
G36*
X104331Y205964D02*
X103480Y205795D01*
X102758Y205313D01*
X102276Y204591D01*
X102107Y203740D01*
X102276Y202889D01*
X102758Y202168D01*
X103480Y201686D01*
X104331Y201516D01*
X105182Y201686D01*
X105903Y202168D01*
X106385Y202889D01*
X106554Y203740D01*
X106385Y204591D01*
X105903Y205313D01*
X105182Y205795D01*
X104331Y205964D01*
D02*
G37*
G36*
X94488Y203011D02*
X93637Y202842D01*
X92916Y202360D01*
X92434Y201638D01*
X92264Y200787D01*
X92434Y199936D01*
X92916Y199215D01*
X93637Y198733D01*
X94488Y198564D01*
X95339Y198733D01*
X96061Y199215D01*
X96543Y199936D01*
X96712Y200787D01*
X96543Y201638D01*
X96061Y202360D01*
X95339Y202842D01*
X94488Y203011D01*
D02*
G37*
G36*
X86122Y200551D02*
X85271Y200381D01*
X84549Y199899D01*
X84067Y199178D01*
X83898Y198327D01*
X84067Y197476D01*
X84549Y196754D01*
X85271Y196272D01*
X86122Y196103D01*
X86973Y196272D01*
X87695Y196754D01*
X88177Y197476D01*
X88346Y198327D01*
X88177Y199178D01*
X87695Y199899D01*
X86973Y200381D01*
X86122Y200551D01*
D02*
G37*
G36*
X141732Y197106D02*
X140881Y196936D01*
X140160Y196454D01*
X139678Y195733D01*
X139508Y194882D01*
X139678Y194031D01*
X140160Y193309D01*
X140881Y192827D01*
X141732Y192658D01*
X142583Y192827D01*
X143305Y193309D01*
X143787Y194031D01*
X143956Y194882D01*
X143787Y195733D01*
X143305Y196454D01*
X142583Y196936D01*
X141732Y197106D01*
D02*
G37*
G36*
X17717Y200851D02*
X15784Y200660D01*
X13926Y200097D01*
X12213Y199181D01*
X10712Y197950D01*
X9480Y196448D01*
X8565Y194736D01*
X8001Y192877D01*
X7811Y190945D01*
X8001Y189012D01*
X8565Y187154D01*
X9480Y185441D01*
X10712Y183940D01*
X12213Y182708D01*
X13926Y181793D01*
X15784Y181229D01*
X17717Y181039D01*
X19649Y181229D01*
X21507Y181793D01*
X23220Y182708D01*
X24721Y183940D01*
X25953Y185441D01*
X26869Y187154D01*
X27432Y189012D01*
X27623Y190945D01*
X27432Y192877D01*
X26869Y194736D01*
X25953Y196448D01*
X24721Y197950D01*
X23220Y199181D01*
X21507Y200097D01*
X19649Y200660D01*
X17717Y200851D01*
D02*
G37*
G36*
X40157Y200851D02*
X38225Y200660D01*
X36367Y200097D01*
X34654Y199181D01*
X33153Y197950D01*
X31921Y196448D01*
X31006Y194736D01*
X30442Y192877D01*
X30252Y190945D01*
X30442Y189012D01*
X31006Y187154D01*
X31921Y185441D01*
X33153Y183940D01*
X34654Y182708D01*
X36367Y181793D01*
X38225Y181229D01*
X40157Y181039D01*
X42090Y181229D01*
X43948Y181793D01*
X45661Y182708D01*
X47162Y183940D01*
X48394Y185441D01*
X49309Y187154D01*
X49873Y189012D01*
X50064Y190945D01*
X49873Y192877D01*
X49309Y194736D01*
X48394Y196448D01*
X47162Y197950D01*
X45661Y199181D01*
X43948Y200097D01*
X42090Y200660D01*
X40157Y200851D01*
D02*
G37*
G36*
X207137Y178271D02*
X205832Y178100D01*
X204616Y177596D01*
X203571Y176794D01*
X202770Y175750D01*
X202266Y174534D01*
X202094Y173228D01*
X202266Y171923D01*
X202770Y170707D01*
X203571Y169662D01*
X204616Y168861D01*
X205832Y168357D01*
X207137Y168185D01*
X208443Y168357D01*
X209659Y168861D01*
X210703Y169662D01*
X211505Y170707D01*
X212009Y171923D01*
X212180Y173228D01*
X212009Y174534D01*
X211505Y175750D01*
X210703Y176794D01*
X209659Y177596D01*
X208443Y178100D01*
X207137Y178271D01*
D02*
G37*
G36*
X195337D02*
X194032Y178100D01*
X192816Y177596D01*
X191771Y176794D01*
X190970Y175750D01*
X190466Y174534D01*
X190294Y173228D01*
X190466Y171923D01*
X190970Y170707D01*
X191771Y169662D01*
X192816Y168861D01*
X194032Y168357D01*
X195337Y168185D01*
X196643Y168357D01*
X197859Y168861D01*
X198903Y169662D01*
X199705Y170707D01*
X200209Y171923D01*
X200380Y173228D01*
X200209Y174534D01*
X199705Y175750D01*
X198903Y176794D01*
X197859Y177596D01*
X196643Y178100D01*
X195337Y178271D01*
D02*
G37*
G36*
X224145Y174262D02*
X222792Y174128D01*
X221490Y173734D01*
X220290Y173092D01*
X219239Y172229D01*
X218376Y171178D01*
X217735Y169978D01*
X217340Y168677D01*
X217206Y167323D01*
X217340Y165969D01*
X217735Y164667D01*
X218376Y163468D01*
X219239Y162416D01*
X220290Y161553D01*
X221490Y160912D01*
X222792Y160517D01*
X224145Y160384D01*
X225499Y160517D01*
X226801Y160912D01*
X228000Y161553D01*
X229052Y162416D01*
X229915Y163468D01*
X230556Y164667D01*
X230951Y165969D01*
X231084Y167323D01*
X230951Y168677D01*
X230556Y169978D01*
X229915Y171178D01*
X229052Y172229D01*
X228000Y173092D01*
X226801Y173734D01*
X225499Y174128D01*
X224145Y174262D01*
D02*
G37*
G36*
X17717Y179197D02*
X15784Y179007D01*
X13926Y178443D01*
X12213Y177528D01*
X10712Y176296D01*
X9480Y174795D01*
X8565Y173082D01*
X8001Y171224D01*
X7811Y169291D01*
X8001Y167359D01*
X8565Y165500D01*
X9480Y163788D01*
X10712Y162287D01*
X12213Y161055D01*
X13926Y160139D01*
X15784Y159576D01*
X17717Y159385D01*
X19649Y159576D01*
X21507Y160139D01*
X23220Y161055D01*
X24721Y162287D01*
X25953Y163788D01*
X26869Y165500D01*
X27432Y167359D01*
X27623Y169291D01*
X27432Y171224D01*
X26869Y173082D01*
X25953Y174795D01*
X24721Y176296D01*
X23220Y177528D01*
X21507Y178443D01*
X19649Y179007D01*
X17717Y179197D01*
D02*
G37*
G36*
X207137Y166472D02*
X205832Y166300D01*
X204616Y165797D01*
X203571Y164995D01*
X202770Y163951D01*
X202266Y162734D01*
X202094Y161429D01*
X202266Y160124D01*
X202770Y158908D01*
X203571Y157863D01*
X204616Y157062D01*
X205832Y156558D01*
X207137Y156386D01*
X208443Y156558D01*
X209659Y157062D01*
X210703Y157863D01*
X211505Y158908D01*
X212009Y160124D01*
X212180Y161429D01*
X212009Y162734D01*
X211505Y163951D01*
X210703Y164995D01*
X209659Y165797D01*
X208443Y166300D01*
X207137Y166472D01*
D02*
G37*
G36*
X195337Y166472D02*
X194032Y166300D01*
X192816Y165796D01*
X191771Y164994D01*
X190970Y163950D01*
X190466Y162734D01*
X190294Y161428D01*
X190466Y160123D01*
X190970Y158907D01*
X191771Y157862D01*
X192816Y157061D01*
X194032Y156557D01*
X195337Y156385D01*
X196643Y156557D01*
X197859Y157061D01*
X198903Y157862D01*
X199705Y158907D01*
X200209Y160123D01*
X200380Y161428D01*
X200209Y162734D01*
X199705Y163950D01*
X198903Y164994D01*
X197859Y165796D01*
X196643Y166300D01*
X195337Y166472D01*
D02*
G37*
G36*
X16732Y125255D02*
X15881Y125086D01*
X15160Y124604D01*
X14678Y123882D01*
X14508Y123031D01*
X14678Y122180D01*
X15160Y121459D01*
X15881Y120977D01*
X16732Y120808D01*
X17583Y120977D01*
X18305Y121459D01*
X18787Y122180D01*
X18956Y123031D01*
X18787Y123882D01*
X18305Y124604D01*
X17583Y125086D01*
X16732Y125255D01*
D02*
G37*
G36*
X207137Y123153D02*
X205832Y122982D01*
X204616Y122478D01*
X203571Y121676D01*
X202770Y120632D01*
X202266Y119415D01*
X202094Y118110D01*
X202266Y116805D01*
X202770Y115589D01*
X203571Y114544D01*
X204616Y113743D01*
X205832Y113239D01*
X207137Y113067D01*
X208443Y113239D01*
X209659Y113743D01*
X210703Y114544D01*
X211505Y115589D01*
X212009Y116805D01*
X212180Y118110D01*
X212009Y119415D01*
X211505Y120632D01*
X210703Y121676D01*
X209659Y122478D01*
X208443Y122982D01*
X207137Y123153D01*
D02*
G37*
G36*
X195337D02*
X194032Y122982D01*
X192816Y122478D01*
X191771Y121676D01*
X190970Y120632D01*
X190466Y119415D01*
X190294Y118110D01*
X190466Y116805D01*
X190970Y115589D01*
X191771Y114544D01*
X192816Y113743D01*
X194032Y113239D01*
X195337Y113067D01*
X196643Y113239D01*
X197859Y113743D01*
X198903Y114544D01*
X199705Y115589D01*
X200209Y116805D01*
X200380Y118110D01*
X200209Y119415D01*
X199705Y120632D01*
X198903Y121676D01*
X197859Y122478D01*
X196643Y122982D01*
X195337Y123153D01*
D02*
G37*
G36*
X224145Y119144D02*
X222792Y119010D01*
X221490Y118615D01*
X220290Y117974D01*
X219239Y117111D01*
X218376Y116060D01*
X217735Y114860D01*
X217340Y113558D01*
X217206Y112205D01*
X217340Y110851D01*
X217735Y109549D01*
X218376Y108350D01*
X219239Y107298D01*
X220290Y106435D01*
X221490Y105794D01*
X222792Y105399D01*
X224145Y105266D01*
X225499Y105399D01*
X226801Y105794D01*
X228000Y106435D01*
X229052Y107298D01*
X229915Y108350D01*
X230556Y109549D01*
X230951Y110851D01*
X231084Y112205D01*
X230951Y113558D01*
X230556Y114860D01*
X229915Y116060D01*
X229052Y117111D01*
X228000Y117974D01*
X226801Y118615D01*
X225499Y119010D01*
X224145Y119144D01*
D02*
G37*
G36*
X40370Y112649D02*
X38370D01*
X37195Y112494D01*
X36101Y112041D01*
X35161Y111320D01*
X34439Y110380D01*
X33986Y109285D01*
X33831Y108110D01*
X33986Y106936D01*
X34439Y105841D01*
X35161Y104901D01*
X36101Y104180D01*
X37195Y103726D01*
X38370Y103571D01*
X40370D01*
X41545Y103726D01*
X42639Y104180D01*
X43580Y104901D01*
X44301Y105841D01*
X44754Y106936D01*
X44909Y108110D01*
X44754Y109285D01*
X44301Y110380D01*
X43580Y111320D01*
X42639Y112041D01*
X41545Y112494D01*
X40370Y112649D01*
D02*
G37*
G36*
X207137Y111354D02*
X205832Y111182D01*
X204616Y110679D01*
X203571Y109877D01*
X202770Y108833D01*
X202266Y107616D01*
X202094Y106311D01*
X202266Y105006D01*
X202770Y103789D01*
X203571Y102745D01*
X204616Y101944D01*
X205832Y101440D01*
X207137Y101268D01*
X208443Y101440D01*
X209659Y101944D01*
X210703Y102745D01*
X211505Y103789D01*
X212009Y105006D01*
X212180Y106311D01*
X212009Y107616D01*
X211505Y108833D01*
X210703Y109877D01*
X209659Y110679D01*
X208443Y111182D01*
X207137Y111354D01*
D02*
G37*
G36*
X195337Y111353D02*
X194032Y111181D01*
X192816Y110678D01*
X191771Y109876D01*
X190970Y108832D01*
X190466Y107615D01*
X190294Y106310D01*
X190466Y105005D01*
X190970Y103789D01*
X191771Y102744D01*
X192816Y101943D01*
X194032Y101439D01*
X195337Y101267D01*
X196643Y101439D01*
X197859Y101943D01*
X198903Y102744D01*
X199705Y103789D01*
X200209Y105005D01*
X200380Y106310D01*
X200209Y107615D01*
X199705Y108832D01*
X198903Y109876D01*
X197859Y110678D01*
X196643Y111181D01*
X195337Y111353D01*
D02*
G37*
G36*
X40370Y102649D02*
X38370D01*
X37195Y102494D01*
X36101Y102041D01*
X35161Y101320D01*
X34439Y100380D01*
X33986Y99285D01*
X33831Y98110D01*
X33986Y96935D01*
X34439Y95841D01*
X35161Y94901D01*
X36101Y94179D01*
X37195Y93726D01*
X38370Y93571D01*
X40370D01*
X41545Y93726D01*
X42639Y94179D01*
X43580Y94901D01*
X44301Y95841D01*
X44754Y96935D01*
X44909Y98110D01*
X44754Y99285D01*
X44301Y100380D01*
X43580Y101320D01*
X42639Y102041D01*
X41545Y102494D01*
X40370Y102649D01*
D02*
G37*
G36*
X141468Y95728D02*
X140617Y95559D01*
X139896Y95076D01*
X139413Y94355D01*
X139244Y93504D01*
X139413Y92653D01*
X139896Y91931D01*
X140617Y91449D01*
X141468Y91280D01*
X142319Y91449D01*
X143041Y91931D01*
X143523Y92653D01*
X143692Y93504D01*
X143523Y94355D01*
X143041Y95076D01*
X142319Y95559D01*
X141468Y95728D01*
D02*
G37*
G36*
X40370Y92649D02*
X38370D01*
X37195Y92494D01*
X36101Y92041D01*
X35161Y91320D01*
X34439Y90380D01*
X33986Y89285D01*
X33831Y88110D01*
X33986Y86936D01*
X34439Y85841D01*
X35161Y84901D01*
X36101Y84180D01*
X37195Y83726D01*
X38370Y83571D01*
X40370D01*
X41545Y83726D01*
X42639Y84180D01*
X43580Y84901D01*
X44301Y85841D01*
X44754Y86936D01*
X44909Y88110D01*
X44754Y89285D01*
X44301Y90380D01*
X43580Y91320D01*
X42639Y92041D01*
X41545Y92494D01*
X40370Y92649D01*
D02*
G37*
G36*
X141732Y86837D02*
X140881Y86667D01*
X140160Y86185D01*
X139678Y85464D01*
X139508Y84613D01*
X139678Y83762D01*
X140160Y83040D01*
X140881Y82558D01*
X141732Y82389D01*
X142583Y82558D01*
X143305Y83040D01*
X143787Y83762D01*
X143956Y84613D01*
X143787Y85464D01*
X143305Y86185D01*
X142583Y86667D01*
X141732Y86837D01*
D02*
G37*
G36*
X54134Y68352D02*
X53256Y68236D01*
X52438Y67897D01*
X51736Y67359D01*
X51197Y66656D01*
X50858Y65838D01*
X50743Y64961D01*
X50858Y64083D01*
X51197Y63265D01*
X51736Y62563D01*
X52438Y62024D01*
X53256Y61685D01*
X54134Y61569D01*
X55012Y61685D01*
X55830Y62024D01*
X56532Y62563D01*
X57071Y63265D01*
X57410Y64083D01*
X57525Y64961D01*
X57410Y65838D01*
X57071Y66656D01*
X56532Y67359D01*
X55830Y67897D01*
X55012Y68236D01*
X54134Y68352D01*
D02*
G37*
G36*
X207137Y68035D02*
X205832Y67863D01*
X204616Y67360D01*
X203571Y66558D01*
X202770Y65514D01*
X202266Y64297D01*
X202094Y62992D01*
X202266Y61687D01*
X202770Y60471D01*
X203571Y59426D01*
X204616Y58625D01*
X205832Y58121D01*
X207137Y57949D01*
X208443Y58121D01*
X209659Y58625D01*
X210703Y59426D01*
X211505Y60471D01*
X212009Y61687D01*
X212180Y62992D01*
X212009Y64297D01*
X211505Y65514D01*
X210703Y66558D01*
X209659Y67360D01*
X208443Y67863D01*
X207137Y68035D01*
D02*
G37*
G36*
X195337D02*
X194032Y67863D01*
X192816Y67360D01*
X191771Y66558D01*
X190970Y65514D01*
X190466Y64297D01*
X190294Y62992D01*
X190466Y61687D01*
X190970Y60471D01*
X191771Y59426D01*
X192816Y58625D01*
X194032Y58121D01*
X195337Y57949D01*
X196643Y58121D01*
X197859Y58625D01*
X198903Y59426D01*
X199705Y60471D01*
X200209Y61687D01*
X200380Y62992D01*
X200209Y64297D01*
X199705Y65514D01*
X198903Y66558D01*
X197859Y67360D01*
X196643Y67863D01*
X195337Y68035D01*
D02*
G37*
G36*
X54134Y58352D02*
X53256Y58236D01*
X52438Y57898D01*
X51736Y57359D01*
X51197Y56656D01*
X50858Y55838D01*
X50743Y54961D01*
X50858Y54083D01*
X51197Y53265D01*
X51736Y52563D01*
X52438Y52024D01*
X53256Y51685D01*
X54134Y51569D01*
X55012Y51685D01*
X55830Y52024D01*
X56532Y52563D01*
X57071Y53265D01*
X57410Y54083D01*
X57525Y54961D01*
X57410Y55838D01*
X57071Y56656D01*
X56532Y57359D01*
X55830Y57898D01*
X55012Y58236D01*
X54134Y58352D01*
D02*
G37*
G36*
X44870Y69711D02*
X33870D01*
Y60211D01*
X38276D01*
X38309Y59711D01*
X37380Y59588D01*
X36225Y59110D01*
X35232Y58348D01*
X34471Y57356D01*
X33992Y56201D01*
X33829Y54961D01*
X33992Y53721D01*
X34471Y52565D01*
X35232Y51573D01*
X36225Y50811D01*
X37380Y50333D01*
X38620Y50170D01*
X40120D01*
X41360Y50333D01*
X42516Y50811D01*
X43508Y51573D01*
X44269Y52565D01*
X44748Y53721D01*
X44911Y54961D01*
X44748Y56201D01*
X44269Y57356D01*
X43508Y58348D01*
X42516Y59110D01*
X41360Y59588D01*
X40431Y59711D01*
X40464Y60211D01*
X44870D01*
Y69711D01*
D02*
G37*
G36*
X224145Y64025D02*
X222792Y63892D01*
X221490Y63497D01*
X220290Y62856D01*
X219239Y61993D01*
X218376Y60942D01*
X217735Y59742D01*
X217340Y58440D01*
X217206Y57087D01*
X217340Y55733D01*
X217735Y54431D01*
X218376Y53232D01*
X219239Y52180D01*
X220290Y51317D01*
X221490Y50676D01*
X222792Y50281D01*
X224145Y50148D01*
X225499Y50281D01*
X226801Y50676D01*
X228000Y51317D01*
X229052Y52180D01*
X229915Y53232D01*
X230556Y54431D01*
X230951Y55733D01*
X231084Y57087D01*
X230951Y58440D01*
X230556Y59742D01*
X229915Y60942D01*
X229052Y61993D01*
X228000Y62856D01*
X226801Y63497D01*
X225499Y63892D01*
X224145Y64025D01*
D02*
G37*
G36*
X207137Y56236D02*
X205832Y56064D01*
X204616Y55560D01*
X203571Y54759D01*
X202770Y53715D01*
X202266Y52498D01*
X202094Y51193D01*
X202266Y49888D01*
X202770Y48671D01*
X203571Y47627D01*
X204616Y46825D01*
X205832Y46322D01*
X207137Y46150D01*
X208443Y46322D01*
X209659Y46825D01*
X210703Y47627D01*
X211505Y48671D01*
X212009Y49888D01*
X212180Y51193D01*
X212009Y52498D01*
X211505Y53715D01*
X210703Y54759D01*
X209659Y55560D01*
X208443Y56064D01*
X207137Y56236D01*
D02*
G37*
G36*
X195337Y56235D02*
X194032Y56063D01*
X192816Y55560D01*
X191771Y54758D01*
X190970Y53714D01*
X190466Y52497D01*
X190294Y51192D01*
X190466Y49887D01*
X190970Y48671D01*
X191771Y47626D01*
X192816Y46825D01*
X194032Y46321D01*
X195337Y46149D01*
X196643Y46321D01*
X197859Y46825D01*
X198903Y47626D01*
X199705Y48671D01*
X200209Y49887D01*
X200380Y51192D01*
X200209Y52497D01*
X199705Y53714D01*
X198903Y54758D01*
X197859Y55560D01*
X196643Y56063D01*
X195337Y56235D01*
D02*
G37*
G36*
X63555Y44870D02*
X59555D01*
Y39870D01*
X63555D01*
Y44870D01*
D02*
G37*
G36*
X58555D02*
X54555D01*
Y39870D01*
X58555D01*
Y44870D01*
D02*
G37*
G36*
X141468Y40610D02*
X140617Y40440D01*
X139896Y39958D01*
X139413Y39237D01*
X139244Y38386D01*
X139413Y37535D01*
X139896Y36813D01*
X140617Y36331D01*
X141468Y36162D01*
X142319Y36331D01*
X143041Y36813D01*
X143523Y37535D01*
X143692Y38386D01*
X143523Y39237D01*
X143041Y39958D01*
X142319Y40440D01*
X141468Y40610D01*
D02*
G37*
G36*
X63555Y38870D02*
X59555D01*
Y33870D01*
X63555D01*
Y38870D01*
D02*
G37*
G36*
X58555D02*
X54555D01*
Y33870D01*
X58555D01*
Y38870D01*
D02*
G37*
G36*
X79055Y44909D02*
X77880Y44754D01*
X76786Y44301D01*
X75846Y43580D01*
X75124Y42639D01*
X74671Y41545D01*
X74516Y40370D01*
Y38370D01*
X74671Y37195D01*
X75124Y36101D01*
X75846Y35161D01*
X76786Y34439D01*
X77880Y33986D01*
X79055Y33831D01*
X80230Y33986D01*
X81324Y34439D01*
X82265Y35161D01*
X82986Y36101D01*
X83439Y37195D01*
X83594Y38370D01*
Y40370D01*
X83439Y41545D01*
X82986Y42639D01*
X82265Y43580D01*
X81324Y44301D01*
X80230Y44754D01*
X79055Y44909D01*
D02*
G37*
G36*
X69055D02*
X67880Y44754D01*
X66786Y44301D01*
X65846Y43580D01*
X65124Y42639D01*
X64671Y41545D01*
X64516Y40370D01*
Y38370D01*
X64671Y37195D01*
X65124Y36101D01*
X65846Y35161D01*
X66786Y34439D01*
X67880Y33986D01*
X69055Y33831D01*
X70230Y33986D01*
X71324Y34439D01*
X72265Y35161D01*
X72986Y36101D01*
X73439Y37195D01*
X73594Y38370D01*
Y40370D01*
X73439Y41545D01*
X72986Y42639D01*
X72265Y43580D01*
X71324Y44301D01*
X70230Y44754D01*
X69055Y44909D01*
D02*
G37*
G36*
X41339Y18575D02*
X40461Y18460D01*
X39643Y18121D01*
X38941Y17582D01*
X38402Y16880D01*
X38063Y16062D01*
X37947Y15184D01*
X38063Y14307D01*
X38402Y13489D01*
X38941Y12786D01*
X39643Y12247D01*
X40461Y11908D01*
X41339Y11793D01*
X42216Y11908D01*
X43034Y12247D01*
X43736Y12786D01*
X44276Y13489D01*
X44614Y14307D01*
X44730Y15184D01*
X44614Y16062D01*
X44276Y16880D01*
X43736Y17582D01*
X43034Y18121D01*
X42216Y18460D01*
X41339Y18575D01*
D02*
G37*
G36*
X190945Y7145D02*
X190094Y6976D01*
X189372Y6494D01*
X188890Y5772D01*
X188721Y4921D01*
X188890Y4070D01*
X189372Y3349D01*
X190094Y2867D01*
X190945Y2697D01*
X191796Y2867D01*
X192517Y3349D01*
X192999Y4070D01*
X193169Y4921D01*
X192999Y5772D01*
X192517Y6494D01*
X191796Y6976D01*
X190945Y7145D01*
D02*
G37*
G36*
X176181D02*
X175330Y6976D01*
X174609Y6494D01*
X174127Y5772D01*
X173957Y4921D01*
X174127Y4070D01*
X174609Y3349D01*
X175330Y2867D01*
X176181Y2697D01*
X177032Y2867D01*
X177754Y3349D01*
X178236Y4070D01*
X178405Y4921D01*
X178236Y5772D01*
X177754Y6494D01*
X177032Y6976D01*
X176181Y7145D01*
D02*
G37*
G36*
X92677Y86068D02*
X91799Y85953D01*
X90982Y85614D01*
X90279Y85075D01*
X89740Y84373D01*
X89402Y83555D01*
X89286Y82677D01*
X89402Y81800D01*
X89740Y80982D01*
X90279Y80279D01*
X90982Y79740D01*
X91799Y79401D01*
X92677Y79286D01*
X93555Y79401D01*
X94373Y79740D01*
X95075Y80279D01*
X95614Y80982D01*
X95953Y81800D01*
X96068Y82677D01*
X95953Y83555D01*
X95614Y84373D01*
X95075Y85075D01*
X94373Y85614D01*
X93555Y85953D01*
X92677Y86068D01*
D02*
G37*
G36*
X78740Y71728D02*
X77889Y71558D01*
X77168Y71076D01*
X76686Y70355D01*
X76516Y69504D01*
X76686Y68653D01*
X77168Y67931D01*
X77838Y67483D01*
X77865Y67216D01*
X77838Y66950D01*
X77168Y66502D01*
X76686Y65780D01*
X76516Y64929D01*
X76686Y64078D01*
X77168Y63357D01*
X77889Y62875D01*
X78740Y62705D01*
X79591Y62875D01*
X80313Y63357D01*
X80795Y64078D01*
X80964Y64929D01*
X80795Y65780D01*
X80313Y66502D01*
X79642Y66950D01*
X79615Y67216D01*
X79642Y67483D01*
X80313Y67931D01*
X80795Y68653D01*
X80964Y69504D01*
X80795Y70355D01*
X80313Y71076D01*
X79591Y71558D01*
X78740Y71728D01*
D02*
G37*
%LPD*%
D13*
X161417Y180723D02*
Y182863D01*
X161153Y180459D02*
X161417Y180723D01*
X160928Y180233D02*
X161153Y180459D01*
X160928Y178012D02*
Y180233D01*
Y178012D02*
X161153Y177787D01*
Y158200D02*
Y177787D01*
X160928Y157975D02*
X161153Y158200D01*
X88582Y95246D02*
Y95472D01*
X88223Y94886D02*
X88582Y95246D01*
X85630Y92520D02*
Y99410D01*
X82677Y88583D02*
Y90551D01*
X79724Y93504D02*
X82677Y90551D01*
X88223Y94886D02*
X121783Y61326D01*
X79724Y93504D02*
Y133858D01*
X64961Y148622D02*
X79724Y133858D01*
X69882Y148622D02*
Y156496D01*
X93504Y125000D02*
X106299D01*
X69882Y148622D02*
X93504Y125000D01*
X103725Y127574D02*
X161700D01*
X90406Y151575D02*
X154527D01*
X160928Y157975D01*
X83788Y158193D02*
X90406Y151575D01*
X78059Y157995D02*
X78256Y158193D01*
X81567D01*
X73819Y157480D02*
X103725Y127574D01*
X81567Y158193D02*
X83788D01*
X110956Y169291D02*
X121783Y158465D01*
X77756Y169291D02*
X110956D01*
X64961Y156496D02*
X77756Y169291D01*
X64961Y148622D02*
Y156496D01*
X85630Y99410D02*
X89567Y103347D01*
X121783D01*
X106299Y125000D02*
X131890Y99410D01*
Y93996D02*
Y99410D01*
Y90551D02*
Y93996D01*
Y86614D02*
Y90551D01*
Y86614D02*
X145669Y72835D01*
X121783Y48228D02*
Y61326D01*
X145669Y72835D02*
X161417D01*
D81*
X158314Y216700D02*
Y224560D01*
X99284Y234427D02*
X148447D01*
X158314Y224560D01*
X179134Y126969D02*
Y182087D01*
X143701Y180118D02*
X151575Y187992D01*
X162402D02*
X168307Y182087D01*
X151575Y187992D02*
X162402D01*
X41339Y231299D02*
X44466Y234427D01*
X87724D01*
X99284D01*
X106747Y70330D02*
X107283Y70866D01*
X106131Y70330D02*
X106747D01*
X104502Y68700D02*
X106131Y70330D01*
X104502Y68085D02*
Y68700D01*
X84646Y48228D02*
X104502Y68085D01*
X107283Y70866D02*
Y71850D01*
X158307Y216693D02*
X158314Y216700D01*
X4921Y160433D02*
Y220472D01*
Y160433D02*
X24606Y140748D01*
X4921Y220472D02*
X15748Y231299D01*
X41339D01*
X156496Y16732D02*
X179134Y39370D01*
Y71850D01*
X41339Y25184D02*
Y37402D01*
X52165Y48228D01*
X67913D01*
X136811Y143701D02*
X150591D01*
X167323Y126969D01*
X179134D01*
Y71850D02*
Y126969D01*
X168307Y182087D02*
X179134D01*
X89567Y180118D02*
X143701D01*
X60039Y81693D02*
X67913Y73819D01*
Y48228D02*
Y73819D01*
X25591Y140748D02*
X30512D01*
X57087Y180118D02*
X89567D01*
X51181Y174213D02*
X57087Y180118D01*
X51181Y161417D02*
Y174213D01*
X30512Y140748D02*
X51181Y161417D01*
X67913Y48228D02*
X84646D01*
X60039Y81693D02*
Y102362D01*
X54134D02*
X60039D01*
X50197Y106299D02*
X54134Y102362D01*
X50197Y106299D02*
Y120079D01*
X45276Y125000D02*
X50197Y120079D01*
X41339Y125000D02*
X45276D01*
X25591Y140748D02*
X41339Y125000D01*
X24606Y140748D02*
X25591D01*
D88*
X158307Y216693D02*
D03*
X128307Y206693D02*
D03*
Y216693D02*
D03*
D96*
X59055Y39370D02*
D03*
D97*
X41339Y25184D02*
D03*
D98*
X48228Y136811D02*
D03*
X67913Y48228D02*
D03*
X82209Y67207D02*
D03*
X98425Y7874D02*
D03*
X90551D02*
D03*
X82677Y23622D02*
D03*
X86614Y15748D02*
D03*
X82677Y7874D02*
D03*
X74803Y23622D02*
D03*
X78740Y15748D02*
D03*
X74803Y7874D02*
D03*
X66929Y23622D02*
D03*
X70866Y15748D02*
D03*
X66929Y7874D02*
D03*
X59055Y70866D02*
D03*
X62992Y31496D02*
D03*
X59055Y23622D02*
D03*
X62992Y15748D02*
D03*
X59055Y7874D02*
D03*
X51181Y149606D02*
D03*
Y70866D02*
D03*
Y39370D02*
D03*
X55118Y31496D02*
D03*
X51181Y23622D02*
D03*
X55118Y15748D02*
D03*
X51181Y7874D02*
D03*
X47244Y110236D02*
D03*
Y31496D02*
D03*
Y15748D02*
D03*
X39370Y47244D02*
D03*
X31496D02*
D03*
X27559Y39370D02*
D03*
X31496Y31496D02*
D03*
X19685Y70866D02*
D03*
X11811D02*
D03*
X15748Y62992D02*
D03*
X11811Y55118D02*
D03*
X15748Y47244D02*
D03*
Y31496D02*
D03*
X7874Y78740D02*
D03*
Y62992D02*
D03*
X3937Y39370D02*
D03*
X7874Y31496D02*
D03*
X161417Y182863D02*
D03*
X163609Y179123D02*
D03*
X169477Y189162D02*
D03*
X37402Y7874D02*
D03*
X122047Y38386D02*
D03*
X121783Y48228D02*
D03*
X88582Y95472D02*
D03*
X82677Y88583D02*
D03*
X107283Y71850D02*
D03*
Y67549D02*
D03*
X78059Y157995D02*
D03*
X81128Y141167D02*
D03*
X69882Y156496D02*
D03*
X85630Y92520D02*
D03*
X60039Y102362D02*
D03*
X73819Y157480D02*
D03*
X96457Y166339D02*
D03*
X89567Y180118D02*
D03*
X156496Y16732D02*
D03*
X136811Y143701D02*
D03*
X161700Y127574D02*
D03*
X169384Y133951D02*
D03*
X121234Y148538D02*
D03*
X23622Y132874D02*
D03*
X27858Y133173D02*
D03*
X24606Y140748D02*
D03*
X190945Y213583D02*
D03*
X179134Y126969D02*
D03*
Y71850D02*
D03*
Y182087D02*
D03*
X104331Y197840D02*
D03*
X77756Y197835D02*
D03*
X41339Y231299D02*
D03*
X2953Y146653D02*
D03*
X161346Y68818D02*
D03*
X161417Y72835D02*
D03*
X29505Y36270D02*
D03*
X69882Y126969D02*
D03*
X59055Y148622D02*
D03*
X57087Y74803D02*
D03*
Y78740D02*
D03*
X121234Y93420D02*
D03*
X121783Y158465D02*
D03*
Y103347D02*
D03*
X161418Y124005D02*
D03*
X24606Y69882D02*
D03*
X16178Y81300D02*
D03*
X170276Y78740D02*
D03*
X183071Y16732D02*
D03*
X142717Y15748D02*
D03*
X142717Y7874D02*
D03*
X2953Y153543D02*
D03*
X193898Y22638D02*
D03*
X174024Y22827D02*
D03*
X142717Y24606D02*
D03*
X16579Y102370D02*
D03*
X24606Y50197D02*
D03*
X16701Y116149D02*
D03*
M02*
