G04*
G04 #@! TF.GenerationSoftware,Altium Limited,Altium Designer,20.2.6 (244)*
G04*
G04 Layer_Color=8388736*
%FSLAX25Y25*%
%MOIN*%
G70*
G04*
G04 #@! TF.SameCoordinates,023A6027-31B4-44E3-9114-37264AD4D944*
G04*
G04*
G04 #@! TF.FilePolarity,Positive*
G04*
G01*
G75*
%ADD16C,0.00787*%
D16*
X79921Y197441D02*
X83465D01*
Y204134D01*
X79921D02*
X83465D01*
X79921Y197441D02*
Y204134D01*
X88779Y197441D02*
X92323Y197441D01*
X92323Y204134D02*
X92323Y197441D01*
X88779Y204134D02*
X92323D01*
X88779Y197441D02*
Y204134D01*
X97638Y197441D02*
Y204134D01*
X101181Y204134D01*
Y197441D02*
Y204134D01*
X97638Y197441D02*
X101181Y197441D01*
X119450Y22933D02*
Y26280D01*
Y22933D02*
X125553D01*
Y26280D01*
X119450D02*
X125553D01*
X66535Y121457D02*
Y127756D01*
X63386Y121457D02*
X66535D01*
X63386D02*
Y127756D01*
X66535D01*
X132480Y6102D02*
X139173D01*
X132480D02*
Y9646D01*
X139173D01*
Y6102D02*
Y9646D01*
X132480Y13976D02*
X139173D01*
X132480D02*
Y17520D01*
X139173D01*
Y13976D02*
Y17520D01*
X132480Y22835D02*
X139173D01*
X132480D02*
Y26378D01*
X139173D01*
Y22835D02*
Y26378D01*
X66051Y74213D02*
X72350D01*
X66051D02*
Y77362D01*
X72350D01*
Y74213D02*
Y77362D01*
X34933Y34843D02*
X41232D01*
X34933D02*
Y37992D01*
X41232D01*
Y34843D02*
Y37992D01*
M02*
