G04*
G04 #@! TF.GenerationSoftware,Altium Limited,Altium Designer,20.2.6 (244)*
G04*
G04 Layer_Physical_Order=1*
G04 Layer_Color=255*
%FSLAX25Y25*%
%MOIN*%
G70*
G04*
G04 #@! TF.SameCoordinates,023A6027-31B4-44E3-9114-37264AD4D944*
G04*
G04*
G04 #@! TF.FilePolarity,Positive*
G04*
G01*
G75*
%ADD13C,0.01000*%
%ADD15C,0.00600*%
%ADD20R,0.04488X0.03583*%
%ADD21O,0.04488X0.03583*%
%ADD22R,0.03150X0.03150*%
%ADD23R,0.04469X0.04182*%
%ADD24R,0.04134X0.02362*%
%ADD25R,0.03937X0.03150*%
%ADD26O,0.07874X0.05118*%
%ADD27R,0.07874X0.05118*%
%ADD28R,0.03937X0.03543*%
%ADD29R,0.04134X0.03543*%
%ADD30R,0.03591X0.03772*%
%ADD31R,0.03150X0.03150*%
%ADD32R,0.03150X0.03937*%
%ADD33R,0.03543X0.03937*%
%ADD34R,0.04724X0.05512*%
%ADD35R,0.07087X0.05118*%
%ADD36R,0.04560X0.03985*%
%ADD37R,0.07008X0.05591*%
%ADD38R,0.04921X0.02756*%
%ADD39R,0.04528X0.02756*%
%ADD40R,0.03937X0.03937*%
%ADD41R,0.03937X0.02362*%
%ADD42R,0.05118X0.13386*%
%ADD43R,0.09843X0.08661*%
%ADD44R,0.03937X0.03937*%
%ADD80C,0.03937*%
%ADD81C,0.01200*%
%ADD82C,0.01968*%
%ADD83C,0.07874*%
%ADD84O,0.09000X0.07000*%
%ADD85R,0.09000X0.07000*%
%ADD86C,0.12008*%
%ADD87C,0.17717*%
%ADD88C,0.07000*%
%ADD89R,0.07000X0.07000*%
%ADD90C,0.19685*%
%ADD91R,0.09000X0.07500*%
%ADD92O,0.09000X0.07500*%
%ADD93C,0.08000*%
%ADD94C,0.11811*%
%ADD95O,0.07000X0.09000*%
%ADD96R,0.07000X0.09000*%
%ADD97C,0.04724*%
%ADD98C,0.02362*%
%ADD99C,0.07874*%
G36*
X217643Y234191D02*
X216133Y233828D01*
X214097Y232985D01*
X212218Y231834D01*
X210542Y230403D01*
X209111Y228727D01*
X207960Y226848D01*
X207117Y224812D01*
X206602Y222669D01*
X206429Y220472D01*
X206602Y218276D01*
X207117Y216133D01*
X207960Y214097D01*
X209111Y212218D01*
X210542Y210542D01*
X212218Y209111D01*
X214097Y207960D01*
X216133Y207117D01*
X218276Y206602D01*
X220472Y206429D01*
X222669Y206602D01*
X224812Y207117D01*
X226848Y207960D01*
X228727Y209111D01*
X230403Y210542D01*
X231834Y212218D01*
X232985Y214097D01*
X233828Y216133D01*
X234191Y217643D01*
X234691Y217584D01*
Y198110D01*
X234191Y197940D01*
X233836Y198403D01*
X232805Y199194D01*
X231604Y199692D01*
X230815Y199796D01*
Y194882D01*
Y189968D01*
X231604Y190072D01*
X232805Y190569D01*
X233836Y191361D01*
X234191Y191823D01*
X234691Y191654D01*
Y142992D01*
X234191Y142822D01*
X233836Y143285D01*
X232805Y144076D01*
X231604Y144574D01*
X230815Y144678D01*
Y139764D01*
Y134850D01*
X231604Y134954D01*
X232805Y135451D01*
X233836Y136243D01*
X234191Y136705D01*
X234691Y136536D01*
Y87524D01*
X234191Y87354D01*
X233568Y88167D01*
X232536Y88958D01*
X231335Y89456D01*
X230546Y89560D01*
Y84646D01*
Y79732D01*
X231335Y79836D01*
X232536Y80333D01*
X233568Y81125D01*
X234191Y81937D01*
X234691Y81767D01*
Y18636D01*
X234191Y18577D01*
X233828Y20088D01*
X232985Y22124D01*
X231834Y24002D01*
X230403Y25678D01*
X228727Y27109D01*
X226848Y28261D01*
X224812Y29104D01*
X222669Y29618D01*
X220472Y29791D01*
X218276Y29618D01*
X216133Y29104D01*
X214097Y28261D01*
X212218Y27109D01*
X210542Y25678D01*
X209111Y24002D01*
X207960Y22124D01*
X207117Y20088D01*
X206602Y17945D01*
X206429Y15748D01*
X206602Y13551D01*
X207117Y11408D01*
X207960Y9373D01*
X209111Y7494D01*
X210542Y5818D01*
X212218Y4387D01*
X214097Y3235D01*
X216133Y2392D01*
X217643Y2029D01*
X217584Y1529D01*
X205940D01*
X205528Y1740D01*
X205528Y2029D01*
Y8858D01*
X195653D01*
Y6829D01*
X192016D01*
X191796Y6976D01*
X190945Y7145D01*
X190094Y6976D01*
X189372Y6494D01*
X188890Y5772D01*
X188721Y4921D01*
X188890Y4070D01*
X189372Y3349D01*
X190094Y2867D01*
X190945Y2697D01*
X191796Y2867D01*
X192517Y3349D01*
X192799Y3770D01*
X195653D01*
X195653Y1740D01*
X195241Y1529D01*
X170403D01*
X170304Y2029D01*
X170693Y2190D01*
X171436Y2761D01*
X172006Y3504D01*
X172115Y3767D01*
X172150Y3770D01*
X174327D01*
X174609Y3349D01*
X175330Y2867D01*
X176181Y2697D01*
X177032Y2867D01*
X177754Y3349D01*
X178236Y4070D01*
X178405Y4921D01*
X178236Y5772D01*
X177754Y6494D01*
X177032Y6976D01*
X176181Y7145D01*
X175330Y6976D01*
X175110Y6829D01*
X172150D01*
X172115Y6831D01*
X172006Y7094D01*
X171436Y7838D01*
X170693Y8408D01*
X169827Y8767D01*
X168898Y8889D01*
X166142D01*
X165213Y8767D01*
X164347Y8408D01*
X163603Y7838D01*
X163033Y7094D01*
X162674Y6228D01*
X162650Y6041D01*
X159465D01*
Y7283D01*
X153528D01*
Y2029D01*
X153528Y1740D01*
X153115Y1529D01*
X140748D01*
Y5299D01*
X141354D01*
Y5631D01*
X141795Y5866D01*
X141866Y5819D01*
X142717Y5650D01*
X143568Y5819D01*
X144289Y6301D01*
X144771Y7023D01*
X144940Y7874D01*
X144771Y8725D01*
X144289Y9447D01*
X143568Y9929D01*
X142717Y10098D01*
X141866Y9929D01*
X141795Y9882D01*
X141354Y10117D01*
Y10449D01*
X140748D01*
Y13173D01*
X141354D01*
Y13505D01*
X141795Y13740D01*
X141866Y13693D01*
X142717Y13524D01*
X143568Y13693D01*
X144289Y14176D01*
X144771Y14897D01*
X144940Y15748D01*
X144771Y16599D01*
X144289Y17321D01*
X143568Y17803D01*
X142717Y17972D01*
X141866Y17803D01*
X141795Y17756D01*
X141354Y17991D01*
Y18323D01*
X140748D01*
Y22031D01*
X141354D01*
Y22363D01*
X141795Y22599D01*
X141866Y22552D01*
X142717Y22382D01*
X143568Y22552D01*
X144289Y23034D01*
X144771Y23755D01*
X144940Y24606D01*
X144771Y25457D01*
X144289Y26179D01*
X143568Y26661D01*
X142717Y26830D01*
X141965Y26681D01*
X141721Y26927D01*
X141635Y27086D01*
X141690Y27169D01*
X141768Y27559D01*
Y34413D01*
X160398D01*
X160788Y34491D01*
X160908Y34571D01*
X161028Y34491D01*
X161418Y34413D01*
X200788D01*
X201178Y34491D01*
X201509Y34712D01*
X201730Y35043D01*
X201807Y35433D01*
Y49689D01*
X202307Y49788D01*
X202770Y48671D01*
X203571Y47627D01*
X204616Y46825D01*
X205832Y46322D01*
X206637Y46216D01*
Y51193D01*
Y56170D01*
X205832Y56064D01*
X204616Y55560D01*
X203571Y54759D01*
X202770Y53715D01*
X202307Y52598D01*
X201807Y52697D01*
Y61488D01*
X202307Y61587D01*
X202770Y60471D01*
X203571Y59426D01*
X204616Y58625D01*
X205832Y58121D01*
X206637Y58015D01*
Y62992D01*
Y67969D01*
X205832Y67863D01*
X204616Y67360D01*
X203571Y66558D01*
X202770Y65514D01*
X202307Y64397D01*
X201807Y64496D01*
Y77745D01*
X201730Y78135D01*
X201509Y78466D01*
X201324Y78589D01*
X201334Y78666D01*
X201364Y78847D01*
X201361Y78863D01*
X201363Y78879D01*
X201316Y79056D01*
X201274Y79235D01*
X201048Y79735D01*
X200942Y79884D01*
X200840Y80036D01*
X200827Y80045D01*
X200817Y80058D01*
X200788Y80077D01*
Y89532D01*
X201178Y89609D01*
X201509Y89830D01*
X201730Y90161D01*
X201807Y90551D01*
Y104807D01*
X202307Y104906D01*
X202770Y103789D01*
X203571Y102745D01*
X204616Y101944D01*
X205832Y101440D01*
X206637Y101334D01*
Y106311D01*
Y111288D01*
X205832Y111182D01*
X204616Y110679D01*
X203571Y109877D01*
X202770Y108833D01*
X202307Y107716D01*
X201807Y107815D01*
Y116606D01*
X202307Y116705D01*
X202770Y115589D01*
X203571Y114544D01*
X204616Y113743D01*
X205832Y113239D01*
X206637Y113133D01*
Y118110D01*
Y123088D01*
X205832Y122982D01*
X204616Y122478D01*
X203571Y121676D01*
X202770Y120632D01*
X202307Y119515D01*
X201807Y119615D01*
Y132863D01*
X201730Y133253D01*
X201509Y133584D01*
X201324Y133707D01*
X201334Y133784D01*
X201364Y133965D01*
X201361Y133981D01*
X201363Y133997D01*
X201316Y134174D01*
X201274Y134353D01*
X201048Y134853D01*
X200942Y135002D01*
X200840Y135154D01*
X200827Y135163D01*
X200817Y135176D01*
X200788Y135195D01*
Y144650D01*
X201178Y144727D01*
X201509Y144948D01*
X201730Y145279D01*
X201807Y145669D01*
Y159925D01*
X202307Y160024D01*
X202770Y158908D01*
X203571Y157863D01*
X204616Y157062D01*
X205832Y156558D01*
X206637Y156452D01*
Y161429D01*
Y166406D01*
X205832Y166300D01*
X204616Y165797D01*
X203571Y164995D01*
X202770Y163951D01*
X202307Y162834D01*
X201807Y162934D01*
Y171724D01*
X202307Y171823D01*
X202770Y170707D01*
X203571Y169662D01*
X204616Y168861D01*
X205832Y168357D01*
X206637Y168251D01*
Y173228D01*
Y178206D01*
X205832Y178100D01*
X204616Y177596D01*
X203571Y176794D01*
X202770Y175750D01*
X202307Y174633D01*
X201807Y174733D01*
Y187981D01*
X201730Y188371D01*
X201509Y188702D01*
X201178Y188923D01*
X200788Y189001D01*
Y200787D01*
X200634D01*
X200383Y201263D01*
X200287Y201381D01*
X200202Y201508D01*
X200163Y201535D01*
X200133Y201572D01*
X199998Y201645D01*
X199871Y201729D01*
X199825Y201739D01*
X199783Y201761D01*
X199631Y201777D01*
X199481Y201807D01*
X172839D01*
X172647Y202269D01*
X174906Y204527D01*
X175197Y204469D01*
X176048Y204638D01*
X176769Y205120D01*
X177251Y205842D01*
X177421Y206693D01*
X177251Y207544D01*
X176769Y208265D01*
X176048Y208748D01*
X175197Y208917D01*
X174346Y208748D01*
X173624Y208265D01*
X173222Y207664D01*
X172709Y207733D01*
X172691Y207868D01*
X172300Y208812D01*
X174906Y211417D01*
X175197Y211359D01*
X176048Y211528D01*
X176769Y212010D01*
X177251Y212732D01*
X177421Y213583D01*
X177251Y214434D01*
X176769Y215155D01*
X176048Y215637D01*
X175197Y215807D01*
X174346Y215637D01*
X173624Y215155D01*
X173307Y214680D01*
X172807Y214832D01*
Y219223D01*
X173307Y219375D01*
X173624Y218900D01*
X174346Y218418D01*
X175197Y218249D01*
X176048Y218418D01*
X176769Y218900D01*
X177251Y219621D01*
X177421Y220472D01*
X177251Y221323D01*
X176769Y222045D01*
X176048Y222527D01*
X175197Y222696D01*
X174906Y222638D01*
X174166Y223378D01*
X173736Y223665D01*
X173228Y223766D01*
X164370D01*
X163863Y223665D01*
X163433Y223378D01*
X162449Y222394D01*
X162161Y221964D01*
X162060Y221457D01*
Y219971D01*
X161587Y219811D01*
X161516Y219902D01*
X160576Y220624D01*
X159482Y221077D01*
X158307Y221232D01*
X157132Y221077D01*
X156038Y220624D01*
X155098Y219902D01*
X154376Y218962D01*
X153923Y217868D01*
X153768Y216693D01*
X153923Y215518D01*
X154376Y214423D01*
X155098Y213484D01*
X156038Y212762D01*
X157132Y212309D01*
X158307Y212154D01*
X159482Y212309D01*
X160576Y212762D01*
X161516Y213484D01*
X161587Y213575D01*
X162060Y213414D01*
Y212321D01*
X160426Y210686D01*
X159482Y211077D01*
X158307Y211232D01*
X157132Y211077D01*
X156038Y210624D01*
X155098Y209902D01*
X154376Y208962D01*
X153923Y207868D01*
X153768Y206693D01*
X153923Y205518D01*
X154376Y204423D01*
X155098Y203484D01*
X156038Y202762D01*
X156398Y202613D01*
X156299Y202113D01*
X150315D01*
X150216Y202613D01*
X150576Y202762D01*
X151516Y203484D01*
X152238Y204423D01*
X152691Y205518D01*
X152846Y206693D01*
X152691Y207868D01*
X152238Y208962D01*
X151516Y209902D01*
X150576Y210624D01*
X149482Y211077D01*
X148307Y211232D01*
X147132Y211077D01*
X146038Y210624D01*
X145098Y209902D01*
X144376Y208962D01*
X143923Y207868D01*
X143768Y206693D01*
X143923Y205518D01*
X144376Y204423D01*
X145098Y203484D01*
X146038Y202762D01*
X146398Y202613D01*
X146299Y202113D01*
X144762D01*
X142300Y204574D01*
X142691Y205518D01*
X142846Y206693D01*
X142691Y207868D01*
X142238Y208962D01*
X141516Y209902D01*
X140577Y210624D01*
X139482Y211077D01*
X138307Y211232D01*
X137132Y211077D01*
X136038Y210624D01*
X135098Y209902D01*
X134376Y208962D01*
X133923Y207868D01*
X133768Y206693D01*
X133923Y205518D01*
X134376Y204423D01*
X135098Y203484D01*
X136038Y202762D01*
X137132Y202309D01*
X137146Y202307D01*
X137113Y201807D01*
X129501D01*
X129469Y202307D01*
X129482Y202309D01*
X130577Y202762D01*
X131517Y203484D01*
X132238Y204423D01*
X132691Y205518D01*
X132846Y206693D01*
X132691Y207868D01*
X132238Y208962D01*
X131517Y209902D01*
X130577Y210624D01*
X129482Y211077D01*
X128307Y211232D01*
X127132Y211077D01*
X126038Y210624D01*
X125098Y209902D01*
X124376Y208962D01*
X123923Y207868D01*
X123768Y206693D01*
X123923Y205518D01*
X124376Y204423D01*
X125098Y203484D01*
X126038Y202762D01*
X127132Y202309D01*
X127146Y202307D01*
X127113Y201807D01*
X106195D01*
X105996Y202307D01*
X106385Y202889D01*
X106554Y203740D01*
X106385Y204591D01*
X105903Y205313D01*
X105182Y205795D01*
X104331Y205964D01*
X103480Y205795D01*
X102758Y205313D01*
X102736Y205279D01*
X102707Y205272D01*
X102688Y205270D01*
X101984D01*
Y206315D01*
X96835D01*
Y202101D01*
X96335Y201950D01*
X96061Y202360D01*
X96027Y202382D01*
X96020Y202411D01*
X96018Y202430D01*
Y202756D01*
X95901Y203341D01*
X95570Y203837D01*
X94585Y204822D01*
X94089Y205153D01*
X93504Y205270D01*
X93126D01*
Y205957D01*
X93490Y206412D01*
X93576Y206435D01*
X95701Y206602D01*
X97844Y207117D01*
X99879Y207960D01*
X101758Y209111D01*
X103434Y210542D01*
X104865Y212218D01*
X106017Y214097D01*
X106860Y216133D01*
X107374Y218276D01*
X107547Y220472D01*
X107374Y222669D01*
X106860Y224812D01*
X106017Y226848D01*
X104865Y228727D01*
X103434Y230403D01*
X101758Y231834D01*
X99879Y232985D01*
X97844Y233828D01*
X96333Y234191D01*
X96392Y234691D01*
X217584D01*
X217643Y234191D01*
D02*
G37*
G36*
X90675D02*
X89164Y233828D01*
X87128Y232985D01*
X85250Y231834D01*
X83574Y230403D01*
X82143Y228727D01*
X80991Y226848D01*
X80148Y224812D01*
X79634Y222669D01*
X79461Y220472D01*
X79634Y218276D01*
X80148Y216133D01*
X80991Y214097D01*
X82143Y212218D01*
X83574Y210542D01*
X85250Y209111D01*
X87128Y207960D01*
X89164Y207117D01*
X90420Y206815D01*
X90361Y206315D01*
X87976D01*
Y203020D01*
X87893Y202988D01*
X87476Y202937D01*
X87204Y203345D01*
X85727Y204822D01*
X85231Y205153D01*
X84646Y205270D01*
X84268D01*
Y206315D01*
X79118D01*
Y201165D01*
X78824Y200787D01*
X77756D01*
Y200059D01*
X76905Y199889D01*
X76183Y199407D01*
X75701Y198686D01*
X75532Y197835D01*
X75701Y196984D01*
X76183Y196262D01*
X76779Y195864D01*
X76756Y195810D01*
Y195709D01*
X76736Y195611D01*
Y180153D01*
X65835D01*
X65712Y180129D01*
X65587Y180123D01*
X65519Y180091D01*
X65445Y180076D01*
X65341Y180006D01*
X65228Y179953D01*
X65177Y179897D01*
X65114Y179855D01*
X65045Y179751D01*
X64961Y179658D01*
X64935Y179587D01*
X64893Y179524D01*
X64869Y179401D01*
X64827Y179283D01*
X64804Y179134D01*
X63243D01*
X62598Y179197D01*
X61954Y179134D01*
X60392D01*
X60370Y179283D01*
X60328Y179401D01*
X60304Y179524D01*
X60262Y179587D01*
X60236Y179658D01*
X60152Y179751D01*
X60083Y179855D01*
X60020Y179897D01*
X59969Y179953D01*
X59856Y180006D01*
X59752Y180076D01*
X59678Y180091D01*
X59610Y180123D01*
X59484Y180129D01*
X59362Y180153D01*
X43394D01*
X43271Y180129D01*
X43146Y180123D01*
X43078Y180091D01*
X43004Y180076D01*
X42900Y180006D01*
X42787Y179953D01*
X42736Y179897D01*
X42673Y179855D01*
X42604Y179751D01*
X42520Y179658D01*
X42494Y179587D01*
X42452Y179524D01*
X42428Y179401D01*
X42386Y179283D01*
X42364Y179134D01*
X40802D01*
X40157Y179197D01*
X39513Y179134D01*
X37951D01*
X37929Y179283D01*
X37887Y179401D01*
X37863Y179524D01*
X37821Y179587D01*
X37795Y179658D01*
X37711Y179751D01*
X37642Y179855D01*
X37579Y179897D01*
X37528Y179953D01*
X37415Y180006D01*
X37311Y180076D01*
X37237Y180091D01*
X37168Y180123D01*
X37043Y180129D01*
X36921Y180153D01*
X28543D01*
X28153Y180076D01*
X27822Y179855D01*
X27601Y179524D01*
X27524Y179134D01*
X18361D01*
X17717Y179197D01*
X17072Y179134D01*
X15511D01*
X15488Y179283D01*
X15446Y179401D01*
X15422Y179524D01*
X15380Y179587D01*
X15354Y179658D01*
X15270Y179751D01*
X15201Y179855D01*
X15138Y179897D01*
X15087Y179953D01*
X14974Y180006D01*
X14870Y180076D01*
X14796Y180091D01*
X14728Y180123D01*
X14603Y180129D01*
X14480Y180153D01*
X1529D01*
Y234691D01*
X90616D01*
X90675Y234191D01*
D02*
G37*
G36*
X103487Y202913D02*
X103420Y202976D01*
X103347Y203031D01*
X103269Y203080D01*
X103184Y203122D01*
X103093Y203158D01*
X102997Y203188D01*
X102894Y203211D01*
X102786Y203227D01*
X102672Y203237D01*
X102552Y203240D01*
Y204240D01*
X102672Y204243D01*
X102786Y204253D01*
X102894Y204270D01*
X102997Y204292D01*
X103093Y204322D01*
X103184Y204358D01*
X103269Y204400D01*
X103347Y204449D01*
X103420Y204505D01*
X103487Y204567D01*
Y202913D01*
D02*
G37*
G36*
X100982Y204645D02*
X101012Y204560D01*
X101062Y204485D01*
X101132Y204420D01*
X101222Y204365D01*
X101332Y204320D01*
X101462Y204285D01*
X101612Y204260D01*
X101782Y204245D01*
X101972Y204240D01*
Y203240D01*
X101782Y203235D01*
X101612Y203220D01*
X101462Y203195D01*
X101332Y203160D01*
X101222Y203115D01*
X101132Y203060D01*
X101062Y202995D01*
X101012Y202920D01*
X100982Y202835D01*
X100972Y202740D01*
Y204740D01*
X100982Y204645D01*
D02*
G37*
G36*
X92124D02*
X92154Y204560D01*
X92204Y204485D01*
X92274Y204420D01*
X92364Y204365D01*
X92474Y204320D01*
X92604Y204285D01*
X92754Y204260D01*
X92924Y204245D01*
X93114Y204240D01*
Y203240D01*
X92924Y203235D01*
X92754Y203220D01*
X92604Y203195D01*
X92474Y203160D01*
X92364Y203115D01*
X92274Y203060D01*
X92204Y202995D01*
X92154Y202920D01*
X92124Y202835D01*
X92114Y202740D01*
Y204740D01*
X92124Y204645D01*
D02*
G37*
G36*
X83266D02*
X83296Y204560D01*
X83346Y204485D01*
X83416Y204420D01*
X83506Y204365D01*
X83616Y204320D01*
X83746Y204285D01*
X83896Y204260D01*
X84066Y204245D01*
X84256Y204240D01*
Y203240D01*
X84066Y203235D01*
X83896Y203220D01*
X83746Y203195D01*
X83616Y203160D01*
X83506Y203115D01*
X83416Y203060D01*
X83346Y202995D01*
X83296Y202920D01*
X83266Y202835D01*
X83256Y202740D01*
Y204740D01*
X83266Y204645D01*
D02*
G37*
G36*
X94991Y202446D02*
X95001Y202332D01*
X95018Y202224D01*
X95041Y202121D01*
X95070Y202025D01*
X95106Y201934D01*
X95148Y201850D01*
X95197Y201771D01*
X95253Y201698D01*
X95315Y201631D01*
X93661D01*
X93723Y201698D01*
X93779Y201771D01*
X93828Y201850D01*
X93871Y201934D01*
X93906Y202025D01*
X93936Y202121D01*
X93959Y202224D01*
X93975Y202332D01*
X93985Y202446D01*
X93988Y202566D01*
X94988D01*
X94991Y202446D01*
D02*
G37*
G36*
X199745Y200287D02*
X199694Y200213D01*
X195315D01*
Y194882D01*
Y189551D01*
X199627D01*
X199655Y189501D01*
X199356Y189001D01*
X187993D01*
X187602Y188923D01*
X187271Y188702D01*
X181634Y183065D01*
X181033Y183170D01*
X180706Y183659D01*
X179985Y184141D01*
X179134Y184310D01*
X179086Y184301D01*
X178982Y184370D01*
X178358Y184494D01*
X177181D01*
Y185694D01*
X177181Y185831D01*
Y186194D01*
X177181Y186331D01*
Y192131D01*
X171245D01*
Y191206D01*
X170745Y190939D01*
X170328Y191217D01*
X169477Y191386D01*
X168626Y191217D01*
X167905Y190735D01*
X167423Y190013D01*
X167253Y189162D01*
X167423Y188311D01*
X167905Y187590D01*
X168626Y187108D01*
X169477Y186938D01*
X170328Y187108D01*
X170745Y187386D01*
X171245Y187118D01*
Y186331D01*
X171245Y186194D01*
Y185831D01*
X171245Y185694D01*
Y184494D01*
X170193D01*
Y185044D01*
X164059D01*
Y183323D01*
X163559Y183274D01*
X163472Y183714D01*
X162990Y184436D01*
X162268Y184918D01*
X161417Y185087D01*
X160566Y184918D01*
X160063Y184582D01*
X159563Y184846D01*
Y185044D01*
X153429D01*
Y180682D01*
Y176942D01*
Y175883D01*
X156496D01*
X159563D01*
Y177593D01*
X160398D01*
Y146689D01*
X143332D01*
X143134Y147189D01*
X143523Y147771D01*
X143692Y148622D01*
X143523Y149473D01*
X143041Y150195D01*
X142319Y150677D01*
X141732Y150793D01*
Y169083D01*
X133281D01*
X133075Y169583D01*
X135689Y172198D01*
X136705D01*
Y174576D01*
X137205D01*
Y175076D01*
X140666D01*
Y176953D01*
X140666D01*
Y177198D01*
X140666D01*
Y179076D01*
X137205D01*
Y180076D01*
X140666D01*
Y181954D01*
X140666D01*
Y182198D01*
X140666D01*
Y184076D01*
X137205D01*
Y185076D01*
X140666D01*
Y186953D01*
X140666D01*
Y187198D01*
X140666D01*
Y187784D01*
X141732D01*
Y192658D01*
X142583Y192827D01*
X143305Y193309D01*
X143787Y194031D01*
X143956Y194882D01*
X143787Y195733D01*
X143305Y196454D01*
X142583Y196936D01*
X141732Y197106D01*
Y200787D01*
X142338D01*
X143275Y199850D01*
X143705Y199563D01*
X144213Y199462D01*
X169291D01*
X169799Y199563D01*
X170229Y199850D01*
X171166Y200787D01*
X199481D01*
X199745Y200287D01*
D02*
G37*
G36*
X86625Y199985D02*
X86635Y199871D01*
X86651Y199763D01*
X86674Y199661D01*
X86704Y199564D01*
X86740Y199474D01*
X86782Y199389D01*
X86831Y199310D01*
X86887Y199237D01*
X86949Y199170D01*
X85295D01*
X85357Y199237D01*
X85413Y199310D01*
X85462Y199389D01*
X85504Y199474D01*
X85540Y199564D01*
X85570Y199661D01*
X85593Y199763D01*
X85609Y199871D01*
X85619Y199985D01*
X85622Y200106D01*
X86622D01*
X86625Y199985D01*
D02*
G37*
G36*
X80142Y196835D02*
X80132Y196930D01*
X80102Y197015D01*
X80051Y197090D01*
X79980Y197155D01*
X79889Y197210D01*
X79778Y197255D01*
X79646Y197290D01*
X79494Y197315D01*
X79358Y197327D01*
X79300Y197322D01*
X79192Y197305D01*
X79090Y197282D01*
X78993Y197253D01*
X78903Y197217D01*
X78818Y197175D01*
X78739Y197125D01*
X78666Y197070D01*
X78599Y197008D01*
X78599Y198661D01*
X78666Y198599D01*
X78739Y198544D01*
X78818Y198495D01*
X78903Y198452D01*
X78993Y198416D01*
X79090Y198387D01*
X79192Y198364D01*
X79300Y198348D01*
X79358Y198343D01*
X79494Y198355D01*
X79646Y198380D01*
X79778Y198415D01*
X79889Y198460D01*
X79980Y198515D01*
X80051Y198580D01*
X80102Y198655D01*
X80132Y198740D01*
X80142Y198835D01*
Y196835D01*
D02*
G37*
G36*
X103491Y197010D02*
X103424Y197071D01*
X103351Y197127D01*
X103272Y197175D01*
X103187Y197218D01*
X103096Y197253D01*
X103000Y197283D01*
X102897Y197305D01*
X102789Y197322D01*
X102675Y197331D01*
X102555Y197335D01*
X102549Y198335D01*
X102669Y198338D01*
X102784Y198348D01*
X102892Y198364D01*
X102994Y198387D01*
X103090Y198417D01*
X103181Y198453D01*
X103265Y198496D01*
X103344Y198545D01*
X103416Y198601D01*
X103483Y198663D01*
X103491Y197010D01*
D02*
G37*
G36*
X100982Y198740D02*
X101012Y198655D01*
X101062Y198580D01*
X101132Y198515D01*
X101222Y198460D01*
X101332Y198415D01*
X101462Y198380D01*
X101612Y198355D01*
X101782Y198340D01*
X101972Y198335D01*
Y197335D01*
X101782Y197330D01*
X101612Y197315D01*
X101462Y197290D01*
X101332Y197255D01*
X101222Y197210D01*
X101132Y197155D01*
X101062Y197090D01*
X101012Y197015D01*
X100982Y196930D01*
X100972Y196835D01*
Y198835D01*
X100982Y198740D01*
D02*
G37*
G36*
X97859Y196835D02*
X97848Y196930D01*
X97818Y197015D01*
X97768Y197090D01*
X97697Y197155D01*
X97606Y197210D01*
X97494Y197255D01*
X97363Y197290D01*
X97211Y197315D01*
X97039Y197330D01*
X96847Y197335D01*
Y198335D01*
X97039Y198340D01*
X97211Y198355D01*
X97363Y198380D01*
X97494Y198415D01*
X97606Y198460D01*
X97697Y198515D01*
X97768Y198580D01*
X97818Y198655D01*
X97848Y198740D01*
X97859Y198835D01*
Y196835D01*
D02*
G37*
G36*
X92124Y198740D02*
X92154Y198655D01*
X92204Y198580D01*
X92274Y198515D01*
X92364Y198460D01*
X92474Y198415D01*
X92604Y198380D01*
X92754Y198355D01*
X92924Y198340D01*
X93114Y198335D01*
Y197335D01*
X92924Y197330D01*
X92754Y197315D01*
X92604Y197290D01*
X92474Y197255D01*
X92364Y197210D01*
X92274Y197155D01*
X92204Y197090D01*
X92154Y197015D01*
X92124Y196930D01*
X92114Y196835D01*
Y198835D01*
X92124Y198740D01*
D02*
G37*
G36*
X140713Y197106D02*
X140732Y197007D01*
Y196907D01*
X140748Y196869D01*
Y196847D01*
X140160Y196454D01*
X140131Y196411D01*
X138779D01*
X138194Y196295D01*
X137698Y195963D01*
X135730Y193995D01*
X135398Y193499D01*
X135282Y192913D01*
Y191954D01*
X133745D01*
Y187198D01*
X133744D01*
Y186953D01*
X133745D01*
Y182198D01*
X133744D01*
Y181954D01*
X133745D01*
Y177198D01*
X133744D01*
Y176953D01*
X133745D01*
Y175976D01*
X132289Y174520D01*
X131827Y174712D01*
Y190343D01*
X131749Y190734D01*
X131528Y191064D01*
X131198Y191285D01*
X130807Y191363D01*
X119615D01*
X119545Y191718D01*
X119324Y192049D01*
X118993Y192270D01*
X118603Y192347D01*
X111615D01*
X111438Y192312D01*
X111224Y192270D01*
X111224Y192270D01*
X110894Y192049D01*
X110894Y192049D01*
X110673Y191718D01*
X110673Y191718D01*
X110630Y191504D01*
X110595Y191328D01*
X110595Y189300D01*
X110595Y189300D01*
X110595Y189300D01*
X110595Y186780D01*
Y182056D01*
Y172824D01*
X110673Y172433D01*
X110894Y172103D01*
X111224Y171882D01*
X111615Y171804D01*
X118603D01*
X118993Y171882D01*
X119324Y172103D01*
X119545Y172433D01*
X119615Y172788D01*
X129904D01*
X130095Y172326D01*
X129475Y171706D01*
X129036Y171050D01*
X128882Y170276D01*
Y157334D01*
X127025Y155477D01*
X117559D01*
X117349Y155638D01*
Y156269D01*
X117601Y156463D01*
X117956Y156924D01*
X120189D01*
X120211Y156892D01*
X120932Y156410D01*
X121783Y156241D01*
X122634Y156410D01*
X123355Y156892D01*
X123838Y157614D01*
X124007Y158465D01*
X123838Y159316D01*
X123355Y160037D01*
X122634Y160519D01*
X121783Y160688D01*
X120932Y160519D01*
X120211Y160037D01*
X120174Y159983D01*
X118287D01*
X118175Y160162D01*
X118402Y160662D01*
X118402D01*
Y162953D01*
X111914D01*
Y160662D01*
X112251D01*
X112498Y160162D01*
X112267Y159861D01*
X111986Y159182D01*
X111890Y158454D01*
X111986Y157725D01*
X112267Y157046D01*
X112714Y156463D01*
X112967Y156269D01*
Y155638D01*
X112714Y155444D01*
X112267Y154861D01*
X111986Y154182D01*
X111890Y153454D01*
X111986Y152725D01*
X112267Y152046D01*
X112714Y151463D01*
X112967Y151269D01*
Y150638D01*
X112714Y150444D01*
X112360Y149983D01*
X110843D01*
Y155123D01*
X101756D01*
Y154013D01*
X101294Y153822D01*
X99911Y155204D01*
X99425Y155529D01*
Y156954D01*
X99425Y157091D01*
Y157454D01*
X99425Y157591D01*
Y159922D01*
X93488D01*
Y157591D01*
X93488Y157454D01*
Y157091D01*
X93488Y156954D01*
Y151154D01*
X99425D01*
X99425Y151154D01*
Y151154D01*
X99841Y150949D01*
X100296Y150493D01*
X100793Y150162D01*
X101378Y150045D01*
X101756D01*
Y148005D01*
X107695D01*
X108328Y147372D01*
X108824Y147041D01*
X109409Y146924D01*
X112360D01*
X112714Y146463D01*
X113297Y146015D01*
X113976Y145734D01*
X114705Y145638D01*
X115611D01*
X116339Y145734D01*
X117018Y146015D01*
X117601Y146463D01*
X117956Y146924D01*
X119723D01*
X120383Y146483D01*
X121234Y146314D01*
X122085Y146483D01*
X122807Y146965D01*
X123289Y147687D01*
X123458Y148538D01*
X123289Y149389D01*
X122807Y150110D01*
X122085Y150592D01*
X121234Y150762D01*
X120383Y150592D01*
X119662Y150110D01*
X119577Y149983D01*
X117956D01*
X117601Y150444D01*
X117449Y150561D01*
X117429Y151095D01*
X117781Y151430D01*
X127863D01*
X128637Y151584D01*
X129294Y152023D01*
X132336Y155066D01*
X132775Y155722D01*
X132929Y156496D01*
Y158095D01*
X133429Y158128D01*
X133482Y157725D01*
X133763Y157046D01*
X134210Y156463D01*
X134463Y156269D01*
Y155638D01*
X134210Y155444D01*
X133763Y154861D01*
X133482Y154182D01*
X133386Y153454D01*
X133482Y152725D01*
X133763Y152046D01*
X134210Y151463D01*
X134463Y151269D01*
Y150638D01*
X134210Y150444D01*
X133763Y149861D01*
X133482Y149182D01*
X133386Y148453D01*
X133482Y147725D01*
X133763Y147046D01*
X134210Y146463D01*
X134793Y146015D01*
X135198Y145848D01*
X135254Y145283D01*
X135239Y145273D01*
X134757Y144552D01*
X134587Y143701D01*
X134757Y142850D01*
X135239Y142128D01*
X135960Y141646D01*
X136811Y141477D01*
X137662Y141646D01*
X138383Y142128D01*
X138866Y142850D01*
X139035Y143701D01*
X138866Y144552D01*
X138383Y145273D01*
X138248Y145364D01*
X138304Y145928D01*
X138514Y146015D01*
X139097Y146463D01*
X139434Y146901D01*
X139765Y147008D01*
X140026Y146962D01*
X140617Y146567D01*
X140748Y146542D01*
Y145847D01*
X140713Y145669D01*
Y141671D01*
X140731Y141577D01*
X140617Y141554D01*
X140226Y141293D01*
X138779D01*
X138194Y141177D01*
X137698Y140845D01*
X135730Y138877D01*
X135398Y138381D01*
X135282Y137795D01*
Y136835D01*
X133745D01*
Y134042D01*
X133391Y133686D01*
X133391Y133686D01*
X131890D01*
X131827Y133737D01*
Y135225D01*
X131749Y135615D01*
X131528Y135946D01*
X131198Y136167D01*
X130807Y136245D01*
X119615D01*
X119545Y136600D01*
X119324Y136930D01*
X118993Y137151D01*
X118603Y137229D01*
X111615D01*
X111438Y137194D01*
X111224Y137151D01*
X111224Y137151D01*
X110894Y136930D01*
X110894Y136930D01*
X110673Y136600D01*
X110673Y136600D01*
X110630Y136386D01*
X110595Y136209D01*
X110595Y134182D01*
X110595Y134182D01*
X110595Y134182D01*
X110595Y131662D01*
Y126938D01*
Y117706D01*
X110673Y117315D01*
X110894Y116984D01*
X111224Y116763D01*
X111615Y116686D01*
X118603D01*
X118993Y116763D01*
X119324Y116984D01*
X119545Y117315D01*
X119615Y117670D01*
X130807D01*
X130845Y117677D01*
X130870Y117657D01*
X130948Y117266D01*
X131169Y116936D01*
X131200Y116314D01*
X130459Y115573D01*
X130021Y114916D01*
X129867Y114142D01*
Y103200D01*
X127025Y100359D01*
X117559D01*
X117349Y100520D01*
Y101151D01*
X117601Y101345D01*
X117956Y101806D01*
X120189D01*
X120211Y101774D01*
X120932Y101292D01*
X121783Y101123D01*
X122634Y101292D01*
X123355Y101774D01*
X123838Y102495D01*
X124007Y103347D01*
X123838Y104198D01*
X123355Y104919D01*
X122634Y105401D01*
X121783Y105570D01*
X120932Y105401D01*
X120211Y104919D01*
X120174Y104865D01*
X118287D01*
X118175Y105044D01*
X118402Y105544D01*
X118402D01*
Y107835D01*
X111914D01*
Y105544D01*
X112251D01*
X112498Y105044D01*
X112267Y104743D01*
X111986Y104064D01*
X111890Y103335D01*
X111986Y102607D01*
X112267Y101928D01*
X112714Y101345D01*
X112967Y101151D01*
Y100520D01*
X112714Y100326D01*
X112267Y99743D01*
X111986Y99064D01*
X111890Y98335D01*
X111986Y97607D01*
X112267Y96928D01*
X112714Y96345D01*
X112967Y96150D01*
Y95520D01*
X112714Y95326D01*
X112360Y94865D01*
X110843D01*
Y100005D01*
X101756D01*
Y98895D01*
X101294Y98703D01*
X99911Y100086D01*
X99425Y100411D01*
Y101836D01*
X99425Y101973D01*
Y102336D01*
X99425Y102473D01*
Y104804D01*
X93488D01*
Y102473D01*
X93488Y102336D01*
Y101973D01*
X93488Y101836D01*
Y96036D01*
X99425D01*
X99425Y96036D01*
Y96036D01*
X99841Y95831D01*
X100296Y95375D01*
X100793Y95044D01*
X101378Y94927D01*
X101756D01*
Y92887D01*
X107695D01*
X108328Y92254D01*
X108824Y91922D01*
X109409Y91806D01*
X112360D01*
X112714Y91345D01*
X113297Y90897D01*
X113976Y90616D01*
X114705Y90520D01*
X115611D01*
X116339Y90616D01*
X117018Y90897D01*
X117601Y91345D01*
X117956Y91806D01*
X119723D01*
X120383Y91365D01*
X121234Y91196D01*
X122085Y91365D01*
X122807Y91847D01*
X123289Y92569D01*
X123458Y93420D01*
X123289Y94271D01*
X122807Y94992D01*
X122085Y95474D01*
X121234Y95644D01*
X120383Y95474D01*
X119662Y94992D01*
X119577Y94865D01*
X117956D01*
X117601Y95326D01*
X117449Y95443D01*
X117429Y95977D01*
X117781Y96312D01*
X127863D01*
X128637Y96466D01*
X129294Y96905D01*
X133320Y100932D01*
X133569Y101304D01*
X134064Y101355D01*
X134461Y100998D01*
X134450Y100510D01*
X134210Y100326D01*
X133763Y99743D01*
X133482Y99064D01*
X133386Y98335D01*
X133482Y97607D01*
X133763Y96928D01*
X134210Y96345D01*
X134463Y96150D01*
Y95520D01*
X134210Y95326D01*
X133763Y94743D01*
X133482Y94064D01*
X133386Y93335D01*
X133482Y92607D01*
X133763Y91928D01*
X134210Y91345D01*
X134793Y90897D01*
X135473Y90616D01*
X136201Y90520D01*
X137107D01*
X137835Y90616D01*
X138514Y90897D01*
X139097Y91345D01*
X139434Y91783D01*
X139765Y91890D01*
X140026Y91844D01*
X140617Y91449D01*
X140731Y91427D01*
X140713Y91333D01*
Y90551D01*
X140748Y90374D01*
Y89709D01*
X140713Y89532D01*
Y86837D01*
X140732Y86738D01*
Y86638D01*
X140748Y86600D01*
Y86578D01*
X140160Y86185D01*
X140131Y86142D01*
X138747D01*
X138161Y86026D01*
X137665Y85694D01*
X135730Y83759D01*
X135398Y83262D01*
X135282Y82677D01*
Y81717D01*
X133745D01*
Y78923D01*
X133391Y78568D01*
X133391Y78568D01*
X131890D01*
X131827Y78619D01*
Y80107D01*
X131749Y80497D01*
X131528Y80828D01*
X131198Y81049D01*
X130807Y81127D01*
X119615D01*
X119545Y81481D01*
X119324Y81812D01*
X118993Y82033D01*
X118603Y82111D01*
X111615D01*
X111438Y82076D01*
X111224Y82033D01*
X111224Y82033D01*
X110894Y81812D01*
X110894Y81812D01*
X110673Y81482D01*
X110673Y81481D01*
X110630Y81268D01*
X110595Y81091D01*
X110595Y79064D01*
X110595Y79064D01*
X110595Y79064D01*
X110595Y76544D01*
X110595Y71820D01*
Y62587D01*
X110673Y62197D01*
X110894Y61866D01*
X111224Y61645D01*
X111615Y61568D01*
X118603Y61568D01*
X118993Y61645D01*
X119324Y61866D01*
X119545Y62197D01*
X119615Y62552D01*
X130807D01*
X130948Y62148D01*
X131169Y61818D01*
X131200Y61195D01*
X130459Y60455D01*
X130021Y59798D01*
X129867Y59024D01*
Y47098D01*
X128099Y45330D01*
X117442D01*
X117349Y45402D01*
Y46032D01*
X117601Y46227D01*
X117956Y46688D01*
X120189D01*
X120211Y46656D01*
X120932Y46174D01*
X121783Y46005D01*
X122634Y46174D01*
X123355Y46656D01*
X123838Y47377D01*
X124007Y48228D01*
X123838Y49079D01*
X123355Y49801D01*
X122634Y50283D01*
X121783Y50452D01*
X120932Y50283D01*
X120211Y49801D01*
X120174Y49747D01*
X118287D01*
X118175Y49926D01*
X118402Y50426D01*
X118402D01*
Y52717D01*
X111914D01*
Y50426D01*
X112251D01*
X112498Y49926D01*
X112267Y49625D01*
X111986Y48946D01*
X111890Y48217D01*
X111986Y47489D01*
X112267Y46810D01*
X112714Y46227D01*
X112967Y46032D01*
Y45402D01*
X112714Y45208D01*
X112267Y44625D01*
X111986Y43946D01*
X111890Y43217D01*
X111986Y42489D01*
X112267Y41810D01*
X112714Y41227D01*
X112967Y41032D01*
Y40402D01*
X112714Y40208D01*
X112360Y39747D01*
X110843D01*
Y44887D01*
X101756D01*
Y42868D01*
X101027D01*
X99425Y44470D01*
Y46717D01*
X99425Y46855D01*
Y47217D01*
X99425Y47355D01*
Y49686D01*
X93488D01*
Y47355D01*
X93488Y47217D01*
Y46855D01*
X93488Y46717D01*
Y40918D01*
X98651D01*
X99312Y40257D01*
X99808Y39926D01*
X100394Y39809D01*
X101756D01*
Y37769D01*
X107695D01*
X108328Y37136D01*
X108824Y36804D01*
X109409Y36688D01*
X112360D01*
X112714Y36226D01*
X113297Y35779D01*
X113976Y35498D01*
X114705Y35402D01*
X115611D01*
X116339Y35498D01*
X117018Y35779D01*
X117601Y36226D01*
X118049Y36810D01*
X118068Y36856D01*
X120446D01*
X120475Y36813D01*
X121196Y36331D01*
X122047Y36162D01*
X122898Y36331D01*
X123620Y36813D01*
X124102Y37535D01*
X124271Y38386D01*
X124102Y39237D01*
X123620Y39958D01*
X122898Y40440D01*
X122047Y40610D01*
X121196Y40440D01*
X120475Y39958D01*
X120446Y39915D01*
X117826D01*
X117601Y40208D01*
X117349Y40402D01*
Y40907D01*
X117744Y41284D01*
X128937D01*
X129711Y41438D01*
X130368Y41877D01*
X133320Y44829D01*
X133731Y44548D01*
X133482Y43946D01*
X133386Y43217D01*
X133482Y42489D01*
X133763Y41810D01*
X134210Y41227D01*
X134463Y41032D01*
Y40402D01*
X134210Y40208D01*
X133763Y39625D01*
X133482Y38946D01*
X133386Y38217D01*
X133482Y37489D01*
X133763Y36810D01*
X134210Y36226D01*
X134793Y35779D01*
X135473Y35498D01*
X136201Y35402D01*
X137107D01*
X137835Y35498D01*
X138514Y35779D01*
X139097Y36226D01*
X139434Y36665D01*
X139765Y36771D01*
X140026Y36726D01*
X140617Y36331D01*
X140731Y36309D01*
X140713Y36215D01*
Y35433D01*
X140748Y35256D01*
Y27559D01*
X128946D01*
Y27697D01*
X116057D01*
Y27559D01*
X90746D01*
X89128Y29177D01*
Y72294D01*
X89011Y72879D01*
X88680Y73375D01*
X83158Y78897D01*
X83319Y79370D01*
X83555Y79401D01*
X84373Y79740D01*
X85075Y80279D01*
X85614Y80982D01*
X85953Y81800D01*
X86068Y82677D01*
X85953Y83555D01*
X85614Y84373D01*
X85075Y85075D01*
X84373Y85614D01*
X83555Y85953D01*
X83341Y85981D01*
X83324Y86488D01*
X83528Y86528D01*
X84250Y87010D01*
X84732Y87732D01*
X84901Y88583D01*
X84732Y89434D01*
X84250Y90155D01*
X83528Y90637D01*
X82677Y90807D01*
X81826Y90637D01*
X81105Y90155D01*
X80623Y89434D01*
X80132Y89529D01*
Y104544D01*
X82626Y107038D01*
X82677Y107028D01*
X83528Y107197D01*
X84250Y107679D01*
X84732Y108401D01*
X84901Y109252D01*
X84732Y110103D01*
X84250Y110825D01*
X83528Y111307D01*
X83314Y111349D01*
X83040Y111914D01*
X83101Y112034D01*
X83528Y112119D01*
X84250Y112601D01*
X84732Y113322D01*
X84901Y114173D01*
X84732Y115024D01*
X84250Y115746D01*
X84031Y115892D01*
Y116392D01*
X84250Y116538D01*
X84732Y117259D01*
X84901Y118110D01*
X84732Y118961D01*
X84250Y119683D01*
X83528Y120165D01*
X82677Y120334D01*
X81826Y120165D01*
X81105Y119683D01*
X80623Y118961D01*
X80453Y118110D01*
X80463Y118059D01*
X74812Y112408D01*
X74481Y111912D01*
X74364Y111327D01*
Y91994D01*
X73864Y91787D01*
X71999Y93653D01*
X71379Y94128D01*
X70657Y94428D01*
X69882Y94529D01*
X62992D01*
Y118858D01*
X67756D01*
Y120215D01*
X71835D01*
Y118488D01*
X77772D01*
Y122065D01*
X88035Y132329D01*
X91903D01*
X91931Y132286D01*
X92653Y131804D01*
X93504Y131634D01*
X94355Y131804D01*
X95076Y132286D01*
X95559Y133007D01*
X95728Y133858D01*
X95559Y134709D01*
X95076Y135431D01*
X94355Y135913D01*
X93504Y136082D01*
X92653Y135913D01*
X91931Y135431D01*
X91903Y135388D01*
X87402D01*
X86816Y135271D01*
X86320Y134940D01*
X78234Y126853D01*
X77772Y127044D01*
Y130724D01*
X74893D01*
X71312Y134305D01*
X70656Y134743D01*
X69882Y134897D01*
X68295D01*
X67929Y135221D01*
Y136266D01*
X71736D01*
Y135221D01*
X77870D01*
Y136463D01*
X84646D01*
X85231Y136579D01*
X85727Y136911D01*
X87261Y138444D01*
X87760Y138544D01*
X88482Y139026D01*
X88964Y139747D01*
X89133Y140598D01*
X88964Y141449D01*
X88482Y142171D01*
X87760Y142653D01*
X86909Y142822D01*
X86058Y142653D01*
X85337Y142171D01*
X84855Y141449D01*
X84685Y140598D01*
X84752Y140262D01*
X84012Y139522D01*
X83253D01*
X82986Y140022D01*
X83183Y140316D01*
X83352Y141167D01*
X83183Y142018D01*
X82701Y142740D01*
X81979Y143222D01*
X81128Y143391D01*
X80277Y143222D01*
X79556Y142740D01*
X79074Y142018D01*
X78904Y141167D01*
X79074Y140316D01*
X79271Y140022D01*
X79003Y139522D01*
X78224D01*
X77870Y139875D01*
X77870Y140764D01*
X77870Y141264D01*
Y143201D01*
X71736D01*
Y141264D01*
X71736Y140929D01*
X71736Y140429D01*
Y139325D01*
X67929D01*
Y140370D01*
X62992D01*
Y141126D01*
X67929D01*
Y146276D01*
X64549D01*
X62992Y147832D01*
Y157480D01*
X28543D01*
Y179134D01*
X36921D01*
X36995Y178634D01*
X36367Y178443D01*
X34654Y177528D01*
X33153Y176296D01*
X31921Y174795D01*
X31006Y173082D01*
X30442Y171224D01*
X30301Y169791D01*
X50014D01*
X49873Y171224D01*
X49309Y173082D01*
X48394Y174795D01*
X47162Y176296D01*
X45661Y177528D01*
X43948Y178443D01*
X43320Y178634D01*
X43394Y179134D01*
X59362D01*
X59436Y178634D01*
X58808Y178443D01*
X57095Y177528D01*
X55594Y176296D01*
X54362Y174795D01*
X53447Y173082D01*
X52883Y171224D01*
X52742Y169791D01*
X72455D01*
X72314Y171224D01*
X71750Y173082D01*
X70835Y174795D01*
X69603Y176296D01*
X68102Y177528D01*
X66389Y178443D01*
X65761Y178634D01*
X65835Y179134D01*
X77756D01*
Y195611D01*
X78607Y195780D01*
X78677Y195827D01*
X79118Y195591D01*
Y195260D01*
X84268D01*
Y196345D01*
X84768Y196608D01*
X85271Y196272D01*
X86122Y196103D01*
X86973Y196272D01*
X87476Y196608D01*
X87976Y196345D01*
Y195260D01*
X93126D01*
Y196305D01*
X96835D01*
Y195260D01*
X101984D01*
Y196305D01*
X102733D01*
X102758Y196268D01*
X103480Y195786D01*
X104331Y195617D01*
X105182Y195786D01*
X105903Y196268D01*
X106385Y196990D01*
X106554Y197840D01*
X106385Y198691D01*
X105903Y199413D01*
X105182Y199895D01*
X104331Y200064D01*
X103480Y199895D01*
X102758Y199413D01*
X102726Y199364D01*
X101984D01*
Y200409D01*
X102279Y200787D01*
X140713D01*
Y197106D01*
D02*
G37*
G36*
X140889Y194055D02*
X140822Y194117D01*
X140749Y194173D01*
X140670Y194222D01*
X140585Y194264D01*
X140495Y194300D01*
X140398Y194330D01*
X140296Y194352D01*
X140188Y194369D01*
X140074Y194379D01*
X139954Y194382D01*
Y195382D01*
X140074Y195385D01*
X140188Y195395D01*
X140296Y195411D01*
X140398Y195434D01*
X140495Y195464D01*
X140585Y195500D01*
X140670Y195542D01*
X140749Y195591D01*
X140822Y195647D01*
X140889Y195709D01*
Y194055D01*
D02*
G37*
G36*
X137316Y191749D02*
X137331Y191577D01*
X137356Y191425D01*
X137391Y191294D01*
X137436Y191182D01*
X137491Y191092D01*
X137556Y191021D01*
X137631Y190970D01*
X137716Y190940D01*
X137811Y190929D01*
X135811D01*
X135906Y190940D01*
X135991Y190970D01*
X136066Y191021D01*
X136131Y191092D01*
X136186Y191182D01*
X136231Y191294D01*
X136266Y191425D01*
X136291Y191577D01*
X136306Y191749D01*
X136311Y191941D01*
X137311D01*
X137316Y191749D01*
D02*
G37*
G36*
X170388Y189927D02*
X170460Y189871D01*
X170539Y189822D01*
X170624Y189780D01*
X170715Y189744D01*
X170811Y189715D01*
X170913Y189692D01*
X171022Y189675D01*
X171136Y189665D01*
X171256Y189662D01*
Y188662D01*
X171136Y188659D01*
X171022Y188649D01*
X170913Y188633D01*
X170811Y188610D01*
X170715Y188581D01*
X170624Y188545D01*
X170539Y188502D01*
X170460Y188453D01*
X170388Y188398D01*
X170321Y188335D01*
Y189989D01*
X170388Y189927D01*
D02*
G37*
G36*
X172268Y188162D02*
X172258Y188257D01*
X172228Y188342D01*
X172177Y188417D01*
X172107Y188482D01*
X172016Y188537D01*
X171904Y188582D01*
X171773Y188617D01*
X171621Y188642D01*
X171449Y188657D01*
X171256Y188662D01*
Y189662D01*
X171449Y189667D01*
X171621Y189682D01*
X171773Y189707D01*
X171904Y189742D01*
X172016Y189787D01*
X172107Y189842D01*
X172177Y189907D01*
X172228Y189982D01*
X172258Y190067D01*
X172268Y190162D01*
Y188162D01*
D02*
G37*
G36*
X160574Y182036D02*
X160507Y182098D01*
X160434Y182154D01*
X160355Y182203D01*
X160271Y182245D01*
X160180Y182281D01*
X160083Y182311D01*
X159981Y182334D01*
X159873Y182350D01*
X159759Y182360D01*
X159639Y182363D01*
X159639Y183363D01*
X159759Y183366D01*
X159873Y183376D01*
X159981Y183392D01*
X160083Y183415D01*
X160180Y183445D01*
X160270Y183481D01*
X160355Y183523D01*
X160434Y183572D01*
X160507Y183628D01*
X160574Y183690D01*
X160574Y182036D01*
D02*
G37*
G36*
X176170Y183949D02*
X176206Y183847D01*
X176267Y183757D01*
X176351Y183679D01*
X176461Y183613D01*
X176594Y183559D01*
X176751Y183517D01*
X176933Y183487D01*
X177139Y183469D01*
X177369Y183463D01*
Y182747D01*
X177535Y183463D01*
X178905Y183245D01*
X177955Y182018D01*
X177945Y182064D01*
X177922Y182106D01*
X177886Y182143D01*
X177836Y182175D01*
X177773Y182202D01*
X177697Y182224D01*
X177607Y182241D01*
X177504Y182253D01*
X177387Y182261D01*
X177322Y182262D01*
X177139Y182257D01*
X176933Y182239D01*
X176751Y182209D01*
X176594Y182167D01*
X176461Y182113D01*
X176351Y182047D01*
X176267Y181969D01*
X176206Y181879D01*
X176170Y181777D01*
X176157Y181663D01*
Y184063D01*
X176170Y183949D01*
D02*
G37*
G36*
X158549Y183768D02*
X158580Y183683D01*
X158630Y183608D01*
X158701Y183543D01*
X158792Y183488D01*
X158904Y183443D01*
X159035Y183408D01*
X159187Y183383D01*
X159359Y183368D01*
X159551Y183363D01*
Y182363D01*
X159359Y182358D01*
X159187Y182343D01*
X159035Y182318D01*
X158904Y182283D01*
X158792Y182238D01*
X158701Y182183D01*
X158630Y182118D01*
X158580Y182043D01*
X158549Y181958D01*
X158539Y181863D01*
Y183863D01*
X158549Y183768D01*
D02*
G37*
G36*
X169193Y183924D02*
X169229Y183827D01*
X169289Y183742D01*
X169373Y183668D01*
X169481Y183605D01*
X169613Y183554D01*
X169769Y183514D01*
X169949Y183486D01*
X170153Y183469D01*
X170381Y183463D01*
Y182263D01*
X170153Y182257D01*
X169949Y182240D01*
X169769Y182212D01*
X169613Y182172D01*
X169481Y182121D01*
X169373Y182058D01*
X169289Y181984D01*
X169229Y181899D01*
X169193Y181802D01*
X169181Y181694D01*
Y184032D01*
X169193Y183924D01*
D02*
G37*
G36*
X172268Y181663D02*
X172256Y181777D01*
X172220Y181879D01*
X172159Y181969D01*
X172074Y182047D01*
X171966Y182113D01*
X171832Y182167D01*
X171675Y182209D01*
X171493Y182239D01*
X171287Y182257D01*
X171056Y182263D01*
Y183463D01*
X171287Y183469D01*
X171493Y183487D01*
X171675Y183517D01*
X171832Y183559D01*
X171966Y183613D01*
X172074Y183679D01*
X172159Y183757D01*
X172220Y183847D01*
X172256Y183949D01*
X172268Y184063D01*
Y181663D01*
D02*
G37*
G36*
X162765Y178296D02*
X162698Y178358D01*
X162625Y178414D01*
X162547Y178463D01*
X162462Y178505D01*
X162371Y178541D01*
X162275Y178570D01*
X162173Y178593D01*
X162064Y178610D01*
X161950Y178620D01*
X161830Y178623D01*
Y179623D01*
X161950Y179626D01*
X162064Y179636D01*
X162173Y179652D01*
X162275Y179675D01*
X162371Y179704D01*
X162462Y179741D01*
X162547Y179783D01*
X162625Y179832D01*
X162698Y179887D01*
X162765Y179950D01*
Y178296D01*
D02*
G37*
G36*
X158549Y180028D02*
X158580Y179943D01*
X158630Y179868D01*
X158701Y179803D01*
X158792Y179748D01*
X158904Y179703D01*
X159035Y179668D01*
X159187Y179643D01*
X159359Y179628D01*
X159551Y179623D01*
Y178623D01*
X159359Y178618D01*
X159187Y178603D01*
X159035Y178578D01*
X158904Y178543D01*
X158792Y178498D01*
X158701Y178443D01*
X158630Y178378D01*
X158580Y178303D01*
X158549Y178218D01*
X158539Y178123D01*
Y180123D01*
X158549Y180028D01*
D02*
G37*
G36*
X200788Y173966D02*
X200288Y173933D01*
X200209Y174534D01*
X199705Y175750D01*
X198903Y176794D01*
X197859Y177596D01*
X196643Y178100D01*
X195837Y178206D01*
Y173228D01*
Y168251D01*
X196643Y168357D01*
X197859Y168861D01*
X198903Y169662D01*
X199705Y170707D01*
X200209Y171923D01*
X200288Y172524D01*
X200788Y172491D01*
Y162166D01*
X200288Y162133D01*
X200209Y162734D01*
X199705Y163950D01*
X198903Y164994D01*
X197859Y165796D01*
X196643Y166300D01*
X195837Y166406D01*
Y161428D01*
Y156451D01*
X196643Y156557D01*
X197859Y157061D01*
X198903Y157862D01*
X199705Y158907D01*
X200209Y160123D01*
X200288Y160724D01*
X200788Y160691D01*
Y145669D01*
X161418D01*
Y177593D01*
X162007D01*
X162036Y177550D01*
X162758Y177068D01*
X163609Y176899D01*
X163673Y176912D01*
X164059Y176594D01*
Y175883D01*
X166626D01*
Y177564D01*
X165721D01*
X165485Y178005D01*
X165663Y178272D01*
X165833Y179123D01*
X179134D01*
X180161Y180150D01*
X180706Y180514D01*
X181070Y181059D01*
X187993Y187981D01*
X200788D01*
Y173966D01*
D02*
G37*
G36*
X118603Y190343D02*
X130807D01*
Y173808D01*
X118603D01*
Y172824D01*
X111615D01*
Y182056D01*
Y186780D01*
X111614Y189300D01*
X111615Y191328D01*
X118603D01*
Y190343D01*
D02*
G37*
G36*
X120947Y157630D02*
X120880Y157691D01*
X120806Y157746D01*
X120727Y157795D01*
X120642Y157837D01*
X120551Y157873D01*
X120455Y157902D01*
X120352Y157924D01*
X120244Y157941D01*
X120130Y157950D01*
X120010Y157954D01*
X119999Y158953D01*
X120119Y158957D01*
X120233Y158967D01*
X120342Y158983D01*
X120444Y159006D01*
X120540Y159036D01*
X120630Y159072D01*
X120715Y159115D01*
X120793Y159165D01*
X120865Y159221D01*
X120932Y159283D01*
X120947Y157630D01*
D02*
G37*
G36*
X117089Y159353D02*
X117127Y159269D01*
X117189Y159195D01*
X117277Y159131D01*
X117390Y159077D01*
X117528Y159032D01*
X117691Y158998D01*
X117878Y158973D01*
X118091Y158958D01*
X118329Y158953D01*
Y157954D01*
X118091Y157949D01*
X117691Y157909D01*
X117528Y157875D01*
X117390Y157830D01*
X117277Y157776D01*
X117189Y157712D01*
X117127Y157638D01*
X117089Y157554D01*
X117077Y157461D01*
Y159446D01*
X117089Y159353D01*
D02*
G37*
G36*
X5536Y152543D02*
X5526Y152638D01*
X5495Y152723D01*
X5445Y152798D01*
X5374Y152863D01*
X5283Y152918D01*
X5172Y152963D01*
X5040Y152998D01*
X4888Y153023D01*
X4716Y153038D01*
X4630Y153041D01*
X4611Y153040D01*
X4497Y153030D01*
X4389Y153014D01*
X4287Y152991D01*
X4190Y152962D01*
X4100Y152926D01*
X4015Y152883D01*
X3936Y152834D01*
X3863Y152779D01*
X3796Y152717D01*
Y154370D01*
X3863Y154308D01*
X3936Y154252D01*
X4015Y154203D01*
X4100Y154161D01*
X4190Y154125D01*
X4287Y154096D01*
X4389Y154073D01*
X4497Y154056D01*
X4611Y154047D01*
X4630Y154046D01*
X4716Y154048D01*
X4888Y154063D01*
X5040Y154088D01*
X5172Y154123D01*
X5283Y154168D01*
X5374Y154223D01*
X5445Y154288D01*
X5495Y154363D01*
X5526Y154448D01*
X5536Y154543D01*
Y152543D01*
D02*
G37*
G36*
X102780Y150575D02*
X102770Y150670D01*
X102740Y150755D01*
X102689Y150830D01*
X102618Y150895D01*
X102527Y150950D01*
X102416Y150995D01*
X102284Y151030D01*
X102132Y151055D01*
X101960Y151070D01*
X101768Y151075D01*
Y152075D01*
X101960Y152080D01*
X102132Y152095D01*
X102284Y152120D01*
X102416Y152155D01*
X102527Y152200D01*
X102618Y152255D01*
X102689Y152320D01*
X102740Y152395D01*
X102770Y152480D01*
X102780Y152575D01*
Y150575D01*
D02*
G37*
G36*
X14554Y178634D02*
X13926Y178443D01*
X12213Y177528D01*
X10712Y176296D01*
X9480Y174795D01*
X8565Y173082D01*
X8001Y171224D01*
X7860Y169791D01*
X17717D01*
Y169291D01*
X18217D01*
Y159435D01*
X19649Y159576D01*
X21507Y160139D01*
X23220Y161055D01*
X24721Y162287D01*
X25953Y163788D01*
X26869Y165500D01*
X27024Y166012D01*
X27524Y165938D01*
Y157480D01*
X27601Y157090D01*
X27822Y156759D01*
X28153Y156538D01*
X28543Y156461D01*
Y151575D01*
X19701Y142732D01*
X15994D01*
Y142379D01*
X14764D01*
X14140Y142255D01*
X13610Y141902D01*
X12626Y140917D01*
X12272Y140388D01*
X12148Y139764D01*
Y138992D01*
X10014D01*
Y136811D01*
Y134630D01*
X12148D01*
Y129921D01*
X12272Y129297D01*
X12626Y128768D01*
X12979Y128415D01*
X12788Y127953D01*
X1529Y127953D01*
Y144451D01*
X1970Y144687D01*
X2102Y144599D01*
X2953Y144430D01*
X3804Y144599D01*
X4071Y144777D01*
X4512Y144542D01*
Y143685D01*
X10311D01*
X10449Y143685D01*
X10811D01*
X10949Y143685D01*
X13280D01*
Y146653D01*
Y149622D01*
X10949D01*
X10811Y149622D01*
X10449D01*
X10311Y149622D01*
X4512D01*
Y148765D01*
X4071Y148530D01*
X3804Y148708D01*
X2953Y148877D01*
X2102Y148708D01*
X1970Y148620D01*
X1529Y148856D01*
Y151341D01*
X1970Y151576D01*
X2102Y151489D01*
X2953Y151320D01*
X3804Y151489D01*
X4071Y151667D01*
X4512Y151432D01*
Y150575D01*
X10311D01*
X10449Y150575D01*
X10811D01*
X10949Y150575D01*
X13280D01*
Y153543D01*
Y156512D01*
X10949D01*
X10811Y156512D01*
X10449D01*
X10311Y156512D01*
X4512D01*
Y155655D01*
X4071Y155419D01*
X3804Y155598D01*
X2953Y155767D01*
X2102Y155598D01*
X1970Y155510D01*
X1529Y155746D01*
Y179134D01*
X14480D01*
X14554Y178634D01*
D02*
G37*
G36*
X138467Y149521D02*
X138514Y149437D01*
X138586Y149364D01*
X138681Y149299D01*
X138800Y149245D01*
X138944Y149201D01*
X139111Y149166D01*
X139302Y149142D01*
X139517Y149127D01*
X139718Y149123D01*
X139809Y149125D01*
X139924Y149135D01*
X140032Y149152D01*
X140134Y149174D01*
X140231Y149204D01*
X140321Y149240D01*
X140406Y149282D01*
X140485Y149331D01*
X140558Y149387D01*
X140625Y149449D01*
Y147795D01*
X140558Y147857D01*
X140485Y147913D01*
X140406Y147962D01*
X140321Y148004D01*
X140231Y148040D01*
X140134Y148070D01*
X140032Y148093D01*
X139924Y148109D01*
X139809Y148119D01*
X139763Y148120D01*
X139623Y148117D01*
X139231Y148077D01*
X139074Y148043D01*
X138943Y147998D01*
X138838Y147944D01*
X138759Y147879D01*
X138706Y147805D01*
X138678Y147721D01*
X138677Y147627D01*
X138443Y149615D01*
X138467Y149521D01*
D02*
G37*
G36*
X120452Y147653D02*
X120381Y147710D01*
X120305Y147761D01*
X120223Y147806D01*
X120136Y147845D01*
X120044Y147878D01*
X119946Y147905D01*
X119842Y147926D01*
X119733Y147942D01*
X119619Y147950D01*
X119499Y147953D01*
X119420Y148953D01*
X119540Y148957D01*
X119654Y148968D01*
X119762Y148985D01*
X119863Y149009D01*
X119957Y149041D01*
X120045Y149079D01*
X120127Y149124D01*
X120202Y149177D01*
X120271Y149236D01*
X120334Y149302D01*
X120452Y147653D01*
D02*
G37*
G36*
X117089Y149353D02*
X117127Y149269D01*
X117189Y149195D01*
X117277Y149131D01*
X117390Y149077D01*
X117528Y149032D01*
X117691Y148998D01*
X117878Y148973D01*
X118091Y148959D01*
X118329Y148953D01*
Y147953D01*
X118091Y147949D01*
X117691Y147909D01*
X117528Y147875D01*
X117390Y147830D01*
X117277Y147776D01*
X117189Y147712D01*
X117127Y147638D01*
X117089Y147555D01*
X117077Y147461D01*
Y149446D01*
X117089Y149353D01*
D02*
G37*
G36*
X113239Y147461D02*
X113227Y147555D01*
X113189Y147638D01*
X113126Y147712D01*
X113039Y147776D01*
X112926Y147830D01*
X112788Y147875D01*
X112625Y147909D01*
X112437Y147934D01*
X112224Y147949D01*
X111986Y147953D01*
Y148953D01*
X112224Y148959D01*
X112625Y148998D01*
X112788Y149032D01*
X112926Y149077D01*
X113039Y149131D01*
X113126Y149195D01*
X113189Y149269D01*
X113227Y149353D01*
X113239Y149446D01*
Y147461D01*
D02*
G37*
G36*
X61077Y148292D02*
X60518Y147436D01*
X60428Y147521D01*
X60341Y147593D01*
X60257Y147651D01*
X60176Y147695D01*
X60099Y147726D01*
X60025Y147743D01*
X59954Y147746D01*
X59886Y147736D01*
X59822Y147712D01*
X59761Y147675D01*
X60071Y149225D01*
X61077Y148292D01*
D02*
G37*
G36*
X5536Y145653D02*
X5526Y145748D01*
X5495Y145834D01*
X5445Y145908D01*
X5374Y145974D01*
X5283Y146028D01*
X5172Y146073D01*
X5040Y146108D01*
X4888Y146133D01*
X4716Y146149D01*
X4630Y146151D01*
X4611Y146150D01*
X4497Y146141D01*
X4389Y146124D01*
X4287Y146101D01*
X4190Y146072D01*
X4100Y146036D01*
X4015Y145993D01*
X3936Y145944D01*
X3863Y145889D01*
X3796Y145827D01*
Y147480D01*
X3863Y147418D01*
X3936Y147363D01*
X4015Y147314D01*
X4100Y147271D01*
X4190Y147235D01*
X4287Y147206D01*
X4389Y147183D01*
X4497Y147167D01*
X4611Y147157D01*
X4630Y147156D01*
X4716Y147159D01*
X4888Y147174D01*
X5040Y147198D01*
X5172Y147233D01*
X5283Y147278D01*
X5374Y147334D01*
X5445Y147398D01*
X5495Y147474D01*
X5526Y147558D01*
X5536Y147653D01*
Y145653D01*
D02*
G37*
G36*
X23912Y139792D02*
X23864Y139822D01*
X23807Y139849D01*
X23741Y139873D01*
X23665Y139894D01*
X23581Y139911D01*
X23488Y139926D01*
X23275Y139945D01*
X23026Y139951D01*
X22787Y141151D01*
X22915Y141154D01*
X23141Y141176D01*
X23240Y141195D01*
X23330Y141219D01*
X23410Y141249D01*
X23481Y141284D01*
X23542Y141325D01*
X23594Y141371D01*
X23637Y141423D01*
X23912Y139792D01*
D02*
G37*
G36*
X17006Y139548D02*
X16994Y139662D01*
X16958Y139764D01*
X16898Y139854D01*
X16814Y139932D01*
X16706Y139998D01*
X16574Y140052D01*
X16418Y140094D01*
X16238Y140124D01*
X16034Y140142D01*
X15806Y140148D01*
Y141348D01*
X16034Y141352D01*
X16418Y141382D01*
X16574Y141408D01*
X16706Y141441D01*
X16814Y141482D01*
X16898Y141530D01*
X16958Y141586D01*
X16994Y141649D01*
X17006Y141720D01*
Y139548D01*
D02*
G37*
G36*
X20931Y141612D02*
X20967Y141515D01*
X21027Y141430D01*
X21111Y141356D01*
X21219Y141293D01*
X21351Y141242D01*
X21507Y141202D01*
X21687Y141174D01*
X21891Y141157D01*
X22119Y141151D01*
Y139951D01*
X21891Y139945D01*
X21687Y139928D01*
X21507Y139900D01*
X21351Y139860D01*
X21219Y139809D01*
X21111Y139746D01*
X21027Y139672D01*
X20967Y139587D01*
X20931Y139490D01*
X20919Y139382D01*
Y141720D01*
X20931Y141612D01*
D02*
G37*
G36*
X76856Y138897D02*
X76887Y138812D01*
X76937Y138737D01*
X77008Y138672D01*
X77099Y138617D01*
X77210Y138572D01*
X77342Y138537D01*
X77494Y138512D01*
X77666Y138497D01*
X77858Y138492D01*
Y137492D01*
X77666Y137487D01*
X77494Y137472D01*
X77342Y137447D01*
X77210Y137412D01*
X77099Y137367D01*
X77008Y137312D01*
X76937Y137247D01*
X76887Y137172D01*
X76856Y137087D01*
X76846Y136992D01*
Y138992D01*
X76856Y138897D01*
D02*
G37*
G36*
X72760Y136795D02*
X72750Y136890D01*
X72720Y136975D01*
X72669Y137050D01*
X72598Y137115D01*
X72507Y137170D01*
X72396Y137215D01*
X72264Y137250D01*
X72113Y137275D01*
X71940Y137290D01*
X71748Y137295D01*
Y138295D01*
X71940Y138300D01*
X72113Y138315D01*
X72264Y138340D01*
X72396Y138375D01*
X72507Y138420D01*
X72598Y138475D01*
X72669Y138540D01*
X72720Y138615D01*
X72750Y138700D01*
X72760Y138795D01*
Y136795D01*
D02*
G37*
G36*
X66915Y138700D02*
X66946Y138615D01*
X66996Y138540D01*
X67067Y138475D01*
X67158Y138420D01*
X67269Y138375D01*
X67401Y138340D01*
X67553Y138315D01*
X67725Y138300D01*
X67917Y138295D01*
Y137295D01*
X67725Y137290D01*
X67553Y137275D01*
X67401Y137250D01*
X67269Y137215D01*
X67158Y137170D01*
X67067Y137115D01*
X66996Y137050D01*
X66946Y136975D01*
X66915Y136890D01*
X66905Y136795D01*
Y138795D01*
X66915Y138700D01*
D02*
G37*
G36*
X137316Y136631D02*
X137331Y136459D01*
X137356Y136307D01*
X137391Y136176D01*
X137436Y136064D01*
X137491Y135973D01*
X137556Y135903D01*
X137631Y135852D01*
X137716Y135821D01*
X137811Y135811D01*
X135811D01*
X135906Y135821D01*
X135991Y135852D01*
X136066Y135903D01*
X136131Y135973D01*
X136186Y136064D01*
X136231Y136176D01*
X136266Y136307D01*
X136291Y136459D01*
X136306Y136631D01*
X136311Y136823D01*
X137311D01*
X137316Y136631D01*
D02*
G37*
G36*
X170231Y134785D02*
X170308Y134735D01*
X170389Y134690D01*
X170477Y134651D01*
X170570Y134618D01*
X170668Y134592D01*
X170771Y134571D01*
X170880Y134556D01*
X170995Y134547D01*
X171114Y134544D01*
X171202Y133544D01*
X171081Y133541D01*
X170967Y133530D01*
X170860Y133512D01*
X170759Y133488D01*
X170665Y133456D01*
X170577Y133418D01*
X170495Y133372D01*
X170421Y133320D01*
X170352Y133260D01*
X170290Y133193D01*
X170160Y134842D01*
X170231Y134785D01*
D02*
G37*
G36*
X172268Y133044D02*
X172258Y133139D01*
X172228Y133224D01*
X172177Y133299D01*
X172107Y133364D01*
X172016Y133419D01*
X171904Y133464D01*
X171773Y133499D01*
X171621Y133524D01*
X171449Y133539D01*
X171256Y133544D01*
Y134544D01*
X171449Y134549D01*
X171621Y134564D01*
X171773Y134589D01*
X171904Y134624D01*
X172016Y134669D01*
X172107Y134724D01*
X172177Y134789D01*
X172228Y134864D01*
X172258Y134949D01*
X172268Y135044D01*
Y133044D01*
D02*
G37*
G36*
X92660Y133031D02*
X92593Y133094D01*
X92521Y133149D01*
X92442Y133198D01*
X92357Y133241D01*
X92266Y133277D01*
X92170Y133306D01*
X92068Y133329D01*
X91959Y133345D01*
X91845Y133355D01*
X91725Y133358D01*
Y134358D01*
X91845Y134362D01*
X91959Y134371D01*
X92068Y134388D01*
X92170Y134411D01*
X92266Y134440D01*
X92357Y134476D01*
X92442Y134518D01*
X92521Y134567D01*
X92593Y134623D01*
X92660Y134685D01*
Y133031D01*
D02*
G37*
G36*
X20918Y133779D02*
X20948Y133694D01*
X20999Y133619D01*
X21070Y133554D01*
X21161Y133499D01*
X21273Y133454D01*
X21404Y133419D01*
X21555Y133394D01*
X21727Y133379D01*
X21880Y133375D01*
X21963Y133377D01*
X22077Y133387D01*
X22186Y133403D01*
X22288Y133426D01*
X22385Y133456D01*
X22475Y133492D01*
X22560Y133534D01*
X22639Y133583D01*
X22712Y133639D01*
X22779Y133701D01*
Y132047D01*
X22712Y132109D01*
X22639Y132165D01*
X22560Y132214D01*
X22475Y132256D01*
X22385Y132292D01*
X22288Y132322D01*
X22186Y132345D01*
X22077Y132361D01*
X21963Y132371D01*
X21879Y132373D01*
X21729Y132369D01*
X21559Y132355D01*
X21409Y132332D01*
X21279Y132299D01*
X21169Y132256D01*
X21079Y132204D01*
X21009Y132143D01*
X20959Y132072D01*
X20929Y131992D01*
X20919Y131902D01*
X20907Y133874D01*
X20918Y133779D01*
D02*
G37*
G36*
X160476Y145279D02*
X160697Y144948D01*
X161028Y144727D01*
X161418Y144650D01*
X188893D01*
Y140264D01*
X194815D01*
Y139764D01*
X195315D01*
Y134433D01*
X200119D01*
X200345Y133933D01*
X200301Y133883D01*
X187993D01*
X187602Y133805D01*
X187271Y133584D01*
X181634Y127947D01*
X181033Y128052D01*
X180706Y128541D01*
X179985Y129023D01*
X179134Y129192D01*
X179086Y129183D01*
X178982Y129252D01*
X178358Y129376D01*
X177181D01*
Y130576D01*
X177181Y130713D01*
Y131076D01*
X177181Y131213D01*
Y137013D01*
X171245D01*
Y135863D01*
X170745Y135666D01*
X170235Y136006D01*
X169384Y136175D01*
X168533Y136006D01*
X167812Y135524D01*
X167330Y134802D01*
X167160Y133951D01*
X167330Y133100D01*
X167812Y132379D01*
X168533Y131897D01*
X169384Y131727D01*
X170235Y131897D01*
X170745Y132237D01*
X171245Y131978D01*
Y131213D01*
X171245Y131076D01*
Y130713D01*
X171245Y130576D01*
Y129376D01*
X170193D01*
Y129926D01*
X164059D01*
Y128869D01*
X163559Y128717D01*
X163273Y129147D01*
X162551Y129629D01*
X161700Y129798D01*
X160849Y129629D01*
X160319Y129274D01*
X159563D01*
Y129926D01*
X153429D01*
Y125564D01*
Y121824D01*
Y120765D01*
X156496D01*
X159563D01*
Y122023D01*
X160012Y122259D01*
X160426Y122000D01*
X160418Y121980D01*
Y121879D01*
X160398Y121781D01*
Y90551D01*
X141732D01*
Y91333D01*
X142319Y91449D01*
X143041Y91931D01*
X143523Y92653D01*
X143692Y93504D01*
X143523Y94355D01*
X143041Y95076D01*
X142319Y95559D01*
X141732Y95675D01*
Y113965D01*
X135227D01*
X135036Y114427D01*
X137688Y117079D01*
X140666D01*
Y118957D01*
X137205D01*
X136674D01*
X138623Y118104D01*
X138423Y118165D01*
X138205Y118182D01*
X137970Y118154D01*
X137717Y118081D01*
X137447Y117963D01*
X137160Y117800D01*
X136856Y117592D01*
X136534Y117340D01*
X136195Y117042D01*
X135839Y116700D01*
X133364Y117009D01*
X133804Y117462D01*
X134484Y118252D01*
X134724Y118589D01*
X134897Y118886D01*
X134927Y118957D01*
X133745D01*
Y118858D01*
X132352Y117465D01*
X131890Y117657D01*
Y132666D01*
X133391D01*
X133744Y132313D01*
Y132080D01*
X133745Y131579D01*
Y129957D01*
X137205D01*
X140666D01*
Y131579D01*
X140666Y131835D01*
X140666Y132166D01*
X141029Y132666D01*
X141732D01*
Y137328D01*
X142319Y137445D01*
X143041Y137927D01*
X143523Y138649D01*
X143692Y139500D01*
X143523Y140351D01*
X143041Y141072D01*
X142319Y141554D01*
X141732Y141671D01*
Y145669D01*
X160398D01*
X160476Y145279D01*
D02*
G37*
G36*
X176170Y128831D02*
X176206Y128729D01*
X176267Y128639D01*
X176351Y128561D01*
X176461Y128495D01*
X176594Y128441D01*
X176751Y128399D01*
X176933Y128369D01*
X177139Y128351D01*
X177369Y128345D01*
Y127629D01*
X177535Y128345D01*
X178905Y128127D01*
X177955Y126900D01*
X177945Y126946D01*
X177922Y126988D01*
X177886Y127025D01*
X177836Y127057D01*
X177773Y127084D01*
X177697Y127106D01*
X177607Y127123D01*
X177504Y127135D01*
X177387Y127142D01*
X177322Y127144D01*
X177139Y127139D01*
X176933Y127121D01*
X176751Y127091D01*
X176594Y127049D01*
X176461Y126995D01*
X176351Y126929D01*
X176267Y126851D01*
X176206Y126761D01*
X176170Y126659D01*
X176157Y126545D01*
Y128945D01*
X176170Y128831D01*
D02*
G37*
G36*
X158549Y128650D02*
X158580Y128565D01*
X158630Y128490D01*
X158701Y128425D01*
X158792Y128370D01*
X158904Y128325D01*
X159035Y128290D01*
X159187Y128265D01*
X159359Y128250D01*
X159551Y128245D01*
Y127245D01*
X159359Y127240D01*
X159187Y127225D01*
X159035Y127200D01*
X158904Y127165D01*
X158792Y127120D01*
X158701Y127065D01*
X158630Y127000D01*
X158580Y126925D01*
X158549Y126840D01*
X158539Y126745D01*
Y128745D01*
X158549Y128650D01*
D02*
G37*
G36*
X68768Y126576D02*
X68735Y126651D01*
X68693Y126718D01*
X68640Y126776D01*
X68577Y126827D01*
X68505Y126871D01*
X68422Y126906D01*
X68330Y126933D01*
X68227Y126953D01*
X68115Y126965D01*
X67992Y126969D01*
X68545Y127969D01*
X68671Y127970D01*
X69184Y128005D01*
X69263Y128018D01*
X69398Y128050D01*
X69454Y128069D01*
X68768Y126576D01*
D02*
G37*
G36*
X169193Y128806D02*
X169229Y128709D01*
X169289Y128624D01*
X169373Y128550D01*
X169481Y128487D01*
X169613Y128436D01*
X169769Y128396D01*
X169949Y128368D01*
X170153Y128351D01*
X170381Y128345D01*
Y127145D01*
X170153Y127139D01*
X169949Y127122D01*
X169769Y127094D01*
X169613Y127054D01*
X169481Y127003D01*
X169373Y126940D01*
X169289Y126866D01*
X169229Y126781D01*
X169193Y126684D01*
X169181Y126576D01*
Y128914D01*
X169193Y128806D01*
D02*
G37*
G36*
X172268Y126545D02*
X172256Y126659D01*
X172220Y126761D01*
X172159Y126851D01*
X172074Y126929D01*
X171966Y126995D01*
X171832Y127049D01*
X171675Y127091D01*
X171493Y127121D01*
X171287Y127139D01*
X171056Y127145D01*
Y128345D01*
X171287Y128351D01*
X171493Y128369D01*
X171675Y128399D01*
X171832Y128441D01*
X171966Y128495D01*
X172074Y128561D01*
X172159Y128639D01*
X172220Y128729D01*
X172256Y128831D01*
X172268Y128945D01*
Y126545D01*
D02*
G37*
G36*
X66742Y128374D02*
X66773Y128288D01*
X66823Y128214D01*
X66894Y128148D01*
X66985Y128094D01*
X67097Y128049D01*
X67228Y128014D01*
X67380Y127989D01*
X67552Y127973D01*
X67744Y127969D01*
Y126969D01*
X67552Y126963D01*
X67380Y126948D01*
X67228Y126924D01*
X67097Y126889D01*
X66985Y126844D01*
X66894Y126788D01*
X66823Y126724D01*
X66773Y126648D01*
X66742Y126564D01*
X66732Y126469D01*
Y128469D01*
X66742Y128374D01*
D02*
G37*
G36*
X17334Y124630D02*
X17353Y124401D01*
X17369Y124299D01*
X17389Y124207D01*
X17414Y124123D01*
X17443Y124048D01*
X17477Y123981D01*
X17516Y123924D01*
X17559Y123875D01*
X15905D01*
X15949Y123924D01*
X15987Y123981D01*
X16021Y124048D01*
X16051Y124123D01*
X16076Y124207D01*
X16096Y124299D01*
X16112Y124401D01*
X16123Y124511D01*
X16132Y124758D01*
X17332D01*
X17334Y124630D01*
D02*
G37*
G36*
X160574Y123178D02*
X160507Y123240D01*
X160434Y123296D01*
X160355Y123345D01*
X160271Y123387D01*
X160180Y123423D01*
X160084Y123452D01*
X159981Y123475D01*
X159873Y123492D01*
X159759Y123501D01*
X159639Y123505D01*
Y124505D01*
X159759Y124508D01*
X159873Y124518D01*
X159981Y124534D01*
X160084Y124557D01*
X160180Y124586D01*
X160271Y124622D01*
X160355Y124665D01*
X160434Y124714D01*
X160507Y124769D01*
X160574Y124831D01*
Y123178D01*
D02*
G37*
G36*
X158549Y124910D02*
X158580Y124825D01*
X158630Y124750D01*
X158701Y124685D01*
X158792Y124630D01*
X158904Y124585D01*
X159035Y124550D01*
X159187Y124525D01*
X159359Y124510D01*
X159551Y124505D01*
Y123505D01*
X159359Y123500D01*
X159187Y123485D01*
X159035Y123460D01*
X158904Y123425D01*
X158792Y123380D01*
X158701Y123325D01*
X158630Y123260D01*
X158580Y123185D01*
X158549Y123100D01*
X158539Y123005D01*
Y125005D01*
X158549Y124910D01*
D02*
G37*
G36*
X72859Y120744D02*
X72848Y120839D01*
X72818Y120924D01*
X72768Y120999D01*
X72697Y121064D01*
X72606Y121119D01*
X72494Y121164D01*
X72363Y121199D01*
X72211Y121224D01*
X72039Y121239D01*
X71847Y121244D01*
Y122244D01*
X72039Y122249D01*
X72211Y122264D01*
X72363Y122289D01*
X72494Y122324D01*
X72606Y122369D01*
X72697Y122424D01*
X72768Y122489D01*
X72818Y122564D01*
X72848Y122649D01*
X72859Y122744D01*
Y120744D01*
D02*
G37*
G36*
X66742Y122649D02*
X66773Y122564D01*
X66823Y122489D01*
X66894Y122424D01*
X66985Y122369D01*
X67097Y122324D01*
X67228Y122289D01*
X67380Y122264D01*
X67552Y122249D01*
X67744Y122244D01*
Y121244D01*
X67552Y121239D01*
X67380Y121224D01*
X67228Y121199D01*
X67097Y121164D01*
X66985Y121119D01*
X66894Y121064D01*
X66823Y120999D01*
X66773Y120924D01*
X66742Y120839D01*
X66732Y120744D01*
Y122744D01*
X66742Y122649D01*
D02*
G37*
G36*
X200788Y118848D02*
X200288Y118815D01*
X200209Y119415D01*
X199705Y120632D01*
X198903Y121676D01*
X197859Y122478D01*
X196643Y122982D01*
X195837Y123088D01*
Y118110D01*
Y113133D01*
X196643Y113239D01*
X197859Y113743D01*
X198903Y114544D01*
X199705Y115589D01*
X200209Y116805D01*
X200288Y117406D01*
X200788Y117373D01*
Y107047D01*
X200288Y107015D01*
X200209Y107615D01*
X199705Y108832D01*
X198903Y109876D01*
X197859Y110678D01*
X196643Y111181D01*
X195837Y111288D01*
Y106310D01*
Y101333D01*
X196643Y101439D01*
X197859Y101943D01*
X198903Y102744D01*
X199705Y103789D01*
X200209Y105005D01*
X200288Y105606D01*
X200788Y105573D01*
Y90551D01*
X161418D01*
Y121781D01*
X162269Y121950D01*
X162990Y122432D01*
X163472Y123154D01*
X163642Y124005D01*
X179134D01*
X180161Y125032D01*
X180706Y125396D01*
X181070Y125941D01*
X187993Y132863D01*
X200788D01*
Y118848D01*
D02*
G37*
G36*
X118603Y135225D02*
X130807D01*
Y118690D01*
X118603D01*
Y117706D01*
X111615D01*
Y126938D01*
Y131662D01*
X111614Y134182D01*
X111615Y136209D01*
X118603D01*
Y135225D01*
D02*
G37*
G36*
X82665Y116929D02*
X82574Y116926D01*
X82483Y116913D01*
X82393Y116892D01*
X82303Y116863D01*
X82213Y116824D01*
X82125Y116777D01*
X82036Y116720D01*
X81948Y116655D01*
X81860Y116581D01*
X81773Y116499D01*
X81066Y117206D01*
X81148Y117293D01*
X81222Y117381D01*
X81287Y117469D01*
X81343Y117558D01*
X81391Y117647D01*
X81429Y117736D01*
X81459Y117826D01*
X81480Y117916D01*
X81493Y118007D01*
X81496Y118098D01*
X82665Y116929D01*
D02*
G37*
G36*
Y112992D02*
X82574Y112989D01*
X82483Y112976D01*
X82393Y112955D01*
X82303Y112926D01*
X82213Y112887D01*
X82125Y112839D01*
X82036Y112783D01*
X81948Y112718D01*
X81860Y112645D01*
X81773Y112562D01*
X81066Y113269D01*
X81148Y113356D01*
X81222Y113444D01*
X81287Y113532D01*
X81343Y113620D01*
X81391Y113709D01*
X81429Y113799D01*
X81459Y113889D01*
X81480Y113979D01*
X81493Y114070D01*
X81496Y114161D01*
X82665Y112992D01*
D02*
G37*
G36*
Y108071D02*
X82574Y108068D01*
X82483Y108055D01*
X82393Y108034D01*
X82303Y108004D01*
X82213Y107966D01*
X82125Y107918D01*
X82036Y107862D01*
X81948Y107797D01*
X81860Y107723D01*
X81773Y107641D01*
X81066Y108348D01*
X81148Y108435D01*
X81222Y108523D01*
X81287Y108611D01*
X81343Y108699D01*
X81391Y108788D01*
X81429Y108878D01*
X81459Y108968D01*
X81480Y109058D01*
X81493Y109149D01*
X81496Y109240D01*
X82665Y108071D01*
D02*
G37*
G36*
X120947Y102512D02*
X120880Y102573D01*
X120806Y102628D01*
X120727Y102677D01*
X120642Y102719D01*
X120551Y102754D01*
X120455Y102784D01*
X120352Y102806D01*
X120244Y102822D01*
X120130Y102832D01*
X120010Y102835D01*
X119999Y103835D01*
X120119Y103839D01*
X120233Y103849D01*
X120342Y103865D01*
X120444Y103888D01*
X120540Y103918D01*
X120630Y103954D01*
X120715Y103997D01*
X120793Y104047D01*
X120865Y104103D01*
X120932Y104165D01*
X120947Y102512D01*
D02*
G37*
G36*
X117089Y104235D02*
X117127Y104151D01*
X117189Y104077D01*
X117277Y104013D01*
X117390Y103959D01*
X117528Y103914D01*
X117691Y103880D01*
X117878Y103855D01*
X118091Y103840D01*
X118329Y103835D01*
Y102835D01*
X118091Y102831D01*
X117691Y102791D01*
X117528Y102757D01*
X117390Y102712D01*
X117277Y102658D01*
X117189Y102594D01*
X117127Y102520D01*
X117089Y102436D01*
X117077Y102343D01*
Y104328D01*
X117089Y104235D01*
D02*
G37*
G36*
X102780Y95457D02*
X102770Y95552D01*
X102740Y95637D01*
X102689Y95712D01*
X102618Y95777D01*
X102527Y95832D01*
X102416Y95877D01*
X102284Y95912D01*
X102132Y95937D01*
X101960Y95952D01*
X101768Y95957D01*
Y96957D01*
X101960Y96962D01*
X102132Y96977D01*
X102284Y97002D01*
X102416Y97037D01*
X102527Y97082D01*
X102618Y97137D01*
X102689Y97202D01*
X102740Y97277D01*
X102770Y97362D01*
X102780Y97457D01*
Y95457D01*
D02*
G37*
G36*
X138467Y94403D02*
X138514Y94319D01*
X138586Y94245D01*
X138681Y94181D01*
X138800Y94127D01*
X138944Y94083D01*
X139111Y94048D01*
X139302Y94024D01*
X139517Y94009D01*
X139718Y94005D01*
X139809Y94007D01*
X139924Y94017D01*
X140032Y94033D01*
X140134Y94056D01*
X140231Y94086D01*
X140321Y94122D01*
X140406Y94164D01*
X140485Y94213D01*
X140558Y94269D01*
X140625Y94331D01*
Y92677D01*
X140558Y92739D01*
X140485Y92795D01*
X140406Y92844D01*
X140321Y92886D01*
X140231Y92922D01*
X140134Y92952D01*
X140032Y92975D01*
X139924Y92991D01*
X139809Y93001D01*
X139763Y93002D01*
X139623Y92999D01*
X139231Y92959D01*
X139074Y92925D01*
X138943Y92880D01*
X138838Y92826D01*
X138759Y92761D01*
X138706Y92687D01*
X138678Y92603D01*
X138677Y92509D01*
X138443Y94497D01*
X138467Y94403D01*
D02*
G37*
G36*
X120452Y92535D02*
X120381Y92592D01*
X120305Y92643D01*
X120223Y92688D01*
X120136Y92727D01*
X120044Y92760D01*
X119946Y92787D01*
X119842Y92808D01*
X119733Y92823D01*
X119619Y92832D01*
X119499Y92835D01*
X119420Y93835D01*
X119540Y93839D01*
X119654Y93849D01*
X119762Y93867D01*
X119863Y93891D01*
X119957Y93923D01*
X120045Y93961D01*
X120127Y94006D01*
X120202Y94059D01*
X120271Y94118D01*
X120334Y94184D01*
X120452Y92535D01*
D02*
G37*
G36*
X117089Y94235D02*
X117127Y94151D01*
X117189Y94077D01*
X117277Y94013D01*
X117390Y93959D01*
X117528Y93914D01*
X117691Y93880D01*
X117878Y93855D01*
X118091Y93840D01*
X118329Y93835D01*
Y92835D01*
X118091Y92830D01*
X117691Y92791D01*
X117528Y92757D01*
X117390Y92712D01*
X117277Y92658D01*
X117189Y92594D01*
X117127Y92520D01*
X117089Y92436D01*
X117077Y92343D01*
Y94328D01*
X117089Y94235D01*
D02*
G37*
G36*
X113239Y92343D02*
X113227Y92436D01*
X113189Y92520D01*
X113126Y92594D01*
X113039Y92658D01*
X112926Y92712D01*
X112788Y92757D01*
X112625Y92791D01*
X112437Y92816D01*
X112224Y92830D01*
X111986Y92835D01*
Y93835D01*
X112224Y93840D01*
X112625Y93880D01*
X112788Y93914D01*
X112926Y93959D01*
X113039Y94013D01*
X113126Y94077D01*
X113189Y94151D01*
X113227Y94235D01*
X113239Y94328D01*
Y92343D01*
D02*
G37*
G36*
X56106Y96443D02*
X56208Y94911D01*
X56260Y94764D01*
X56457Y94468D01*
X56732Y94213D01*
X57087Y93996D01*
X57520Y93819D01*
X58031Y93681D01*
X58622Y93583D01*
X59291Y93524D01*
X60039Y93504D01*
X59870Y89567D01*
X59095Y89539D01*
X58342Y89456D01*
X57612Y89316D01*
X56905Y89122D01*
X56222Y88871D01*
X55561Y88565D01*
X54924Y88203D01*
X54309Y87785D01*
X53718Y87312D01*
X53150Y86783D01*
X55118Y91535D01*
X55466Y92927D01*
X53725D01*
X53803Y93043D01*
X53872Y93227D01*
X53934Y93481D01*
X53987Y93803D01*
X54068Y94653D01*
X54130Y96443D01*
X54134Y97177D01*
X56102D01*
X56106Y96443D01*
D02*
G37*
G36*
X140889Y83786D02*
X140822Y83848D01*
X140749Y83904D01*
X140670Y83953D01*
X140585Y83995D01*
X140495Y84031D01*
X140398Y84061D01*
X140296Y84083D01*
X140188Y84100D01*
X140074Y84110D01*
X139954Y84113D01*
Y85113D01*
X140074Y85116D01*
X140188Y85126D01*
X140296Y85142D01*
X140398Y85165D01*
X140495Y85194D01*
X140585Y85230D01*
X140670Y85273D01*
X140749Y85322D01*
X140822Y85378D01*
X140889Y85440D01*
Y83786D01*
D02*
G37*
G36*
X66850Y81904D02*
X66765Y81873D01*
X66690Y81823D01*
X66625Y81752D01*
X66570Y81661D01*
X66525Y81550D01*
X66490Y81418D01*
X66465Y81266D01*
X66450Y81094D01*
X66445Y80902D01*
X65445D01*
X65440Y81094D01*
X65425Y81266D01*
X65400Y81418D01*
X65365Y81550D01*
X65320Y81661D01*
X65265Y81752D01*
X65200Y81823D01*
X65125Y81873D01*
X65040Y81904D01*
X64945Y81914D01*
X66945D01*
X66850Y81904D01*
D02*
G37*
G36*
X137316Y81513D02*
X137331Y81341D01*
X137356Y81189D01*
X137391Y81058D01*
X137436Y80946D01*
X137491Y80855D01*
X137556Y80784D01*
X137631Y80734D01*
X137716Y80703D01*
X137811Y80693D01*
X135811D01*
X135906Y80703D01*
X135991Y80734D01*
X136066Y80784D01*
X136131Y80855D01*
X136186Y80946D01*
X136231Y81058D01*
X136266Y81189D01*
X136291Y81341D01*
X136306Y81513D01*
X136311Y81705D01*
X137311D01*
X137316Y81513D01*
D02*
G37*
G36*
X172268Y77740D02*
X172258Y77835D01*
X172228Y77920D01*
X172177Y77995D01*
X172107Y78060D01*
X172016Y78115D01*
X171904Y78160D01*
X171773Y78195D01*
X171697Y78207D01*
X171609Y78188D01*
X171513Y78158D01*
X171422Y78123D01*
X171338Y78080D01*
X171259Y78031D01*
X171186Y77975D01*
X171119Y77913D01*
Y79567D01*
X171186Y79505D01*
X171259Y79449D01*
X171338Y79400D01*
X171422Y79358D01*
X171513Y79322D01*
X171609Y79292D01*
X171697Y79273D01*
X171773Y79285D01*
X171904Y79320D01*
X172016Y79365D01*
X172107Y79420D01*
X172177Y79485D01*
X172228Y79560D01*
X172258Y79645D01*
X172268Y79740D01*
Y77740D01*
D02*
G37*
G36*
X66450Y78578D02*
X66465Y78408D01*
X66490Y78258D01*
X66525Y78128D01*
X66570Y78018D01*
X66625Y77928D01*
X66690Y77858D01*
X66765Y77808D01*
X66850Y77778D01*
X66945Y77768D01*
X64945D01*
X65040Y77778D01*
X65125Y77808D01*
X65200Y77858D01*
X65265Y77928D01*
X65320Y78018D01*
X65365Y78128D01*
X65400Y78258D01*
X65425Y78408D01*
X65440Y78578D01*
X65445Y78768D01*
X66445D01*
X66450Y78578D01*
D02*
G37*
G36*
X57997Y75568D02*
X58070Y75512D01*
X58149Y75463D01*
X58233Y75421D01*
X58324Y75385D01*
X58420Y75355D01*
X58523Y75333D01*
X58631Y75316D01*
X58745Y75306D01*
X58865Y75303D01*
Y74303D01*
X58745Y74300D01*
X58631Y74290D01*
X58523Y74274D01*
X58420Y74251D01*
X58324Y74221D01*
X58233Y74186D01*
X58149Y74143D01*
X58070Y74094D01*
X57997Y74038D01*
X57930Y73976D01*
Y75630D01*
X57997Y75568D01*
D02*
G37*
G36*
X63677Y73807D02*
X63667Y73901D01*
X63637Y73986D01*
X63587Y74060D01*
X63517Y74124D01*
X63427Y74179D01*
X63317Y74224D01*
X63187Y74259D01*
X63037Y74283D01*
X62867Y74298D01*
X62677Y74303D01*
Y75303D01*
X62869Y75308D01*
X63040Y75323D01*
X63192Y75348D01*
X63323Y75383D01*
X63435Y75428D01*
X63526Y75483D01*
X63597Y75548D01*
X63648Y75623D01*
X63678Y75708D01*
X63689Y75803D01*
X63677Y73807D01*
D02*
G37*
G36*
X161028Y89609D02*
X161418Y89532D01*
X188893D01*
Y85146D01*
X194815D01*
Y84646D01*
X195315D01*
Y79315D01*
X200119D01*
X200345Y78815D01*
X200301Y78764D01*
X187993D01*
X187602Y78687D01*
X187271Y78466D01*
X181634Y72828D01*
X181033Y72934D01*
X180706Y73423D01*
X179985Y73905D01*
X179134Y74074D01*
X179086Y74065D01*
X178982Y74134D01*
X178358Y74258D01*
X177181D01*
Y75458D01*
X177181Y75595D01*
Y75958D01*
X177181Y76095D01*
Y81894D01*
X171245D01*
Y81271D01*
X170745Y80871D01*
X170276Y80964D01*
X169425Y80795D01*
X168703Y80313D01*
X168221Y79591D01*
X168052Y78740D01*
X168221Y77889D01*
X168703Y77168D01*
X169425Y76686D01*
X170276Y76516D01*
X170745Y76610D01*
X171245Y76209D01*
X171245Y75958D01*
Y75595D01*
X171245Y75458D01*
Y74258D01*
X170193D01*
Y74808D01*
X164059D01*
Y73295D01*
X163559Y73246D01*
X163472Y73686D01*
X162990Y74407D01*
X162268Y74889D01*
X161417Y75059D01*
X160566Y74889D01*
X160063Y74553D01*
X159563Y74808D01*
Y74808D01*
X153429D01*
Y71068D01*
X153429D01*
Y66706D01*
X153429D01*
Y65646D01*
X156496D01*
X159563D01*
Y66732D01*
X159981Y66984D01*
X160204Y66894D01*
X160418Y66755D01*
Y66707D01*
X160398Y66608D01*
Y35433D01*
X141732D01*
Y36215D01*
X142319Y36331D01*
X143041Y36813D01*
X143523Y37535D01*
X143692Y38386D01*
X143523Y39237D01*
X143041Y39958D01*
X142319Y40440D01*
X141732Y40557D01*
Y58847D01*
X135228D01*
X135036Y59309D01*
X137688Y61961D01*
X140666D01*
Y63839D01*
X137205D01*
X136674D01*
X138623Y62985D01*
X138423Y63047D01*
X138205Y63064D01*
X137970Y63036D01*
X137717Y62963D01*
X137447Y62845D01*
X137160Y62682D01*
X136856Y62474D01*
X136534Y62221D01*
X136195Y61924D01*
X135839Y61581D01*
X133364Y61891D01*
X133804Y62344D01*
X134484Y63134D01*
X134724Y63471D01*
X134897Y63768D01*
X134927Y63839D01*
X133745D01*
Y63740D01*
X132352Y62347D01*
X131890Y62538D01*
Y77548D01*
X133391D01*
X133745Y77195D01*
Y76961D01*
X133745Y76461D01*
Y74839D01*
X137205D01*
X140666D01*
Y76461D01*
X140666Y76717D01*
X140666Y77048D01*
X141029Y77548D01*
X141732D01*
Y82389D01*
X142583Y82558D01*
X143305Y83040D01*
X143787Y83762D01*
X143956Y84613D01*
X143787Y85464D01*
X143305Y86185D01*
X142583Y86667D01*
X141732Y86837D01*
Y89532D01*
X160398D01*
X160788Y89609D01*
X160908Y89689D01*
X161028Y89609D01*
D02*
G37*
G36*
X160732Y71872D02*
X160659Y71921D01*
X160579Y71964D01*
X160495Y72002D01*
X160406Y72035D01*
X160311Y72063D01*
X160212Y72086D01*
X160107Y72104D01*
X159998Y72117D01*
X159763Y72127D01*
X159564Y73127D01*
X159685Y73131D01*
X159799Y73142D01*
X159905Y73160D01*
X160003Y73186D01*
X160095Y73220D01*
X160179Y73261D01*
X160256Y73310D01*
X160325Y73366D01*
X160387Y73429D01*
X160442Y73500D01*
X160732Y71872D01*
D02*
G37*
G36*
X176170Y73713D02*
X176206Y73611D01*
X176267Y73521D01*
X176351Y73443D01*
X176461Y73377D01*
X176594Y73323D01*
X176751Y73281D01*
X176933Y73251D01*
X177139Y73233D01*
X177369Y73227D01*
Y72511D01*
X177535Y73227D01*
X178905Y73009D01*
X177955Y71782D01*
X177945Y71828D01*
X177922Y71870D01*
X177886Y71907D01*
X177836Y71939D01*
X177773Y71965D01*
X177697Y71988D01*
X177607Y72005D01*
X177504Y72017D01*
X177387Y72024D01*
X177322Y72026D01*
X177139Y72021D01*
X176933Y72003D01*
X176751Y71973D01*
X176594Y71931D01*
X176461Y71877D01*
X176351Y71811D01*
X176267Y71733D01*
X176206Y71643D01*
X176170Y71541D01*
X176157Y71427D01*
Y73827D01*
X176170Y73713D01*
D02*
G37*
G36*
X158549Y73532D02*
X158580Y73447D01*
X158630Y73372D01*
X158701Y73307D01*
X158792Y73252D01*
X158904Y73207D01*
X159035Y73172D01*
X159187Y73147D01*
X159359Y73132D01*
X159551Y73127D01*
Y72127D01*
X159359Y72122D01*
X159187Y72107D01*
X159035Y72082D01*
X158904Y72047D01*
X158792Y72002D01*
X158701Y71947D01*
X158630Y71882D01*
X158580Y71807D01*
X158549Y71722D01*
X158539Y71627D01*
Y73627D01*
X158549Y73532D01*
D02*
G37*
G36*
X169193Y73688D02*
X169229Y73591D01*
X169289Y73506D01*
X169373Y73432D01*
X169481Y73369D01*
X169613Y73318D01*
X169769Y73278D01*
X169949Y73250D01*
X170153Y73232D01*
X170381Y73227D01*
Y72027D01*
X170153Y72021D01*
X169949Y72004D01*
X169769Y71975D01*
X169613Y71936D01*
X169481Y71885D01*
X169373Y71822D01*
X169289Y71748D01*
X169229Y71662D01*
X169193Y71566D01*
X169181Y71458D01*
Y73796D01*
X169193Y73688D01*
D02*
G37*
G36*
X172268Y71427D02*
X172256Y71541D01*
X172220Y71643D01*
X172159Y71733D01*
X172074Y71811D01*
X171966Y71877D01*
X171832Y71931D01*
X171675Y71973D01*
X171493Y72003D01*
X171287Y72021D01*
X171056Y72027D01*
Y73227D01*
X171287Y73233D01*
X171493Y73251D01*
X171675Y73281D01*
X171832Y73323D01*
X171966Y73377D01*
X172074Y73443D01*
X172159Y73521D01*
X172220Y73611D01*
X172256Y73713D01*
X172268Y73827D01*
Y71427D01*
D02*
G37*
G36*
X158549Y69792D02*
X158580Y69707D01*
X158630Y69632D01*
X158701Y69567D01*
X158792Y69512D01*
X158904Y69467D01*
X159035Y69432D01*
X159187Y69407D01*
X159359Y69392D01*
X159551Y69387D01*
Y68593D01*
X159603Y69387D01*
X159722Y69390D01*
X159837Y69399D01*
X159946Y69414D01*
X160049Y69436D01*
X160147Y69463D01*
X160239Y69497D01*
X160326Y69536D01*
X160407Y69582D01*
X160482Y69634D01*
X160553Y69692D01*
X160456Y68041D01*
X160393Y68107D01*
X160323Y68166D01*
X160247Y68217D01*
X160165Y68262D01*
X160076Y68300D01*
X159981Y68331D01*
X159880Y68356D01*
X159772Y68373D01*
X159658Y68383D01*
X159544Y68386D01*
X159359Y68382D01*
X159187Y68367D01*
X159035Y68342D01*
X158904Y68307D01*
X158792Y68262D01*
X158701Y68207D01*
X158630Y68142D01*
X158580Y68067D01*
X158549Y67982D01*
X158539Y67887D01*
Y69887D01*
X158549Y69792D01*
D02*
G37*
G36*
X200788Y63729D02*
X200288Y63697D01*
X200209Y64297D01*
X199705Y65514D01*
X198903Y66558D01*
X197859Y67360D01*
X196643Y67863D01*
X195837Y67969D01*
Y62992D01*
Y58015D01*
X196643Y58121D01*
X197859Y58625D01*
X198903Y59426D01*
X199705Y60471D01*
X200209Y61687D01*
X200288Y62288D01*
X200788Y62255D01*
Y51929D01*
X200288Y51897D01*
X200209Y52497D01*
X199705Y53714D01*
X198903Y54758D01*
X197859Y55560D01*
X196643Y56063D01*
X195837Y56169D01*
Y51192D01*
Y46215D01*
X196643Y46321D01*
X197859Y46825D01*
X198903Y47626D01*
X199705Y48671D01*
X200209Y49887D01*
X200288Y50488D01*
X200788Y50455D01*
Y35433D01*
X161418D01*
Y66608D01*
X162197Y66763D01*
X162919Y67245D01*
X163401Y67967D01*
X163570Y68818D01*
X163627Y68887D01*
X179134D01*
X180161Y69914D01*
X180706Y70278D01*
X181070Y70823D01*
X187993Y77745D01*
X200788D01*
Y63729D01*
D02*
G37*
G36*
X118603Y80107D02*
X130807D01*
Y63572D01*
X118603D01*
Y62587D01*
X111615Y62587D01*
Y71820D01*
X111615Y76544D01*
X111614Y79064D01*
X111615Y81091D01*
X118603D01*
Y80107D01*
D02*
G37*
G36*
X67937Y61992D02*
X67927Y62087D01*
X67897Y62172D01*
X67846Y62247D01*
X67775Y62312D01*
X67684Y62367D01*
X67573Y62412D01*
X67441Y62447D01*
X67290Y62472D01*
X67118Y62487D01*
X66925Y62492D01*
Y63492D01*
X67118Y63497D01*
X67290Y63512D01*
X67441Y63537D01*
X67573Y63572D01*
X67684Y63617D01*
X67775Y63672D01*
X67846Y63737D01*
X67897Y63812D01*
X67927Y63897D01*
X67937Y63992D01*
Y61992D01*
D02*
G37*
G36*
X56613Y56733D02*
X56523Y56639D01*
X56378Y56466D01*
X56323Y56386D01*
X56281Y56312D01*
X56251Y56242D01*
X56232Y56177D01*
X56226Y56117D01*
X56231Y56063D01*
X56249Y56012D01*
X55186Y57076D01*
X55236Y57058D01*
X55291Y57052D01*
X55351Y57059D01*
X55415Y57077D01*
X55485Y57108D01*
X55559Y57150D01*
X55639Y57205D01*
X55723Y57271D01*
X55812Y57350D01*
X55906Y57440D01*
X56613Y56733D01*
D02*
G37*
G36*
X67937Y56087D02*
X67927Y56182D01*
X67897Y56267D01*
X67846Y56342D01*
X67775Y56407D01*
X67684Y56462D01*
X67573Y56507D01*
X67441Y56542D01*
X67290Y56567D01*
X67118Y56582D01*
X66925Y56587D01*
Y57587D01*
X67118Y57592D01*
X67290Y57607D01*
X67441Y57632D01*
X67573Y57667D01*
X67684Y57712D01*
X67775Y57767D01*
X67846Y57832D01*
X67897Y57907D01*
X67927Y57992D01*
X67937Y58087D01*
Y56087D01*
D02*
G37*
G36*
X120947Y47394D02*
X120880Y47455D01*
X120806Y47510D01*
X120727Y47559D01*
X120642Y47601D01*
X120551Y47636D01*
X120455Y47666D01*
X120352Y47688D01*
X120244Y47704D01*
X120130Y47714D01*
X120010Y47717D01*
X119999Y48717D01*
X120119Y48721D01*
X120233Y48730D01*
X120342Y48747D01*
X120444Y48770D01*
X120540Y48800D01*
X120630Y48836D01*
X120715Y48879D01*
X120793Y48928D01*
X120865Y48985D01*
X120932Y49047D01*
X120947Y47394D01*
D02*
G37*
G36*
X117089Y49116D02*
X117127Y49033D01*
X117189Y48959D01*
X117277Y48895D01*
X117390Y48840D01*
X117528Y48796D01*
X117691Y48762D01*
X117878Y48737D01*
X118091Y48722D01*
X118329Y48717D01*
Y47717D01*
X118091Y47712D01*
X117691Y47673D01*
X117528Y47638D01*
X117390Y47594D01*
X117277Y47540D01*
X117189Y47476D01*
X117127Y47402D01*
X117089Y47318D01*
X117077Y47225D01*
Y49210D01*
X117089Y49116D01*
D02*
G37*
G36*
X81026Y47099D02*
X82232D01*
X82003Y47059D01*
X81797Y46941D01*
X81616Y46744D01*
X81459Y46469D01*
X81326Y46114D01*
X81217Y45681D01*
X81154Y45298D01*
X81227Y44829D01*
X81481Y43730D01*
X81646Y43203D01*
X81836Y42691D01*
X82052Y42194D01*
X82293Y41711D01*
X75817D01*
X76058Y42194D01*
X76274Y42691D01*
X76464Y43203D01*
X76630Y43730D01*
X76884Y44829D01*
X76929Y45120D01*
X76921Y45169D01*
X76793Y45681D01*
X76627Y46114D01*
X76425Y46469D01*
X76186Y46744D01*
X75910Y46941D01*
X75598Y47059D01*
X75248Y47099D01*
X77084D01*
X77087Y47204D01*
X81024D01*
X81026Y47099D01*
D02*
G37*
G36*
X102780Y40339D02*
X102770Y40434D01*
X102740Y40519D01*
X102689Y40594D01*
X102618Y40659D01*
X102527Y40714D01*
X102416Y40759D01*
X102284Y40794D01*
X102132Y40819D01*
X101960Y40834D01*
X101768Y40839D01*
Y41839D01*
X101960Y41844D01*
X102132Y41859D01*
X102284Y41884D01*
X102416Y41919D01*
X102527Y41964D01*
X102618Y42019D01*
X102689Y42084D01*
X102740Y42159D01*
X102770Y42244D01*
X102780Y42339D01*
Y40339D01*
D02*
G37*
G36*
X138467Y39285D02*
X138514Y39201D01*
X138586Y39127D01*
X138681Y39063D01*
X138800Y39009D01*
X138944Y38965D01*
X139111Y38930D01*
X139302Y38906D01*
X139517Y38891D01*
X139718Y38887D01*
X139809Y38889D01*
X139924Y38899D01*
X140032Y38915D01*
X140134Y38938D01*
X140231Y38967D01*
X140321Y39004D01*
X140406Y39046D01*
X140485Y39095D01*
X140558Y39151D01*
X140625Y39213D01*
Y37559D01*
X140558Y37621D01*
X140485Y37677D01*
X140406Y37726D01*
X140321Y37768D01*
X140231Y37804D01*
X140134Y37834D01*
X140032Y37856D01*
X139924Y37873D01*
X139809Y37883D01*
X139763Y37884D01*
X139623Y37881D01*
X139231Y37841D01*
X139074Y37807D01*
X138943Y37762D01*
X138838Y37707D01*
X138759Y37643D01*
X138706Y37569D01*
X138678Y37485D01*
X138677Y37390D01*
X138443Y39378D01*
X138467Y39285D01*
D02*
G37*
G36*
X121204Y37559D02*
X121137Y37621D01*
X121064Y37677D01*
X120985Y37726D01*
X120900Y37768D01*
X120810Y37804D01*
X120713Y37834D01*
X120611Y37856D01*
X120503Y37873D01*
X120389Y37883D01*
X120268Y37886D01*
Y38886D01*
X120389Y38889D01*
X120503Y38899D01*
X120611Y38915D01*
X120713Y38938D01*
X120810Y38967D01*
X120900Y39004D01*
X120985Y39046D01*
X121064Y39095D01*
X121137Y39151D01*
X121204Y39213D01*
Y37559D01*
D02*
G37*
G36*
X116971Y39285D02*
X117018Y39201D01*
X117090Y39127D01*
X117185Y39063D01*
X117304Y39009D01*
X117447Y38965D01*
X117615Y38930D01*
X117806Y38906D01*
X118021Y38891D01*
X118260Y38886D01*
X118362Y37886D01*
X118127Y37881D01*
X117735Y37841D01*
X117578Y37807D01*
X117447Y37762D01*
X117342Y37707D01*
X117263Y37643D01*
X117210Y37569D01*
X117182Y37485D01*
X117181Y37390D01*
X116947Y39378D01*
X116971Y39285D01*
D02*
G37*
G36*
X113239Y37225D02*
X113227Y37318D01*
X113189Y37402D01*
X113126Y37476D01*
X113039Y37540D01*
X112926Y37594D01*
X112788Y37639D01*
X112625Y37673D01*
X112437Y37698D01*
X112224Y37712D01*
X111986Y37717D01*
Y38717D01*
X112224Y38722D01*
X112625Y38762D01*
X112788Y38796D01*
X112926Y38840D01*
X113039Y38895D01*
X113126Y38959D01*
X113189Y39033D01*
X113227Y39116D01*
X113239Y39210D01*
Y37225D01*
D02*
G37*
G36*
X30312Y37143D02*
X30389Y37095D01*
X30473Y37054D01*
X30561Y37018D01*
X30655Y36987D01*
X30754Y36962D01*
X30858Y36942D01*
X30967Y36928D01*
X31082Y36920D01*
X31201Y36917D01*
X31340Y35917D01*
X31220Y35914D01*
X31106Y35903D01*
X30999Y35885D01*
X30899Y35859D01*
X30806Y35827D01*
X30720Y35787D01*
X30641Y35740D01*
X30569Y35685D01*
X30503Y35624D01*
X30444Y35555D01*
X30239Y37196D01*
X30312Y37143D01*
D02*
G37*
G36*
X32571Y35417D02*
X32561Y35512D01*
X32531Y35597D01*
X32480Y35672D01*
X32409Y35737D01*
X32318Y35792D01*
X32207Y35837D01*
X32075Y35872D01*
X31923Y35897D01*
X31751Y35912D01*
X31559Y35917D01*
Y36917D01*
X31751Y36922D01*
X31923Y36937D01*
X32075Y36962D01*
X32207Y36997D01*
X32318Y37042D01*
X32409Y37097D01*
X32480Y37162D01*
X32531Y37237D01*
X32561Y37322D01*
X32571Y37417D01*
Y35417D01*
D02*
G37*
G36*
X42425Y34437D02*
X42323Y34400D01*
X42233Y34340D01*
X42155Y34255D01*
X42089Y34146D01*
X42035Y34013D01*
X41993Y33855D01*
X41963Y33673D01*
X41945Y33467D01*
X41939Y33237D01*
X40739D01*
X40733Y33467D01*
X40715Y33673D01*
X40685Y33855D01*
X40643Y34013D01*
X40589Y34146D01*
X40523Y34255D01*
X40445Y34340D01*
X40355Y34400D01*
X40253Y34437D01*
X40139Y34449D01*
X42539D01*
X42425Y34437D01*
D02*
G37*
G36*
X41949Y28689D02*
X41981Y28491D01*
X42033Y28292D01*
X42107Y28092D01*
X42202Y27891D01*
X42318Y27689D01*
X42455Y27486D01*
X42613Y27282D01*
X42792Y27077D01*
X42992Y26871D01*
X39685D01*
X39885Y27077D01*
X40064Y27282D01*
X40222Y27486D01*
X40359Y27689D01*
X40475Y27891D01*
X40570Y28092D01*
X40644Y28292D01*
X40696Y28491D01*
X40728Y28689D01*
X40739Y28886D01*
X41939D01*
X41949Y28689D01*
D02*
G37*
G36*
X140340Y25511D02*
X140371Y25426D01*
X140421Y25351D01*
X140492Y25286D01*
X140583Y25231D01*
X140695Y25186D01*
X140826Y25151D01*
X140978Y25126D01*
X141114Y25114D01*
X141172Y25119D01*
X141280Y25136D01*
X141383Y25159D01*
X141479Y25188D01*
X141570Y25224D01*
X141654Y25266D01*
X141733Y25315D01*
X141806Y25371D01*
X141873Y25433D01*
X141873Y23779D01*
X141806Y23842D01*
X141733Y23897D01*
X141654Y23946D01*
X141570Y23989D01*
X141479Y24025D01*
X141383Y24054D01*
X141280Y24077D01*
X141172Y24093D01*
X141114Y24098D01*
X140978Y24086D01*
X140826Y24061D01*
X140695Y24026D01*
X140583Y23981D01*
X140492Y23926D01*
X140421Y23861D01*
X140371Y23786D01*
X140340Y23701D01*
X140330Y23606D01*
Y25606D01*
X140340Y25511D01*
D02*
G37*
G36*
X131323Y23606D02*
X131313Y23701D01*
X131283Y23786D01*
X131232Y23861D01*
X131161Y23926D01*
X131070Y23981D01*
X130959Y24026D01*
X130827Y24061D01*
X130675Y24086D01*
X130503Y24101D01*
X130311Y24106D01*
Y25106D01*
X130503Y25111D01*
X130675Y25126D01*
X130827Y25151D01*
X130959Y25186D01*
X131070Y25231D01*
X131161Y25286D01*
X131232Y25351D01*
X131283Y25426D01*
X131313Y25511D01*
X131323Y25606D01*
Y23606D01*
D02*
G37*
G36*
X127932Y25511D02*
X127963Y25426D01*
X128013Y25351D01*
X128084Y25286D01*
X128175Y25231D01*
X128286Y25186D01*
X128418Y25151D01*
X128570Y25126D01*
X128742Y25111D01*
X128934Y25106D01*
Y24106D01*
X128742Y24101D01*
X128570Y24086D01*
X128418Y24061D01*
X128286Y24026D01*
X128175Y23981D01*
X128084Y23926D01*
X128013Y23861D01*
X127963Y23786D01*
X127932Y23701D01*
X127922Y23606D01*
Y25606D01*
X127932Y25511D01*
D02*
G37*
G36*
X117081Y23606D02*
X117071Y23701D01*
X117041Y23786D01*
X116990Y23861D01*
X116919Y23926D01*
X116828Y23981D01*
X116717Y24026D01*
X116585Y24061D01*
X116433Y24086D01*
X116261Y24101D01*
X116069Y24106D01*
Y25106D01*
X116261Y25111D01*
X116433Y25126D01*
X116585Y25151D01*
X116717Y25186D01*
X116828Y25231D01*
X116919Y25286D01*
X116990Y25351D01*
X117041Y25426D01*
X117071Y25511D01*
X117081Y25606D01*
Y23606D01*
D02*
G37*
G36*
X140340Y16653D02*
X140371Y16568D01*
X140421Y16493D01*
X140492Y16428D01*
X140583Y16373D01*
X140695Y16328D01*
X140826Y16293D01*
X140978Y16268D01*
X141114Y16256D01*
X141172Y16261D01*
X141280Y16277D01*
X141383Y16300D01*
X141479Y16330D01*
X141570Y16366D01*
X141654Y16408D01*
X141733Y16457D01*
X141806Y16513D01*
X141873Y16575D01*
Y14921D01*
X141806Y14983D01*
X141733Y15039D01*
X141654Y15088D01*
X141570Y15130D01*
X141479Y15166D01*
X141383Y15196D01*
X141280Y15219D01*
X141172Y15235D01*
X141114Y15240D01*
X140978Y15228D01*
X140826Y15203D01*
X140695Y15168D01*
X140583Y15123D01*
X140492Y15068D01*
X140421Y15003D01*
X140371Y14928D01*
X140340Y14843D01*
X140330Y14748D01*
Y16748D01*
X140340Y16653D01*
D02*
G37*
G36*
X131323Y14748D02*
X131313Y14843D01*
X131283Y14928D01*
X131232Y15003D01*
X131161Y15068D01*
X131070Y15123D01*
X130959Y15168D01*
X130827Y15203D01*
X130675Y15228D01*
X130503Y15243D01*
X130311Y15248D01*
Y16248D01*
X130503Y16253D01*
X130675Y16268D01*
X130827Y16293D01*
X130959Y16328D01*
X131070Y16373D01*
X131161Y16428D01*
X131232Y16493D01*
X131283Y16568D01*
X131313Y16653D01*
X131323Y16748D01*
Y14748D01*
D02*
G37*
G36*
X127557Y16653D02*
X127587Y16568D01*
X127637Y16493D01*
X127707Y16428D01*
X127797Y16373D01*
X127907Y16328D01*
X128037Y16293D01*
X128187Y16268D01*
X128357Y16253D01*
X128547Y16248D01*
Y15248D01*
X128357Y15243D01*
X128187Y15228D01*
X128037Y15203D01*
X127907Y15168D01*
X127797Y15123D01*
X127707Y15068D01*
X127637Y15003D01*
X127587Y14928D01*
X127557Y14843D01*
X127547Y14748D01*
Y16748D01*
X127557Y16653D01*
D02*
G37*
G36*
X118528Y14748D02*
X118518Y14843D01*
X118488Y14928D01*
X118437Y15003D01*
X118366Y15068D01*
X118275Y15123D01*
X118164Y15168D01*
X118032Y15203D01*
X117880Y15228D01*
X117708Y15243D01*
X117516Y15248D01*
Y16248D01*
X117708Y16253D01*
X117880Y16268D01*
X118032Y16293D01*
X118164Y16328D01*
X118275Y16373D01*
X118366Y16428D01*
X118437Y16493D01*
X118488Y16568D01*
X118518Y16653D01*
X118528Y16748D01*
Y14748D01*
D02*
G37*
G36*
X42773Y13273D02*
X42404Y12839D01*
X42254Y12628D01*
X42127Y12422D01*
X42023Y12220D01*
X41942Y12023D01*
X41885Y11830D01*
X41850Y11642D01*
X41839Y11458D01*
X40839D01*
X40827Y11642D01*
X40792Y11830D01*
X40735Y12023D01*
X40654Y12220D01*
X40550Y12422D01*
X40423Y12628D01*
X40273Y12839D01*
X40100Y13054D01*
X39685Y13497D01*
X42992D01*
X42773Y13273D01*
D02*
G37*
G36*
X140340Y8779D02*
X140371Y8694D01*
X140421Y8619D01*
X140492Y8554D01*
X140583Y8499D01*
X140695Y8454D01*
X140826Y8419D01*
X140978Y8394D01*
X141114Y8382D01*
X141172Y8387D01*
X141280Y8403D01*
X141383Y8426D01*
X141479Y8456D01*
X141570Y8492D01*
X141654Y8534D01*
X141733Y8583D01*
X141806Y8639D01*
X141873Y8701D01*
Y7047D01*
X141806Y7109D01*
X141733Y7165D01*
X141654Y7214D01*
X141570Y7256D01*
X141479Y7292D01*
X141383Y7322D01*
X141280Y7345D01*
X141172Y7361D01*
X141114Y7366D01*
X140978Y7354D01*
X140826Y7329D01*
X140695Y7294D01*
X140583Y7249D01*
X140492Y7194D01*
X140421Y7129D01*
X140371Y7054D01*
X140340Y6969D01*
X140330Y6874D01*
Y8874D01*
X140340Y8779D01*
D02*
G37*
G36*
X131323Y6874D02*
X131313Y6969D01*
X131283Y7054D01*
X131232Y7129D01*
X131161Y7194D01*
X131070Y7249D01*
X130959Y7294D01*
X130827Y7329D01*
X130675Y7354D01*
X130503Y7369D01*
X130311Y7374D01*
Y8374D01*
X130503Y8379D01*
X130675Y8394D01*
X130827Y8419D01*
X130959Y8454D01*
X131070Y8499D01*
X131161Y8554D01*
X131232Y8619D01*
X131283Y8694D01*
X131313Y8779D01*
X131323Y8874D01*
Y6874D01*
D02*
G37*
G36*
X127557Y8779D02*
X127587Y8694D01*
X127637Y8619D01*
X127707Y8554D01*
X127797Y8499D01*
X127907Y8454D01*
X128037Y8419D01*
X128187Y8394D01*
X128357Y8379D01*
X128547Y8374D01*
Y7374D01*
X128357Y7369D01*
X128187Y7354D01*
X128037Y7329D01*
X127907Y7294D01*
X127797Y7249D01*
X127707Y7194D01*
X127637Y7129D01*
X127587Y7054D01*
X127557Y6969D01*
X127547Y6874D01*
Y8874D01*
X127557Y8779D01*
D02*
G37*
G36*
X118528Y6874D02*
X118518Y6969D01*
X118488Y7054D01*
X118437Y7129D01*
X118366Y7194D01*
X118275Y7249D01*
X118164Y7294D01*
X118032Y7329D01*
X117880Y7354D01*
X117708Y7369D01*
X117516Y7374D01*
Y8374D01*
X117708Y8379D01*
X117880Y8394D01*
X118032Y8419D01*
X118164Y8454D01*
X118275Y8499D01*
X118366Y8554D01*
X118437Y8619D01*
X118488Y8694D01*
X118518Y8779D01*
X118528Y8874D01*
Y6874D01*
D02*
G37*
G36*
X45190Y6701D02*
X45205Y6529D01*
X45230Y6377D01*
X45265Y6246D01*
X45310Y6134D01*
X45365Y6043D01*
X45430Y5973D01*
X45505Y5922D01*
X45590Y5892D01*
X45685Y5881D01*
X43685D01*
X43780Y5892D01*
X43865Y5922D01*
X43940Y5973D01*
X44005Y6043D01*
X44060Y6134D01*
X44105Y6246D01*
X44140Y6377D01*
X44165Y6529D01*
X44180Y6701D01*
X44185Y6893D01*
X45185D01*
X45190Y6701D01*
D02*
G37*
G36*
X171252Y6199D02*
X171287Y6115D01*
X171346Y6041D01*
X171427Y5977D01*
X171532Y5922D01*
X171661Y5878D01*
X171813Y5843D01*
X171988Y5818D01*
X172186Y5804D01*
X172408Y5799D01*
Y4800D01*
X172186Y4795D01*
X171988Y4780D01*
X171813Y4755D01*
X171661Y4721D01*
X171532Y4676D01*
X171427Y4622D01*
X171346Y4557D01*
X171287Y4483D01*
X171252Y4399D01*
X171241Y4305D01*
Y6294D01*
X171252Y6199D01*
D02*
G37*
G36*
X196677Y4299D02*
X196667Y4394D01*
X196637Y4479D01*
X196587Y4554D01*
X196516Y4619D01*
X196424Y4674D01*
X196313Y4719D01*
X196182Y4754D01*
X196030Y4779D01*
X195858Y4794D01*
X195666Y4799D01*
Y5799D01*
X195858Y5804D01*
X196030Y5819D01*
X196182Y5844D01*
X196313Y5879D01*
X196424Y5924D01*
X196516Y5979D01*
X196587Y6044D01*
X196637Y6119D01*
X196667Y6204D01*
X196677Y6299D01*
Y4299D01*
D02*
G37*
G36*
X164323Y3520D02*
X164278Y3613D01*
X164212Y3697D01*
X164125Y3771D01*
X164018Y3835D01*
X163890Y3889D01*
X163742Y3933D01*
X163573Y3968D01*
X163383Y3992D01*
X163173Y4007D01*
X162942Y4012D01*
X162611Y5012D01*
X162833Y5017D01*
X163029Y5032D01*
X163198Y5057D01*
X163339Y5092D01*
X163453Y5137D01*
X163540Y5191D01*
X163599Y5256D01*
X163632Y5331D01*
X163637Y5416D01*
X163615Y5511D01*
X164323Y3520D01*
D02*
G37*
G36*
X158451Y5417D02*
X158481Y5332D01*
X158532Y5257D01*
X158602Y5192D01*
X158694Y5137D01*
X158805Y5092D01*
X158936Y5057D01*
X159088Y5032D01*
X159260Y5017D01*
X159453Y5012D01*
Y4012D01*
X159260Y4007D01*
X159088Y3992D01*
X158936Y3967D01*
X158805Y3932D01*
X158694Y3887D01*
X158602Y3832D01*
X158532Y3767D01*
X158481Y3692D01*
X158451Y3607D01*
X158441Y3512D01*
Y5512D01*
X158451Y5417D01*
D02*
G37*
%LPC*%
G36*
X148307Y221232D02*
X147132Y221077D01*
X146038Y220624D01*
X145098Y219902D01*
X144376Y218962D01*
X143923Y217868D01*
X143768Y216693D01*
X143923Y215518D01*
X144376Y214423D01*
X145098Y213484D01*
X146038Y212762D01*
X147132Y212309D01*
X148307Y212154D01*
X149482Y212309D01*
X150576Y212762D01*
X151516Y213484D01*
X152238Y214423D01*
X152691Y215518D01*
X152846Y216693D01*
X152691Y217868D01*
X152238Y218962D01*
X151516Y219902D01*
X150576Y220624D01*
X149482Y221077D01*
X148307Y221232D01*
D02*
G37*
G36*
X138307D02*
X137132Y221077D01*
X136038Y220624D01*
X135098Y219902D01*
X134376Y218962D01*
X133923Y217868D01*
X133768Y216693D01*
X133923Y215518D01*
X134376Y214423D01*
X135098Y213484D01*
X136038Y212762D01*
X137132Y212309D01*
X138307Y212154D01*
X139482Y212309D01*
X140577Y212762D01*
X141516Y213484D01*
X142238Y214423D01*
X142691Y215518D01*
X142846Y216693D01*
X142691Y217868D01*
X142238Y218962D01*
X141516Y219902D01*
X140577Y220624D01*
X139482Y221077D01*
X138307Y221232D01*
D02*
G37*
G36*
X128307D02*
X127132Y221077D01*
X126038Y220624D01*
X125098Y219902D01*
X124376Y218962D01*
X123923Y217868D01*
X123768Y216693D01*
X123923Y215518D01*
X124376Y214423D01*
X125098Y213484D01*
X126038Y212762D01*
X127132Y212309D01*
X128307Y212154D01*
X129482Y212309D01*
X130577Y212762D01*
X131517Y213484D01*
X132238Y214423D01*
X132691Y215518D01*
X132846Y216693D01*
X132691Y217868D01*
X132238Y218962D01*
X131517Y219902D01*
X130577Y220624D01*
X129482Y221077D01*
X128307Y221232D01*
D02*
G37*
G36*
X190945Y215807D02*
X190094Y215637D01*
X189372Y215155D01*
X188890Y214434D01*
X188721Y213583D01*
X188890Y212732D01*
X189372Y212010D01*
X190094Y211528D01*
X190945Y211359D01*
X191796Y211528D01*
X192517Y212010D01*
X192999Y212732D01*
X193169Y213583D01*
X192999Y214434D01*
X192517Y215155D01*
X191796Y215637D01*
X190945Y215807D01*
D02*
G37*
G36*
X218228Y200220D02*
X218207Y200216D01*
X218186Y200219D01*
X218158Y200213D01*
X213819D01*
Y194882D01*
Y189551D01*
X218190D01*
X218228Y189544D01*
X218252Y189549D01*
X218277Y189545D01*
X218409Y189551D01*
X219240D01*
Y189592D01*
X225652Y189902D01*
X229815D01*
Y194882D01*
Y199862D01*
X223044D01*
X219550Y199974D01*
X219240Y200002D01*
Y200213D01*
X218266D01*
X218228Y200220D01*
D02*
G37*
G36*
X212819Y200213D02*
X207397D01*
Y195382D01*
X212819D01*
Y200213D01*
D02*
G37*
G36*
Y194382D02*
X207397D01*
Y189551D01*
X212819D01*
Y194382D01*
D02*
G37*
G36*
X207637Y178206D02*
Y173728D01*
X212115D01*
X212009Y174534D01*
X211505Y175750D01*
X210703Y176794D01*
X209659Y177596D01*
X208443Y178100D01*
X207637Y178206D01*
D02*
G37*
G36*
X212115Y172728D02*
X207637D01*
Y168251D01*
X208443Y168357D01*
X209659Y168861D01*
X210703Y169662D01*
X211505Y170707D01*
X212009Y171923D01*
X212115Y172728D01*
D02*
G37*
G36*
X207637Y166406D02*
Y161929D01*
X212115D01*
X212009Y162734D01*
X211505Y163951D01*
X210703Y164995D01*
X209659Y165797D01*
X208443Y166300D01*
X207637Y166406D01*
D02*
G37*
G36*
X224145Y174262D02*
X222792Y174128D01*
X221490Y173734D01*
X220290Y173092D01*
X219239Y172229D01*
X218376Y171178D01*
X217735Y169978D01*
X217340Y168677D01*
X217206Y167323D01*
X217340Y165969D01*
X217735Y164667D01*
X218376Y163468D01*
X219239Y162416D01*
X220290Y161553D01*
X221490Y160912D01*
X222792Y160517D01*
X224145Y160384D01*
X225499Y160517D01*
X226801Y160912D01*
X228000Y161553D01*
X229052Y162416D01*
X229915Y163468D01*
X230556Y164667D01*
X230951Y165969D01*
X231084Y167323D01*
X230951Y168677D01*
X230556Y169978D01*
X229915Y171178D01*
X229052Y172229D01*
X228000Y173092D01*
X226801Y173734D01*
X225499Y174128D01*
X224145Y174262D01*
D02*
G37*
G36*
X212115Y160929D02*
X207637D01*
Y156452D01*
X208443Y156558D01*
X209659Y157062D01*
X210703Y157863D01*
X211505Y158908D01*
X212009Y160124D01*
X212115Y160929D01*
D02*
G37*
G36*
X218228Y145102D02*
X218207Y145098D01*
X218186Y145101D01*
X218158Y145095D01*
X213819D01*
Y139764D01*
Y134433D01*
X218190D01*
X218228Y134425D01*
X218252Y134430D01*
X218277Y134427D01*
X218409Y134433D01*
X219240D01*
Y134473D01*
X225652Y134784D01*
X229815D01*
Y139764D01*
Y144743D01*
X223044D01*
X219550Y144856D01*
X219240Y144884D01*
Y145095D01*
X218266D01*
X218228Y145102D01*
D02*
G37*
G36*
X212819Y145095D02*
X207397D01*
Y140264D01*
X212819D01*
Y145095D01*
D02*
G37*
G36*
Y139264D02*
X207397D01*
Y134433D01*
X212819D01*
Y139264D01*
D02*
G37*
G36*
X207637Y123088D02*
Y118610D01*
X212115D01*
X212009Y119415D01*
X211505Y120632D01*
X210703Y121676D01*
X209659Y122478D01*
X208443Y122982D01*
X207637Y123088D01*
D02*
G37*
G36*
X212115Y117610D02*
X207637D01*
Y113133D01*
X208443Y113239D01*
X209659Y113743D01*
X210703Y114544D01*
X211505Y115589D01*
X212009Y116805D01*
X212115Y117610D01*
D02*
G37*
G36*
X207637Y111288D02*
Y106811D01*
X212115D01*
X212009Y107616D01*
X211505Y108833D01*
X210703Y109877D01*
X209659Y110679D01*
X208443Y111182D01*
X207637Y111288D01*
D02*
G37*
G36*
X224145Y119144D02*
X222792Y119010D01*
X221490Y118615D01*
X220290Y117974D01*
X219239Y117111D01*
X218376Y116060D01*
X217735Y114860D01*
X217340Y113558D01*
X217206Y112205D01*
X217340Y110851D01*
X217735Y109549D01*
X218376Y108350D01*
X219239Y107298D01*
X220290Y106435D01*
X221490Y105794D01*
X222792Y105399D01*
X224145Y105266D01*
X225499Y105399D01*
X226801Y105794D01*
X228000Y106435D01*
X229052Y107298D01*
X229915Y108350D01*
X230556Y109549D01*
X230951Y110851D01*
X231084Y112205D01*
X230951Y113558D01*
X230556Y114860D01*
X229915Y116060D01*
X229052Y117111D01*
X228000Y117974D01*
X226801Y118615D01*
X225499Y119010D01*
X224145Y119144D01*
D02*
G37*
G36*
X212115Y105811D02*
X207637D01*
Y101334D01*
X208443Y101440D01*
X209659Y101944D01*
X210703Y102745D01*
X211505Y103789D01*
X212009Y105006D01*
X212115Y105811D01*
D02*
G37*
G36*
X212819Y89976D02*
X207397D01*
Y85146D01*
X212819D01*
Y89976D01*
D02*
G37*
G36*
X229546Y89625D02*
X222317D01*
Y84646D01*
Y79666D01*
X229546D01*
Y84646D01*
Y89625D01*
D02*
G37*
G36*
X219240Y89976D02*
X213819D01*
Y84646D01*
Y79315D01*
X219240D01*
Y79666D01*
X221317D01*
Y84646D01*
Y89625D01*
X219240D01*
Y89976D01*
D02*
G37*
G36*
X212819Y84146D02*
X207397D01*
Y79315D01*
X212819D01*
Y84146D01*
D02*
G37*
G36*
X207637Y67969D02*
Y63492D01*
X212115D01*
X212009Y64297D01*
X211505Y65514D01*
X210703Y66558D01*
X209659Y67360D01*
X208443Y67863D01*
X207637Y67969D01*
D02*
G37*
G36*
X212115Y62492D02*
X207637D01*
Y58015D01*
X208443Y58121D01*
X209659Y58625D01*
X210703Y59426D01*
X211505Y60471D01*
X212009Y61687D01*
X212115Y62492D01*
D02*
G37*
G36*
X207637Y56170D02*
Y51693D01*
X212115D01*
X212009Y52498D01*
X211505Y53715D01*
X210703Y54759D01*
X209659Y55560D01*
X208443Y56064D01*
X207637Y56170D01*
D02*
G37*
G36*
X224145Y64025D02*
X222792Y63892D01*
X221490Y63497D01*
X220290Y62856D01*
X219239Y61993D01*
X218376Y60942D01*
X217735Y59742D01*
X217340Y58440D01*
X217206Y57087D01*
X217340Y55733D01*
X217735Y54431D01*
X218376Y53232D01*
X219239Y52180D01*
X220290Y51317D01*
X221490Y50676D01*
X222792Y50281D01*
X224145Y50148D01*
X225499Y50281D01*
X226801Y50676D01*
X228000Y51317D01*
X229052Y52180D01*
X229915Y53232D01*
X230556Y54431D01*
X230951Y55733D01*
X231084Y57087D01*
X230951Y58440D01*
X230556Y59742D01*
X229915Y60942D01*
X229052Y61993D01*
X228000Y62856D01*
X226801Y63497D01*
X225499Y63892D01*
X224145Y64025D01*
D02*
G37*
G36*
X212115Y50693D02*
X207637D01*
Y46216D01*
X208443Y46322D01*
X209659Y46825D01*
X210703Y47627D01*
X211505Y48671D01*
X212009Y49888D01*
X212115Y50693D01*
D02*
G37*
G36*
X201969Y26606D02*
X199213D01*
X198284Y26483D01*
X197418Y26125D01*
X196674Y25554D01*
X196104Y24811D01*
X195924Y24376D01*
X195883Y24361D01*
X195375Y24274D01*
X194749Y24692D01*
X193898Y24862D01*
X193047Y24692D01*
X192325Y24210D01*
X191843Y23489D01*
X191674Y22638D01*
X191843Y21787D01*
X192325Y21065D01*
X193047Y20583D01*
X193898Y20414D01*
X194749Y20583D01*
X195470Y21065D01*
X195493Y21099D01*
X195521Y21106D01*
X195540Y21108D01*
X196070D01*
X196137Y21103D01*
X196201Y21095D01*
X196674Y20478D01*
X197418Y19907D01*
X198284Y19548D01*
X199213Y19426D01*
X201969D01*
X202898Y19548D01*
X203763Y19907D01*
X204507Y20478D01*
X205077Y21221D01*
X205436Y22087D01*
X205558Y23016D01*
X205436Y23945D01*
X205077Y24811D01*
X204507Y25554D01*
X203763Y26125D01*
X202898Y26483D01*
X201969Y26606D01*
D02*
G37*
G36*
X168898D02*
X166142D01*
X165213Y26483D01*
X164347Y26125D01*
X163603Y25554D01*
X163033Y24811D01*
X162674Y23945D01*
X162552Y23016D01*
X162674Y22087D01*
X163033Y21221D01*
X163603Y20478D01*
X164347Y19907D01*
X165213Y19548D01*
X166142Y19426D01*
X168898D01*
X169827Y19548D01*
X170693Y19907D01*
X171436Y20478D01*
X171978Y21184D01*
X172238Y21223D01*
X172496Y21225D01*
X173173Y20772D01*
X174024Y20603D01*
X174875Y20772D01*
X175596Y21254D01*
X176078Y21976D01*
X176247Y22827D01*
X176078Y23678D01*
X175596Y24399D01*
X174875Y24881D01*
X174024Y25051D01*
X173173Y24881D01*
X172657Y24537D01*
X172111Y24651D01*
X172056Y24691D01*
X172006Y24811D01*
X171436Y25554D01*
X170693Y26125D01*
X169827Y26483D01*
X168898Y26606D01*
D02*
G37*
G36*
X183071Y18956D02*
X182220Y18787D01*
X181498Y18305D01*
X181016Y17583D01*
X180847Y16732D01*
X181016Y15881D01*
X181498Y15160D01*
X182220Y14678D01*
X183071Y14508D01*
X183922Y14678D01*
X184643Y15160D01*
X185125Y15881D01*
X185295Y16732D01*
X185125Y17583D01*
X184643Y18305D01*
X183922Y18787D01*
X183071Y18956D01*
D02*
G37*
G36*
X156496D02*
X155645Y18787D01*
X154924Y18305D01*
X154441Y17583D01*
X154272Y16732D01*
X154441Y15881D01*
X154861Y15254D01*
X154862Y15244D01*
X154865Y15213D01*
Y13976D01*
X153528D01*
Y8433D01*
X159465D01*
Y13976D01*
X158127D01*
Y15227D01*
X158128Y15232D01*
X158131Y15254D01*
X158551Y15881D01*
X158720Y16732D01*
X158551Y17583D01*
X158069Y18305D01*
X157347Y18787D01*
X156496Y18956D01*
D02*
G37*
%LPD*%
G36*
X218306Y199128D02*
X218543Y199063D01*
X218936Y199006D01*
X219488Y198956D01*
X223267Y198834D01*
X226102Y198819D01*
Y190945D01*
X218228Y190563D01*
Y199201D01*
X218306Y199128D01*
D02*
G37*
G36*
Y144010D02*
X218543Y143945D01*
X218936Y143888D01*
X219488Y143838D01*
X223267Y143716D01*
X226102Y143701D01*
Y135827D01*
X218228Y135445D01*
Y144082D01*
X218306Y144010D01*
D02*
G37*
G36*
X197072Y21644D02*
X197045Y21737D01*
X196996Y21821D01*
X196925Y21896D01*
X196833Y21960D01*
X196718Y22014D01*
X196582Y22059D01*
X196424Y22093D01*
X196243Y22118D01*
X196041Y22133D01*
X195817Y22138D01*
X195676Y23065D01*
Y22138D01*
X195556Y22135D01*
X195442Y22125D01*
X195334Y22108D01*
X195231Y22085D01*
X195135Y22056D01*
X195045Y22020D01*
X194960Y21978D01*
X194881Y21929D01*
X194808Y21873D01*
X194741Y21811D01*
Y23465D01*
X194808Y23403D01*
X194881Y23347D01*
X194960Y23298D01*
X195045Y23255D01*
X195135Y23220D01*
X195231Y23190D01*
X195334Y23167D01*
X195442Y23151D01*
X195556Y23141D01*
X195671Y23138D01*
X195886Y23143D01*
X196082Y23158D01*
X196253Y23182D01*
X196399Y23217D01*
X196520Y23262D01*
X196616Y23317D01*
X196687Y23381D01*
X196733Y23456D01*
X196755Y23540D01*
X196751Y23634D01*
X197072Y21644D01*
D02*
G37*
G36*
X171306Y23729D02*
X171334Y23645D01*
X171386Y23570D01*
X171462Y23505D01*
X171563Y23451D01*
X171687Y23406D01*
X171836Y23371D01*
X172009Y23347D01*
X172205Y23332D01*
X172327Y23329D01*
X172365Y23330D01*
X172479Y23340D01*
X172587Y23356D01*
X172690Y23379D01*
X172786Y23408D01*
X172877Y23444D01*
X172961Y23487D01*
X173040Y23536D01*
X173113Y23592D01*
X173180Y23654D01*
Y22000D01*
X173113Y22062D01*
X173040Y22118D01*
X172961Y22167D01*
X172877Y22209D01*
X172786Y22245D01*
X172690Y22275D01*
X172587Y22297D01*
X172479Y22314D01*
X172365Y22323D01*
X172292Y22325D01*
X172127Y22322D01*
X171750Y22282D01*
X171595Y22248D01*
X171462Y22203D01*
X171353Y22149D01*
X171265Y22085D01*
X171201Y22010D01*
X171159Y21926D01*
X171140Y21833D01*
X171302Y23823D01*
X171306Y23729D01*
D02*
G37*
G36*
X157280Y15840D02*
X157241Y15782D01*
X157207Y15716D01*
X157178Y15641D01*
X157153Y15557D01*
X157132Y15464D01*
X157116Y15363D01*
X157105Y15253D01*
X157096Y15006D01*
X155896Y15006D01*
X155894Y15134D01*
X155876Y15363D01*
X155860Y15464D01*
X155839Y15557D01*
X155814Y15641D01*
X155785Y15716D01*
X155751Y15782D01*
X155712Y15840D01*
X155669Y15889D01*
X157323Y15889D01*
X157280Y15840D01*
D02*
G37*
G36*
X157102Y13934D02*
X157120Y13728D01*
X157150Y13546D01*
X157192Y13389D01*
X157246Y13255D01*
X157312Y13146D01*
X157390Y13061D01*
X157480Y13001D01*
X157582Y12965D01*
X157696Y12952D01*
X155296D01*
X155410Y12965D01*
X155512Y13001D01*
X155602Y13061D01*
X155680Y13146D01*
X155746Y13255D01*
X155800Y13389D01*
X155842Y13546D01*
X155872Y13728D01*
X155890Y13934D01*
X155896Y14164D01*
X157096D01*
X157102Y13934D01*
D02*
G37*
%LPC*%
G36*
X41339Y233523D02*
X40488Y233354D01*
X39766Y232872D01*
X39284Y232150D01*
X39115Y231299D01*
X39284Y230448D01*
X39766Y229727D01*
X40488Y229245D01*
X41339Y229075D01*
X42190Y229245D01*
X42911Y229727D01*
X43393Y230448D01*
X43562Y231299D01*
X43393Y232150D01*
X42911Y232872D01*
X42190Y233354D01*
X41339Y233523D01*
D02*
G37*
G36*
X62599Y226723D02*
X61225Y226588D01*
X59905Y226187D01*
X58688Y225537D01*
X57622Y224662D01*
X56747Y223595D01*
X56096Y222378D01*
X55696Y221058D01*
X55561Y219685D01*
X55696Y218312D01*
X56096Y216992D01*
X56747Y215775D01*
X57622Y214709D01*
X58688Y213833D01*
X59905Y213183D01*
X61225Y212783D01*
X62599Y212647D01*
X63972Y212783D01*
X65292Y213183D01*
X66509Y213833D01*
X67575Y214709D01*
X68450Y215775D01*
X69100Y216992D01*
X69501Y218312D01*
X69636Y219685D01*
X69501Y221058D01*
X69100Y222378D01*
X68450Y223595D01*
X67575Y224662D01*
X66509Y225537D01*
X65292Y226187D01*
X63972Y226588D01*
X62599Y226723D01*
D02*
G37*
G36*
X17717Y226723D02*
X16343Y226588D01*
X15023Y226187D01*
X13807Y225537D01*
X12740Y224661D01*
X11865Y223595D01*
X11214Y222378D01*
X10814Y221058D01*
X10679Y219685D01*
X10814Y218312D01*
X11214Y216992D01*
X11865Y215775D01*
X12740Y214709D01*
X13807Y213833D01*
X15023Y213183D01*
X16343Y212783D01*
X17717Y212647D01*
X19090Y212783D01*
X20410Y213183D01*
X21627Y213833D01*
X22693Y214709D01*
X23568Y215775D01*
X24219Y216992D01*
X24619Y218312D01*
X24754Y219685D01*
X24619Y221058D01*
X24219Y222378D01*
X23568Y223595D01*
X22693Y224661D01*
X21627Y225537D01*
X20410Y226187D01*
X19090Y226588D01*
X17717Y226723D01*
D02*
G37*
G36*
X63098Y200802D02*
Y191445D01*
X72455D01*
X72314Y192877D01*
X71750Y194736D01*
X70835Y196448D01*
X69603Y197950D01*
X68102Y199181D01*
X66389Y200097D01*
X64531Y200660D01*
X63098Y200802D01*
D02*
G37*
G36*
X62098D02*
X60666Y200660D01*
X58808Y200097D01*
X57095Y199181D01*
X55594Y197950D01*
X54362Y196448D01*
X53447Y194736D01*
X52883Y192877D01*
X52742Y191445D01*
X62098D01*
Y200802D01*
D02*
G37*
G36*
X18216D02*
Y191445D01*
X27573D01*
X27432Y192877D01*
X26869Y194736D01*
X25953Y196448D01*
X24721Y197950D01*
X23220Y199181D01*
X21507Y200097D01*
X19649Y200660D01*
X18216Y200802D01*
D02*
G37*
G36*
X17217D02*
X15784Y200660D01*
X13926Y200097D01*
X12213Y199181D01*
X10712Y197950D01*
X9480Y196448D01*
X8565Y194736D01*
X8001Y192877D01*
X7860Y191445D01*
X17217D01*
Y200802D01*
D02*
G37*
G36*
X40657Y200802D02*
Y191445D01*
X50014D01*
X49873Y192877D01*
X49309Y194736D01*
X48394Y196448D01*
X47162Y197950D01*
X45661Y199181D01*
X43948Y200097D01*
X42090Y200660D01*
X40657Y200802D01*
D02*
G37*
G36*
X39658D02*
X38225Y200660D01*
X36367Y200097D01*
X34654Y199181D01*
X33153Y197950D01*
X31921Y196448D01*
X31006Y194736D01*
X30442Y192877D01*
X30301Y191445D01*
X39658D01*
Y200802D01*
D02*
G37*
G36*
X72455Y190445D02*
X63098D01*
Y181088D01*
X64531Y181229D01*
X66389Y181793D01*
X68102Y182708D01*
X69603Y183940D01*
X70835Y185441D01*
X71750Y187154D01*
X72314Y189012D01*
X72455Y190445D01*
D02*
G37*
G36*
X62098D02*
X52742D01*
X52883Y189012D01*
X53447Y187154D01*
X54362Y185441D01*
X55594Y183940D01*
X57095Y182708D01*
X58808Y181793D01*
X60666Y181229D01*
X62098Y181088D01*
Y190445D01*
D02*
G37*
G36*
X27573D02*
X18216D01*
Y181088D01*
X19649Y181229D01*
X21507Y181793D01*
X23220Y182708D01*
X24721Y183940D01*
X25953Y185441D01*
X26869Y187154D01*
X27432Y189012D01*
X27573Y190445D01*
D02*
G37*
G36*
X17217D02*
X7860D01*
X8001Y189012D01*
X8565Y187154D01*
X9480Y185441D01*
X10712Y183940D01*
X12213Y182708D01*
X13926Y181793D01*
X15784Y181229D01*
X17217Y181088D01*
Y190445D01*
D02*
G37*
G36*
X50014Y190445D02*
X40657D01*
Y181088D01*
X42090Y181229D01*
X43948Y181793D01*
X45661Y182708D01*
X47162Y183940D01*
X48394Y185441D01*
X49309Y187154D01*
X49873Y189012D01*
X50014Y190445D01*
D02*
G37*
G36*
X39658D02*
X30301D01*
X30442Y189012D01*
X31006Y187154D01*
X31921Y185441D01*
X33153Y183940D01*
X34654Y182708D01*
X36367Y181793D01*
X38225Y181229D01*
X39658Y181088D01*
Y190445D01*
D02*
G37*
G36*
X194315Y200213D02*
X188893D01*
Y195382D01*
X194315D01*
Y200213D01*
D02*
G37*
G36*
Y194382D02*
X188893D01*
Y189551D01*
X194315D01*
Y194382D01*
D02*
G37*
G36*
X140666Y174076D02*
X137705D01*
Y172198D01*
X140666D01*
Y174076D01*
D02*
G37*
G36*
X159563Y174883D02*
X156496D01*
X153429D01*
Y173202D01*
X154967D01*
Y165114D01*
X154847Y165031D01*
X154347Y165295D01*
Y169099D01*
X151288D01*
Y161406D01*
Y153713D01*
X154347D01*
Y160008D01*
X154822Y160325D01*
X157578Y163081D01*
X157909Y163577D01*
X158026Y164162D01*
Y173202D01*
X159563D01*
Y174883D01*
D02*
G37*
G36*
X150288Y169099D02*
X147229D01*
Y161906D01*
X150288D01*
Y169099D01*
D02*
G37*
G36*
Y160906D02*
X147229D01*
Y153713D01*
X150288D01*
Y160906D01*
D02*
G37*
%LPD*%
G36*
X157401Y174215D02*
X157316Y174185D01*
X157241Y174135D01*
X157176Y174064D01*
X157121Y173973D01*
X157076Y173861D01*
X157041Y173730D01*
X157016Y173578D01*
X157001Y173406D01*
X156996Y173214D01*
X155996D01*
X155991Y173406D01*
X155976Y173578D01*
X155951Y173730D01*
X155916Y173861D01*
X155871Y173973D01*
X155816Y174064D01*
X155751Y174135D01*
X155676Y174185D01*
X155591Y174215D01*
X155496Y174226D01*
X157496D01*
X157401Y174215D01*
D02*
G37*
%LPC*%
G36*
X89567Y182342D02*
X88716Y182173D01*
X87994Y181691D01*
X87512Y180969D01*
X87343Y180118D01*
X87512Y179267D01*
X87994Y178546D01*
X88716Y178064D01*
X89567Y177894D01*
X90418Y178064D01*
X91139Y178546D01*
X91622Y179267D01*
X91791Y180118D01*
X91622Y180969D01*
X91139Y181691D01*
X90418Y182173D01*
X89567Y182342D01*
D02*
G37*
G36*
X96457Y168562D02*
X95606Y168393D01*
X94884Y167911D01*
X94402Y167190D01*
X94233Y166339D01*
X94402Y165488D01*
X94884Y164766D01*
X95606Y164284D01*
X96457Y164115D01*
X97308Y164284D01*
X98029Y164766D01*
X98511Y165488D01*
X98681Y166339D01*
X98511Y167190D01*
X98029Y167911D01*
X97308Y168393D01*
X96457Y168562D01*
D02*
G37*
G36*
X118402Y166245D02*
X115658D01*
Y163953D01*
X118402D01*
Y166245D01*
D02*
G37*
G36*
X114658D02*
X111914D01*
Y163953D01*
X114658D01*
Y166245D01*
D02*
G37*
G36*
X110843Y166540D02*
X106799D01*
Y163481D01*
X110843D01*
Y166540D01*
D02*
G37*
G36*
X105799D02*
X101756D01*
Y163481D01*
X105799D01*
Y166540D01*
D02*
G37*
G36*
X99425Y163391D02*
X96957D01*
Y160922D01*
X99425D01*
Y163391D01*
D02*
G37*
G36*
X95957D02*
X93488D01*
Y160922D01*
X95957D01*
Y163391D01*
D02*
G37*
G36*
X72455Y168791D02*
X63098D01*
Y159435D01*
X64531Y159576D01*
X66389Y160139D01*
X68102Y161055D01*
X69603Y162287D01*
X70835Y163788D01*
X71750Y165500D01*
X72314Y167359D01*
X72455Y168791D01*
D02*
G37*
G36*
X62098D02*
X52742D01*
X52883Y167359D01*
X53447Y165500D01*
X54362Y163788D01*
X55594Y162287D01*
X57095Y161055D01*
X58808Y160139D01*
X60666Y159576D01*
X62098Y159435D01*
Y168791D01*
D02*
G37*
G36*
X50014D02*
X40657D01*
Y159435D01*
X42090Y159576D01*
X43948Y160139D01*
X45661Y161055D01*
X47162Y162287D01*
X48394Y163788D01*
X49309Y165500D01*
X49873Y167359D01*
X50014Y168791D01*
D02*
G37*
G36*
X39658D02*
X30301D01*
X30442Y167359D01*
X31006Y165500D01*
X31921Y163788D01*
X33153Y162287D01*
X34654Y161055D01*
X36367Y160139D01*
X38225Y159576D01*
X39658Y159435D01*
Y168791D01*
D02*
G37*
G36*
X110843Y162481D02*
X106799D01*
Y159422D01*
X110843D01*
Y162481D01*
D02*
G37*
G36*
X105799D02*
X101756D01*
Y159422D01*
X105799D01*
Y162481D01*
D02*
G37*
G36*
X78059Y160219D02*
X77208Y160050D01*
X76486Y159568D01*
X76068Y158941D01*
X75692Y158871D01*
X75503Y158887D01*
X75391Y159053D01*
X74670Y159535D01*
X73819Y159704D01*
X72968Y159535D01*
X72246Y159053D01*
X71804Y158391D01*
X71732Y158324D01*
X71232Y158217D01*
X70733Y158551D01*
X69882Y158720D01*
X69031Y158551D01*
X68309Y158069D01*
X67827Y157347D01*
X67658Y156496D01*
X67827Y155645D01*
X68309Y154924D01*
X69031Y154441D01*
X69882Y154272D01*
X70733Y154441D01*
X71454Y154924D01*
X71897Y155586D01*
X71969Y155652D01*
X72469Y155759D01*
X72968Y155426D01*
X73819Y155256D01*
X74670Y155426D01*
X75391Y155908D01*
X75810Y156535D01*
X76186Y156604D01*
X76375Y156589D01*
X76486Y156423D01*
X77208Y155941D01*
X78059Y155771D01*
X78910Y155941D01*
X79631Y156423D01*
X80113Y157144D01*
X80283Y157995D01*
X80113Y158846D01*
X79631Y159568D01*
X78910Y160050D01*
X78059Y160219D01*
D02*
G37*
G36*
X82677Y157736D02*
X81826Y157566D01*
X81105Y157084D01*
X80623Y156363D01*
X80453Y155512D01*
X80623Y154661D01*
X81105Y153939D01*
X81826Y153457D01*
X82677Y153288D01*
X83528Y153457D01*
X84250Y153939D01*
X84732Y154661D01*
X84901Y155512D01*
X84732Y156363D01*
X84250Y157084D01*
X83528Y157566D01*
X82677Y157736D01*
D02*
G37*
G36*
X77870Y146472D02*
X75303D01*
Y144201D01*
X77870D01*
Y146472D01*
D02*
G37*
G36*
X74303D02*
X71736D01*
Y144201D01*
X74303D01*
Y146472D01*
D02*
G37*
G36*
X118402Y111127D02*
X115658D01*
Y108835D01*
X118402D01*
Y111127D01*
D02*
G37*
G36*
X114658D02*
X111914D01*
Y108835D01*
X114658D01*
Y111127D01*
D02*
G37*
G36*
X110843Y111422D02*
X106799D01*
Y108363D01*
X110843D01*
Y111422D01*
D02*
G37*
G36*
X105799D02*
X101756D01*
Y108363D01*
X105799D01*
Y111422D01*
D02*
G37*
G36*
X99425Y108273D02*
X96957D01*
Y105804D01*
X99425D01*
Y108273D01*
D02*
G37*
G36*
X95957D02*
X93488D01*
Y105804D01*
X95957D01*
Y108273D01*
D02*
G37*
G36*
X110843Y107363D02*
X106799D01*
Y104304D01*
X110843D01*
Y107363D01*
D02*
G37*
G36*
X105799D02*
X101756D01*
Y104304D01*
X105799D01*
Y107363D01*
D02*
G37*
G36*
X88582Y97696D02*
X87731Y97527D01*
X87010Y97045D01*
X86528Y96323D01*
X86359Y95472D01*
X86434Y95093D01*
X86009Y94668D01*
X85630Y94744D01*
X84779Y94574D01*
X84057Y94092D01*
X83575Y93371D01*
X83406Y92520D01*
X83575Y91669D01*
X84057Y90947D01*
X84779Y90465D01*
X85630Y90296D01*
X86481Y90465D01*
X87202Y90947D01*
X87685Y91669D01*
X87854Y92520D01*
X87778Y92899D01*
X88204Y93324D01*
X88582Y93248D01*
X89433Y93418D01*
X90155Y93900D01*
X90637Y94621D01*
X90806Y95472D01*
X90637Y96323D01*
X90155Y97045D01*
X89433Y97527D01*
X88582Y97696D01*
D02*
G37*
G36*
X92677Y86068D02*
X91799Y85953D01*
X90982Y85614D01*
X90279Y85075D01*
X89740Y84373D01*
X89402Y83555D01*
X89286Y82677D01*
X89402Y81800D01*
X89740Y80982D01*
X90279Y80279D01*
X90982Y79740D01*
X91799Y79401D01*
X92677Y79286D01*
X93555Y79401D01*
X94373Y79740D01*
X95075Y80279D01*
X95614Y80982D01*
X95953Y81800D01*
X96068Y82677D01*
X95953Y83555D01*
X95614Y84373D01*
X95075Y85075D01*
X94373Y85614D01*
X93555Y85953D01*
X92677Y86068D01*
D02*
G37*
G36*
X107283Y74074D02*
X106432Y73905D01*
X105711Y73423D01*
X105229Y72701D01*
X105060Y71850D01*
X105229Y70999D01*
X105711Y70278D01*
X106127Y70000D01*
Y69399D01*
X105711Y69121D01*
X105229Y68400D01*
X105060Y67549D01*
X105229Y66697D01*
X105711Y65976D01*
X106432Y65494D01*
X107283Y65325D01*
X108134Y65494D01*
X108856Y65976D01*
X109338Y66697D01*
X109507Y67549D01*
X109338Y68400D01*
X108856Y69121D01*
X108440Y69399D01*
Y70000D01*
X108856Y70278D01*
X109338Y70999D01*
X109507Y71850D01*
X109338Y72701D01*
X108856Y73423D01*
X108134Y73905D01*
X107283Y74074D01*
D02*
G37*
G36*
X118402Y56009D02*
X115658D01*
Y53717D01*
X118402D01*
Y56009D01*
D02*
G37*
G36*
X114658D02*
X111914D01*
Y53717D01*
X114658D01*
Y56009D01*
D02*
G37*
G36*
X110843Y56304D02*
X106799D01*
Y53245D01*
X110843D01*
Y56304D01*
D02*
G37*
G36*
X105799D02*
X101756D01*
Y53245D01*
X105799D01*
Y56304D01*
D02*
G37*
G36*
X99425Y53154D02*
X96957D01*
Y50686D01*
X99425D01*
Y53154D01*
D02*
G37*
G36*
X95957D02*
X93488D01*
Y50686D01*
X95957D01*
Y53154D01*
D02*
G37*
G36*
X110843Y52245D02*
X106799D01*
Y49186D01*
X110843D01*
Y52245D01*
D02*
G37*
G36*
X105799D02*
X101756D01*
Y49186D01*
X105799D01*
Y52245D01*
D02*
G37*
G36*
X170193Y177564D02*
X167626D01*
Y175883D01*
X170193D01*
Y177564D01*
D02*
G37*
G36*
X194837Y178206D02*
X194032Y178100D01*
X192816Y177596D01*
X191771Y176794D01*
X190970Y175750D01*
X190466Y174534D01*
X190360Y173728D01*
X194837D01*
Y178206D01*
D02*
G37*
G36*
Y172728D02*
X190360D01*
X190466Y171923D01*
X190970Y170707D01*
X191771Y169662D01*
X192816Y168861D01*
X194032Y168357D01*
X194837Y168251D01*
Y172728D01*
D02*
G37*
G36*
X194837Y166406D02*
X194032Y166300D01*
X192816Y165796D01*
X191771Y164994D01*
X190970Y163950D01*
X190466Y162734D01*
X190360Y161928D01*
X194837D01*
Y166406D01*
D02*
G37*
G36*
X177575Y169099D02*
X174516D01*
Y161906D01*
X177575D01*
Y169099D01*
D02*
G37*
G36*
X194837Y160928D02*
X190360D01*
X190466Y160123D01*
X190970Y158907D01*
X191771Y157862D01*
X192816Y157061D01*
X194032Y156557D01*
X194837Y156451D01*
Y160928D01*
D02*
G37*
G36*
X177575Y160906D02*
X174516D01*
Y153713D01*
X177575D01*
Y160906D01*
D02*
G37*
G36*
X170193Y174883D02*
X167126D01*
X164059D01*
Y173202D01*
X165597D01*
Y164359D01*
X165713Y163774D01*
X166045Y163277D01*
X168997Y160325D01*
X169494Y159993D01*
X170079Y159877D01*
X170457D01*
Y153713D01*
X173516D01*
Y161406D01*
Y169099D01*
X170457D01*
Y163844D01*
X169995Y163653D01*
X168656Y164992D01*
Y173202D01*
X170193D01*
Y174883D01*
D02*
G37*
%LPD*%
G36*
X168031Y174215D02*
X167946Y174185D01*
X167871Y174135D01*
X167806Y174064D01*
X167751Y173973D01*
X167706Y173861D01*
X167671Y173730D01*
X167646Y173578D01*
X167631Y173406D01*
X167626Y173214D01*
X166626D01*
X166621Y173406D01*
X166606Y173578D01*
X166581Y173730D01*
X166546Y173861D01*
X166501Y173973D01*
X166446Y174064D01*
X166381Y174135D01*
X166306Y174185D01*
X166221Y174215D01*
X166126Y174226D01*
X168126D01*
X168031Y174215D01*
D02*
G37*
G36*
X171469Y160406D02*
X171459Y160501D01*
X171429Y160586D01*
X171379Y160661D01*
X171309Y160726D01*
X171219Y160781D01*
X171109Y160826D01*
X170979Y160861D01*
X170829Y160886D01*
X170659Y160901D01*
X170469Y160906D01*
Y161906D01*
X170659Y161911D01*
X170829Y161926D01*
X170979Y161951D01*
X171109Y161986D01*
X171219Y162031D01*
X171309Y162086D01*
X171379Y162151D01*
X171429Y162226D01*
X171459Y162311D01*
X171469Y162406D01*
Y160406D01*
D02*
G37*
%LPC*%
G36*
X17217Y168791D02*
X7860D01*
X8001Y167359D01*
X8565Y165500D01*
X9480Y163788D01*
X10712Y162287D01*
X12213Y161055D01*
X13926Y160139D01*
X15784Y159576D01*
X17217Y159435D01*
Y168791D01*
D02*
G37*
G36*
X14279Y156512D02*
Y154043D01*
X16748D01*
Y156512D01*
X14279D01*
D02*
G37*
G36*
X16748Y153043D02*
X14279D01*
Y150575D01*
X16748D01*
Y153043D01*
D02*
G37*
G36*
X14279Y149622D02*
Y147153D01*
X16748D01*
Y149622D01*
X14279D01*
D02*
G37*
G36*
X16748Y146153D02*
X14279D01*
Y143685D01*
X16748D01*
Y146153D01*
D02*
G37*
G36*
X9014Y138992D02*
X6545D01*
Y137311D01*
X9014D01*
Y138992D01*
D02*
G37*
G36*
Y136311D02*
X6545D01*
Y134630D01*
X9014D01*
Y136311D01*
D02*
G37*
G36*
X194315Y139264D02*
X188893D01*
Y134433D01*
X194315D01*
Y139264D01*
D02*
G37*
G36*
X140666Y128957D02*
X137205D01*
X133745D01*
Y127335D01*
X133744Y127079D01*
X133745Y126579D01*
Y124958D01*
X137205D01*
X140666D01*
Y126579D01*
X140666Y126835D01*
X140666Y127335D01*
Y128957D01*
D02*
G37*
G36*
Y123958D02*
X137205D01*
X133745D01*
Y122335D01*
X133744Y122080D01*
X133745Y121580D01*
Y119957D01*
X137205D01*
X140666D01*
Y121580D01*
X140666Y121835D01*
X140666Y122335D01*
Y123958D01*
D02*
G37*
G36*
X159563Y119765D02*
X156496D01*
X153429D01*
Y118083D01*
X154967D01*
Y109995D01*
X154847Y109913D01*
X154347Y110177D01*
Y113981D01*
X151288D01*
Y106288D01*
Y98595D01*
X154347D01*
Y104890D01*
X154822Y105207D01*
X157578Y107963D01*
X157909Y108459D01*
X158026Y109044D01*
Y118083D01*
X159563D01*
Y119765D01*
D02*
G37*
G36*
X150288Y113981D02*
X147229D01*
Y106788D01*
X150288D01*
Y113981D01*
D02*
G37*
G36*
Y105788D02*
X147229D01*
Y98595D01*
X150288D01*
Y105788D01*
D02*
G37*
%LPD*%
G36*
X157401Y119097D02*
X157316Y119067D01*
X157241Y119016D01*
X157176Y118946D01*
X157121Y118854D01*
X157076Y118743D01*
X157041Y118612D01*
X157016Y118460D01*
X157001Y118288D01*
X156996Y118096D01*
X155996D01*
X155991Y118288D01*
X155976Y118460D01*
X155951Y118612D01*
X155916Y118743D01*
X155871Y118854D01*
X155816Y118946D01*
X155751Y119016D01*
X155676Y119067D01*
X155591Y119097D01*
X155496Y119107D01*
X157496D01*
X157401Y119097D01*
D02*
G37*
%LPC*%
G36*
X170193Y122446D02*
X167626D01*
Y120765D01*
X170193D01*
Y122446D01*
D02*
G37*
G36*
X166626D02*
X164059D01*
Y120765D01*
X166626D01*
Y122446D01*
D02*
G37*
G36*
X194837Y123088D02*
X194032Y122982D01*
X192816Y122478D01*
X191771Y121676D01*
X190970Y120632D01*
X190466Y119415D01*
X190360Y118610D01*
X194837D01*
Y123088D01*
D02*
G37*
G36*
Y117610D02*
X190360D01*
X190466Y116805D01*
X190970Y115589D01*
X191771Y114544D01*
X192816Y113743D01*
X194032Y113239D01*
X194837Y113133D01*
Y117610D01*
D02*
G37*
G36*
Y111288D02*
X194032Y111181D01*
X192816Y110678D01*
X191771Y109876D01*
X190970Y108832D01*
X190466Y107615D01*
X190360Y106810D01*
X194837D01*
Y111288D01*
D02*
G37*
G36*
X177575Y113981D02*
X174516D01*
Y106788D01*
X177575D01*
Y113981D01*
D02*
G37*
G36*
X194837Y105810D02*
X190360D01*
X190466Y105005D01*
X190970Y103789D01*
X191771Y102744D01*
X192816Y101943D01*
X194032Y101439D01*
X194837Y101333D01*
Y105810D01*
D02*
G37*
G36*
X177575Y105788D02*
X174516D01*
Y98595D01*
X177575D01*
Y105788D01*
D02*
G37*
G36*
X170193Y119765D02*
X167126D01*
X164059D01*
Y118083D01*
X165597D01*
Y109241D01*
X165713Y108655D01*
X166045Y108159D01*
X168997Y105207D01*
X169494Y104875D01*
X170079Y104759D01*
X170457D01*
Y98595D01*
X173516D01*
Y106288D01*
Y113981D01*
X170457D01*
Y108726D01*
X169995Y108535D01*
X168656Y109874D01*
Y118083D01*
X170193D01*
Y119765D01*
D02*
G37*
%LPD*%
G36*
X168031Y119097D02*
X167946Y119067D01*
X167871Y119016D01*
X167806Y118946D01*
X167751Y118854D01*
X167706Y118743D01*
X167671Y118612D01*
X167646Y118460D01*
X167631Y118288D01*
X167626Y118096D01*
X166626D01*
X166621Y118288D01*
X166606Y118460D01*
X166581Y118612D01*
X166546Y118743D01*
X166501Y118854D01*
X166446Y118946D01*
X166381Y119016D01*
X166306Y119067D01*
X166221Y119097D01*
X166126Y119107D01*
X168126D01*
X168031Y119097D01*
D02*
G37*
G36*
X171469Y105288D02*
X171459Y105383D01*
X171429Y105468D01*
X171379Y105543D01*
X171309Y105608D01*
X171219Y105663D01*
X171109Y105708D01*
X170979Y105743D01*
X170829Y105768D01*
X170659Y105783D01*
X170469Y105788D01*
Y106788D01*
X170659Y106793D01*
X170829Y106808D01*
X170979Y106833D01*
X171109Y106868D01*
X171219Y106913D01*
X171309Y106968D01*
X171379Y107033D01*
X171429Y107108D01*
X171459Y107193D01*
X171469Y107288D01*
Y105288D01*
D02*
G37*
%LPC*%
G36*
X194315Y84146D02*
X188893D01*
Y79315D01*
X194315D01*
Y84146D01*
D02*
G37*
G36*
X140666Y73839D02*
X137205D01*
X133745D01*
Y72217D01*
X133745Y71961D01*
X133745Y71461D01*
Y69839D01*
X137205D01*
X140666D01*
Y71461D01*
X140666Y71717D01*
X140666Y72217D01*
Y73839D01*
D02*
G37*
G36*
Y68839D02*
X137205D01*
X133745D01*
Y67217D01*
X133745Y66961D01*
X133745Y66461D01*
Y64839D01*
X137205D01*
X140666D01*
Y66461D01*
X140666Y66717D01*
X140666Y67217D01*
Y68839D01*
D02*
G37*
G36*
X159563Y64646D02*
X156496D01*
X153429D01*
Y62965D01*
X154967D01*
Y54877D01*
X154847Y54795D01*
X154347Y55058D01*
Y58863D01*
X151288D01*
Y51170D01*
Y43477D01*
X154347D01*
Y49771D01*
X154822Y50089D01*
X157578Y52845D01*
X157909Y53341D01*
X158026Y53926D01*
Y62965D01*
X159563D01*
Y64646D01*
D02*
G37*
G36*
X150288Y58863D02*
X147229D01*
Y51670D01*
X150288D01*
Y58863D01*
D02*
G37*
G36*
Y50670D02*
X147229D01*
Y43477D01*
X150288D01*
Y50670D01*
D02*
G37*
%LPD*%
G36*
X157401Y63979D02*
X157316Y63949D01*
X157241Y63898D01*
X157176Y63827D01*
X157121Y63736D01*
X157076Y63625D01*
X157041Y63494D01*
X157016Y63342D01*
X157001Y63170D01*
X156996Y62977D01*
X155996D01*
X155991Y63170D01*
X155976Y63342D01*
X155951Y63494D01*
X155916Y63625D01*
X155871Y63736D01*
X155816Y63827D01*
X155751Y63898D01*
X155676Y63949D01*
X155591Y63979D01*
X155496Y63989D01*
X157496D01*
X157401Y63979D01*
D02*
G37*
%LPC*%
G36*
X170193Y67327D02*
X167626D01*
Y65646D01*
X170193D01*
Y67327D01*
D02*
G37*
G36*
X166626D02*
X164059D01*
Y65646D01*
X166626D01*
Y67327D01*
D02*
G37*
G36*
X194837Y67969D02*
X194032Y67863D01*
X192816Y67360D01*
X191771Y66558D01*
X190970Y65514D01*
X190466Y64297D01*
X190360Y63492D01*
X194837D01*
Y67969D01*
D02*
G37*
G36*
Y62492D02*
X190360D01*
X190466Y61687D01*
X190970Y60471D01*
X191771Y59426D01*
X192816Y58625D01*
X194032Y58121D01*
X194837Y58015D01*
Y62492D01*
D02*
G37*
G36*
Y56169D02*
X194032Y56063D01*
X192816Y55560D01*
X191771Y54758D01*
X190970Y53714D01*
X190466Y52497D01*
X190360Y51692D01*
X194837D01*
Y56169D01*
D02*
G37*
G36*
X177575Y58863D02*
X174516D01*
Y51670D01*
X177575D01*
Y58863D01*
D02*
G37*
G36*
X194837Y50692D02*
X190360D01*
X190466Y49887D01*
X190970Y48671D01*
X191771Y47626D01*
X192816Y46825D01*
X194032Y46321D01*
X194837Y46215D01*
Y50692D01*
D02*
G37*
G36*
X177575Y50670D02*
X174516D01*
Y43477D01*
X177575D01*
Y50670D01*
D02*
G37*
G36*
X170193Y64646D02*
X167126D01*
X164059D01*
Y62965D01*
X165597D01*
Y54123D01*
X165713Y53537D01*
X166045Y53041D01*
X168997Y50089D01*
X169494Y49757D01*
X170079Y49641D01*
X170457D01*
Y43477D01*
X173516D01*
Y51170D01*
Y58863D01*
X170457D01*
Y53608D01*
X169995Y53417D01*
X168656Y54756D01*
Y62965D01*
X170193D01*
Y64646D01*
D02*
G37*
%LPD*%
G36*
X168031Y63979D02*
X167946Y63949D01*
X167871Y63898D01*
X167806Y63827D01*
X167751Y63736D01*
X167706Y63625D01*
X167671Y63494D01*
X167646Y63342D01*
X167631Y63170D01*
X167626Y62977D01*
X166626D01*
X166621Y63170D01*
X166606Y63342D01*
X166581Y63494D01*
X166546Y63625D01*
X166501Y63736D01*
X166446Y63827D01*
X166381Y63898D01*
X166306Y63949D01*
X166221Y63979D01*
X166126Y63989D01*
X168126D01*
X168031Y63979D01*
D02*
G37*
G36*
X171469Y50170D02*
X171459Y50265D01*
X171429Y50350D01*
X171379Y50425D01*
X171309Y50490D01*
X171219Y50545D01*
X171109Y50590D01*
X170979Y50625D01*
X170829Y50650D01*
X170659Y50665D01*
X170469Y50670D01*
Y51670D01*
X170659Y51675D01*
X170829Y51690D01*
X170979Y51715D01*
X171109Y51750D01*
X171219Y51795D01*
X171309Y51850D01*
X171379Y51915D01*
X171429Y51990D01*
X171459Y52075D01*
X171469Y52170D01*
Y50170D01*
D02*
G37*
D13*
X37402Y4528D02*
Y7874D01*
Y4528D02*
X37992Y3937D01*
X161417Y182863D02*
X161417Y182863D01*
X123031Y172244D02*
X123032Y172244D01*
Y182076D01*
X123031Y191929D02*
X123032Y191929D01*
Y182076D02*
Y191929D01*
X110595Y182056D02*
X110615Y182076D01*
X123032D01*
X123031Y117126D02*
X123032Y117126D01*
Y126957D01*
X123031Y136811D02*
X123032Y136811D01*
Y126957D02*
Y136811D01*
X110595Y126938D02*
X110615Y126957D01*
X123032D01*
X123031Y61024D02*
X123032Y61024D01*
Y71839D01*
X123031Y81693D02*
X123032Y81693D01*
Y71839D02*
Y81693D01*
X110595Y71820D02*
X110615Y71839D01*
X123032D01*
X137137Y38386D02*
X141468D01*
X136654Y38217D02*
X136811Y38060D01*
X137137Y38386D01*
X115326D02*
X122047D01*
X115158Y48217D02*
X121772D01*
X115158Y38217D02*
X115326Y38386D01*
X121772Y48217D02*
X121783Y48228D01*
X75894Y111327D02*
X82677Y118110D01*
X77248Y108744D02*
X82677Y114173D01*
X77248Y80729D02*
Y108744D01*
X78602Y105177D02*
X82677Y109252D01*
X78602Y81290D02*
Y105177D01*
X138779Y194882D02*
X141732D01*
X136811Y79733D02*
Y82677D01*
X138747Y84613D02*
X141732D01*
X136811Y82677D02*
X138747Y84613D01*
X136811Y79733D02*
X137205Y79339D01*
X136811Y189970D02*
Y192913D01*
X138779Y194882D01*
X136811Y189970D02*
X137205Y189576D01*
X136811Y134852D02*
Y137795D01*
X138779Y139764D01*
X141204D01*
X141468Y139500D01*
X161417Y127745D02*
X161417Y127745D01*
X156496Y127745D02*
X161417D01*
X169477Y134044D02*
X174213D01*
X169291Y133858D02*
X169384Y133951D01*
X169477Y134044D01*
X156496Y179123D02*
X163609D01*
X96457Y154123D02*
X96457Y154123D01*
X121150Y148453D02*
X121234Y148538D01*
X19159Y132874D02*
X23622D01*
X99410Y197835D02*
X104331D01*
X156496Y68887D02*
X161418D01*
X99409Y197835D02*
X99410Y197835D01*
X99409Y203740D02*
X104331D01*
X94488Y200787D02*
Y202756D01*
X90551Y197835D02*
X99409D01*
X77756Y197835D02*
X77756Y197835D01*
X81693D01*
X90551Y203740D02*
X93504D01*
X94488Y202756D01*
X81693Y203740D02*
X84646D01*
X86122Y202264D01*
Y198327D02*
Y202264D01*
X2953Y146653D02*
X7480D01*
X156496Y72627D02*
X161417D01*
X161417Y72627D01*
X109409Y148453D02*
X115158D01*
X106299Y151564D02*
X109409Y148453D01*
X106288Y151575D02*
X106299Y151564D01*
X101378Y151575D02*
X106288D01*
X98830Y154123D02*
X101378Y151575D01*
X96457Y154123D02*
X98830D01*
X109409Y93335D02*
X115158D01*
X106299Y96446D02*
X109409Y93335D01*
X106288Y96457D02*
X106299Y96446D01*
X101378Y96457D02*
X106288D01*
X98830Y99005D02*
X101378Y96457D01*
X96457Y99005D02*
X98830D01*
X109409Y38217D02*
X115158D01*
X106299Y41328D02*
X109409Y38217D01*
X106288Y41339D02*
X106299Y41328D01*
X100394Y41339D02*
X106288D01*
X97846Y43887D02*
X100394Y41339D01*
X96457Y43887D02*
X97846D01*
X65945Y62992D02*
X69882D01*
X65945Y62992D02*
X65945Y62992D01*
X69882Y57087D02*
X69882Y57087D01*
X56260Y57087D02*
X69882D01*
X29528Y36417D02*
X34827D01*
X81077Y78815D02*
X81077D01*
X87598Y28543D02*
Y72294D01*
X78602Y81290D02*
X81077Y78815D01*
X81077D02*
X87598Y72294D01*
X77386Y79110D02*
X86244Y70252D01*
X77386Y79110D02*
Y80591D01*
X77248Y80729D02*
X77386Y80591D01*
X86244Y25961D02*
Y70252D01*
X76032Y77512D02*
X84890Y68654D01*
X76032Y77512D02*
Y80030D01*
X75894Y80168D02*
X76032Y80030D01*
X69382Y127469D02*
X69882Y126969D01*
X64961Y127469D02*
X69382D01*
X59055Y148622D02*
X60039D01*
X64961Y143701D01*
X65551Y84646D02*
X65945Y84252D01*
Y75787D02*
Y84252D01*
X64961Y74803D02*
X65945Y75787D01*
X57087Y74803D02*
X64961D01*
X121150Y93335D02*
X121234Y93420D01*
X121772Y158454D02*
X121783Y158465D01*
X115158Y103335D02*
X121772D01*
X121783Y103347D01*
X86909Y140598D02*
X87081Y140427D01*
X86909Y140598D02*
Y140598D01*
X84646Y137992D02*
X87081Y140427D01*
X115158Y93335D02*
X121150D01*
X87402Y133858D02*
X93504D01*
X74803Y121260D02*
X87402Y133858D01*
X74803Y137992D02*
X84646D01*
X74606Y137795D02*
X74803Y137992D01*
X64961Y137795D02*
X74606D01*
X156496Y124005D02*
X161418D01*
X169291Y188976D02*
X169477Y189162D01*
X174213D01*
X115158Y148453D02*
X121150D01*
X170276Y78740D02*
X174027D01*
X174213Y78926D01*
X115158Y158454D02*
X121772D01*
X74319Y121744D02*
X74803Y121260D01*
X64961Y121744D02*
X74319D01*
X142717Y15748D02*
X142717Y15748D01*
X138779Y15748D02*
X142717D01*
X167520Y5299D02*
X176181D01*
X142717Y7874D02*
X142717Y7874D01*
X2953Y153543D02*
X7480D01*
X102415Y7874D02*
X120079D01*
X84890Y25400D02*
X102415Y7874D01*
X87598Y28543D02*
X91535Y24606D01*
X120079D01*
X86244Y25961D02*
X96457Y15748D01*
X120079D01*
X167520Y23016D02*
X167709Y22827D01*
X174024D02*
X174213Y22638D01*
X167709Y22827D02*
X174024D01*
X200213Y22638D02*
X200591Y23016D01*
X193898Y22638D02*
X200213D01*
X190945Y5299D02*
X200591D01*
X200591Y5299D01*
X166732Y4512D02*
X167520Y5299D01*
X156496Y4512D02*
X166732D01*
X138779Y7874D02*
X142717D01*
Y24606D02*
X142717Y24606D01*
X138779Y24606D02*
X142717D01*
X75894Y80168D02*
Y111327D01*
X84890Y25400D02*
Y68654D01*
X120079Y7874D02*
X120079Y7874D01*
X120079Y15748D02*
X120079Y15748D01*
X120079Y24606D02*
X120079Y24606D01*
X125984Y7874D02*
X132874D01*
X125984Y15748D02*
X132874D01*
X124924Y24606D02*
X132874D01*
X41339Y10827D02*
Y15184D01*
Y10827D02*
X44685Y7480D01*
Y3937D02*
Y7480D01*
X18962Y133071D02*
X19159Y132874D01*
X56102Y62992D02*
X65945D01*
X54134Y64961D02*
X56102Y62992D01*
X54134Y54961D02*
X56260Y57087D01*
X156496Y182863D02*
X161417D01*
X167126Y164359D02*
Y175383D01*
X170079Y161406D02*
X174016D01*
X167126Y164359D02*
X170079Y161406D01*
X156496Y175382D02*
X156496Y175383D01*
X156496Y164162D02*
Y175382D01*
X153740Y161406D02*
X156496Y164162D01*
X150788Y161406D02*
X153740D01*
X137137Y148622D02*
X141468D01*
X136811Y148296D02*
X137137Y148622D01*
X136654Y148453D02*
X136811Y148296D01*
X167126Y109241D02*
Y120265D01*
X170079Y106288D02*
X174016D01*
X167126Y109241D02*
X170079Y106288D01*
X156496Y120264D02*
X156496Y120265D01*
X156496Y109044D02*
Y120264D01*
X153740Y106288D02*
X156496Y109044D01*
X150788Y106288D02*
X153740D01*
X137137Y93504D02*
X141468D01*
X136811Y93178D02*
X137137Y93504D01*
X136811Y134852D02*
X137205Y134458D01*
X136654Y93335D02*
X136811Y93178D01*
X153740Y51170D02*
X156496Y53926D01*
Y65146D02*
X156496Y65146D01*
X170079Y51170D02*
X174016D01*
X156496Y53926D02*
Y65146D01*
X167126Y54123D02*
Y65146D01*
X150788Y51170D02*
X153740D01*
X167126Y54123D02*
X170079Y51170D01*
D15*
X175197Y213583D02*
Y213583D01*
X169291Y200787D02*
X175197Y206693D01*
X144213Y200787D02*
X169291D01*
X138307Y206693D02*
X144213Y200787D01*
X168307Y206693D02*
X175197Y213583D01*
X173228Y222441D02*
X175197Y220472D01*
X164370Y222441D02*
X173228D01*
X163386Y221457D02*
X164370Y222441D01*
X163386Y211772D02*
Y221457D01*
X158307Y206693D02*
X163386Y211772D01*
D20*
X115158Y53217D02*
D03*
Y163453D02*
D03*
Y108335D02*
D03*
D21*
Y48217D02*
D03*
Y43217D02*
D03*
Y38217D02*
D03*
X136654Y53217D02*
D03*
Y48217D02*
D03*
Y43217D02*
D03*
Y38217D02*
D03*
X115158Y158454D02*
D03*
Y153454D02*
D03*
Y148453D02*
D03*
X136654Y163453D02*
D03*
Y158454D02*
D03*
Y153454D02*
D03*
Y148453D02*
D03*
X115158Y103335D02*
D03*
Y98335D02*
D03*
Y93335D02*
D03*
X136654Y108335D02*
D03*
Y103335D02*
D03*
Y98335D02*
D03*
Y93335D02*
D03*
D22*
X81693Y203740D02*
D03*
X81693Y197835D02*
D03*
X90551Y203740D02*
D03*
Y197835D02*
D03*
X99409D02*
D03*
Y203740D02*
D03*
D23*
X125712Y24606D02*
D03*
X119291D02*
D03*
D24*
X156496Y65146D02*
D03*
X167126D02*
D03*
Y72627D02*
D03*
X156496Y68887D02*
D03*
X156496Y72627D02*
D03*
X156496Y175383D02*
D03*
X167126D02*
D03*
Y182863D02*
D03*
X156496Y179123D02*
D03*
Y182863D02*
D03*
Y120265D02*
D03*
X167126D02*
D03*
Y127745D02*
D03*
X156496Y124005D02*
D03*
Y127745D02*
D03*
D25*
X69882Y62992D02*
D03*
Y57087D02*
D03*
X64961Y143701D02*
D03*
Y137795D02*
D03*
D26*
X167520Y23016D02*
D03*
X167520Y5299D02*
D03*
X200591Y23016D02*
D03*
D27*
Y5299D02*
D03*
D28*
X74803Y121260D02*
D03*
Y127953D02*
D03*
X156496Y11205D02*
D03*
Y4512D02*
D03*
D29*
X74803Y143701D02*
D03*
Y137992D02*
D03*
D30*
X64961Y127469D02*
D03*
Y121744D02*
D03*
D31*
X138779Y7874D02*
D03*
X132874D02*
D03*
X138779Y15748D02*
D03*
X132874D02*
D03*
X138779Y24606D02*
D03*
X132874D02*
D03*
D32*
X125984Y7874D02*
D03*
X120079D02*
D03*
X125984Y15748D02*
D03*
X120079D02*
D03*
D33*
X44685Y3937D02*
D03*
X37992D02*
D03*
D34*
X72244Y84646D02*
D03*
X65551D02*
D03*
D35*
X106299Y52745D02*
D03*
Y41328D02*
D03*
Y162981D02*
D03*
Y151564D02*
D03*
Y107863D02*
D03*
Y96446D02*
D03*
D36*
X72457Y75787D02*
D03*
X65945D02*
D03*
X41339Y36417D02*
D03*
X34827D02*
D03*
D37*
X78740Y49882D02*
D03*
Y60354D02*
D03*
D38*
X137205Y179576D02*
D03*
Y174576D02*
D03*
Y184576D02*
D03*
Y189576D02*
D03*
X137205Y69339D02*
D03*
Y64339D02*
D03*
Y74339D02*
D03*
Y79339D02*
D03*
X137205Y134458D02*
D03*
Y129457D02*
D03*
Y119457D02*
D03*
Y124458D02*
D03*
D39*
X123032Y182076D02*
D03*
X123032Y71839D02*
D03*
X123032Y126957D02*
D03*
D40*
X13780Y146653D02*
D03*
X7480D02*
D03*
X13780Y153543D02*
D03*
X7480D02*
D03*
D41*
X9514Y136811D02*
D03*
X18962Y140551D02*
D03*
Y133071D02*
D03*
D42*
X174016Y51170D02*
D03*
X150788D02*
D03*
Y161406D02*
D03*
X174016D02*
D03*
X150788Y106288D02*
D03*
X174016D02*
D03*
D43*
X213318Y84646D02*
D03*
X194815D02*
D03*
Y194882D02*
D03*
X213318D02*
D03*
X194815Y139764D02*
D03*
X213318D02*
D03*
D44*
X96457Y43887D02*
D03*
Y50186D02*
D03*
X174213Y72627D02*
D03*
Y78926D02*
D03*
Y189162D02*
D03*
Y182863D02*
D03*
X96457Y160422D02*
D03*
Y154123D02*
D03*
X174213Y134044D02*
D03*
Y127745D02*
D03*
X96457Y105304D02*
D03*
Y99005D02*
D03*
D80*
X78740Y60354D02*
Y64929D01*
X42323Y78740D02*
X55118Y91535D01*
X24606Y78740D02*
X42323D01*
X9514Y93833D02*
X24606Y78740D01*
X9514Y93833D02*
Y131890D01*
X72244Y76000D02*
X72457Y75787D01*
X78740Y69504D01*
Y49882D02*
X79055Y49567D01*
Y39370D02*
Y49567D01*
X72244Y76000D02*
Y84646D01*
Y89173D01*
X69882Y91535D02*
X72244Y89173D01*
X55118Y91535D02*
X69882D01*
D81*
X156496Y16732D02*
X156496Y16732D01*
Y11205D02*
Y16732D01*
X41339Y25184D02*
Y36417D01*
X18766Y140748D02*
X18962Y140551D01*
X14764Y140748D02*
X18766D01*
X13780Y139764D02*
X14764Y140748D01*
X13780Y129921D02*
Y139764D01*
Y129921D02*
X16732Y126969D01*
Y123031D02*
Y126969D01*
X24409Y140551D02*
X24606Y140748D01*
X18962Y140551D02*
X24409D01*
X167126Y127745D02*
X174213D01*
X178358Y72627D02*
X179134Y71850D01*
X174213Y72627D02*
X178358D01*
X167126D02*
X174213D01*
X178358Y127745D02*
X179134Y126969D01*
X174213Y127745D02*
X178358D01*
Y182863D02*
X179134Y182087D01*
X174213Y182863D02*
X178358D01*
X167126D02*
X174213D01*
X158307Y216693D02*
X158465Y216850D01*
D82*
X69882Y132874D02*
X74803Y127953D01*
X62008Y132874D02*
X69882D01*
X55118Y125984D02*
X62008Y132874D01*
X55118Y91535D02*
Y125984D01*
X130905Y156496D02*
Y170276D01*
X135205Y174576D02*
X137205D01*
X130905Y170276D02*
X135205Y174576D01*
X127863Y153454D02*
X130905Y156496D01*
X115158Y153454D02*
X127863D01*
X131890Y46260D02*
Y59024D01*
X137205Y64339D01*
X131890Y114142D02*
X137205Y119457D01*
X131890Y102362D02*
Y114142D01*
X127863Y98335D02*
X131890Y102362D01*
X115158Y98335D02*
X127863D01*
X128937Y43307D02*
X131890Y46260D01*
X115248Y43307D02*
X128937D01*
X115158Y43217D02*
X115248Y43307D01*
D83*
X213318Y194882D02*
X230315D01*
X213318Y139764D02*
X230315D01*
X213318Y84646D02*
X221817D01*
X230047D01*
D84*
X39370Y98110D02*
D03*
Y88110D02*
D03*
Y108110D02*
D03*
D85*
Y118110D02*
D03*
D86*
X62599Y219685D02*
D03*
X17717Y219685D02*
D03*
D87*
X62598Y169291D02*
D03*
X40157D02*
D03*
X17717D02*
D03*
X40157Y190945D02*
D03*
X62598Y190945D02*
D03*
X17717D02*
D03*
D88*
X148307Y206693D02*
D03*
X138307D02*
D03*
X158307D02*
D03*
X168307D02*
D03*
X148307Y216693D02*
D03*
X138307D02*
D03*
X158307D02*
D03*
X128307Y206693D02*
D03*
Y216693D02*
D03*
D89*
X168307D02*
D03*
D90*
X93504Y220472D02*
D03*
X15748Y15748D02*
D03*
X220472Y220472D02*
D03*
Y15748D02*
D03*
D91*
X39370Y64961D02*
D03*
D92*
Y54961D02*
D03*
D93*
X207137Y173228D02*
D03*
X195337D02*
D03*
X207137Y161429D02*
D03*
X195337Y161428D02*
D03*
Y51192D02*
D03*
X207137Y51193D02*
D03*
X195337Y62992D02*
D03*
X207137D02*
D03*
Y118110D02*
D03*
X195337D02*
D03*
X207137Y106311D02*
D03*
X195337Y106310D02*
D03*
D94*
X224145Y167323D02*
D03*
Y57087D02*
D03*
Y112205D02*
D03*
D95*
X79055Y39370D02*
D03*
X69055D02*
D03*
D96*
X59055D02*
D03*
D97*
X41339Y25184D02*
D03*
Y15184D02*
D03*
X54134Y64961D02*
D03*
Y54961D02*
D03*
X82677Y82677D02*
D03*
X92677D02*
D03*
D98*
X48228Y136811D02*
D03*
X67913Y48228D02*
D03*
X78740Y69504D02*
D03*
X82209Y67207D02*
D03*
X78740Y64929D02*
D03*
X98425Y7874D02*
D03*
X90551D02*
D03*
X82677Y23622D02*
D03*
X86614Y15748D02*
D03*
X82677Y7874D02*
D03*
X74803Y23622D02*
D03*
X78740Y15748D02*
D03*
X74803Y7874D02*
D03*
X66929Y23622D02*
D03*
X70866Y15748D02*
D03*
X66929Y7874D02*
D03*
X59055Y70866D02*
D03*
X62992Y31496D02*
D03*
X59055Y23622D02*
D03*
X62992Y15748D02*
D03*
X59055Y7874D02*
D03*
X51181Y149606D02*
D03*
Y70866D02*
D03*
Y39370D02*
D03*
X55118Y31496D02*
D03*
X51181Y23622D02*
D03*
X55118Y15748D02*
D03*
X51181Y7874D02*
D03*
X47244Y110236D02*
D03*
Y31496D02*
D03*
Y15748D02*
D03*
X39370Y47244D02*
D03*
X31496D02*
D03*
X27559Y39370D02*
D03*
X31496Y31496D02*
D03*
X19685Y70866D02*
D03*
X11811D02*
D03*
X15748Y62992D02*
D03*
X11811Y55118D02*
D03*
X15748Y47244D02*
D03*
Y31496D02*
D03*
X7874Y78740D02*
D03*
Y62992D02*
D03*
X3937Y39370D02*
D03*
X7874Y31496D02*
D03*
X161417Y182863D02*
D03*
X163609Y179123D02*
D03*
X169477Y189162D02*
D03*
X37402Y7874D02*
D03*
X141468Y38386D02*
D03*
X122047D02*
D03*
X121783Y48228D02*
D03*
X88582Y95472D02*
D03*
X82677Y88583D02*
D03*
X107283Y71850D02*
D03*
Y67549D02*
D03*
X82677Y114173D02*
D03*
X78059Y157995D02*
D03*
X82677Y109252D02*
D03*
X81128Y141167D02*
D03*
X69882Y156496D02*
D03*
X85630Y92520D02*
D03*
X60039Y102362D02*
D03*
X82677Y118110D02*
D03*
X73819Y157480D02*
D03*
X86909Y140598D02*
D03*
X93504Y133858D02*
D03*
X175197Y213583D02*
D03*
Y206693D02*
D03*
Y220472D02*
D03*
X141732Y194882D02*
D03*
X96457Y166339D02*
D03*
X89567Y180118D02*
D03*
X156496Y16732D02*
D03*
X141732Y84613D02*
D03*
X141468Y139500D02*
D03*
X136811Y143701D02*
D03*
X161700Y127574D02*
D03*
X169384Y133951D02*
D03*
X121234Y148538D02*
D03*
X23622Y132874D02*
D03*
X27858Y133173D02*
D03*
X16732Y123031D02*
D03*
X24606Y140748D02*
D03*
X190945Y213583D02*
D03*
X179134Y126969D02*
D03*
Y71850D02*
D03*
Y182087D02*
D03*
X104331Y203740D02*
D03*
X94488Y200787D02*
D03*
X104331Y197840D02*
D03*
X77756Y197835D02*
D03*
X86122Y198327D02*
D03*
X41339Y231299D02*
D03*
X2953Y146653D02*
D03*
X161346Y68818D02*
D03*
X161417Y72835D02*
D03*
X29505Y36270D02*
D03*
X69882Y126969D02*
D03*
X59055Y148622D02*
D03*
X57087Y74803D02*
D03*
Y78740D02*
D03*
X121234Y93420D02*
D03*
X121783Y158465D02*
D03*
X141468Y93504D02*
D03*
X121783Y103347D02*
D03*
X161418Y124005D02*
D03*
X24606Y69882D02*
D03*
X16178Y81300D02*
D03*
X82677Y155512D02*
D03*
X141468Y148622D02*
D03*
X170276Y78740D02*
D03*
X183071Y16732D02*
D03*
X142717Y15748D02*
D03*
X142717Y7874D02*
D03*
X2953Y153543D02*
D03*
X193898Y22638D02*
D03*
X174024Y22827D02*
D03*
X190945Y4921D02*
D03*
X176181D02*
D03*
X142717Y24606D02*
D03*
X16579Y102370D02*
D03*
X24606Y50197D02*
D03*
X16701Y116149D02*
D03*
D99*
X230315Y194882D02*
D03*
X221814Y194740D02*
D03*
X230315Y139764D02*
D03*
X221814Y139622D02*
D03*
X230047Y84646D02*
D03*
X221817D02*
D03*
M02*
