G04*
G04 #@! TF.GenerationSoftware,Altium Limited,Altium Designer,20.2.6 (244)*
G04*
G04 Layer_Color=32768*
%FSLAX25Y25*%
%MOIN*%
G70*
G04*
G04 #@! TF.SameCoordinates,023A6027-31B4-44E3-9114-37264AD4D944*
G04*
G04*
G04 #@! TF.FilePolarity,Positive*
G04*
G01*
G75*
%ADD16C,0.00787*%
D16*
X79528Y195866D02*
X83858D01*
Y205709D01*
X79528Y205709D02*
X83858Y205709D01*
X79528Y195866D02*
X79528Y205709D01*
X88386Y195866D02*
X92716D01*
X92716Y205709D01*
X88386Y205709D02*
X92716Y205709D01*
X88386Y195866D02*
Y205709D01*
X97244Y195866D02*
Y205709D01*
X101575D01*
Y195866D02*
Y205709D01*
X97244Y195866D02*
X101575D01*
X115088Y20547D02*
Y28666D01*
Y20547D02*
X129915D01*
Y28666D01*
X115088D02*
X129915D01*
X67740Y118874D02*
Y130339D01*
X62181Y118874D02*
X67740D01*
X62181D02*
Y130339D01*
X67740Y130339D01*
X130905Y5709D02*
X140748Y5709D01*
X130905Y5709D02*
Y10039D01*
X140748Y10039D01*
Y5709D02*
Y10039D01*
X130905Y13583D02*
X140748Y13583D01*
X130905Y13583D02*
Y17913D01*
X140748Y17913D01*
Y13583D02*
Y17913D01*
X130905Y22441D02*
X140748Y22441D01*
X130905Y22441D02*
Y26772D01*
X140748Y26772D01*
Y22441D02*
Y26772D01*
X61697Y71826D02*
X76705D01*
X61697D02*
Y79748D01*
X76705D01*
Y71826D02*
Y79748D01*
X30579Y32456D02*
X45587D01*
X30579D02*
Y40378D01*
X45587D01*
Y32456D02*
Y40378D01*
M02*
