M48
;Layer_Color=9474304
;FILE_FORMAT=2:4
INCH,TZ
;TYPE=PLATED
T1F00S00C0.0118
T2F00S00C0.0350
T3F00S00C0.0354
T4F00S00C0.0394
T5F00S00C0.0400
T6F00S00C0.0728
T7F00S00C0.1181
T8F00S00C0.1201
T9F00S00C0.1220
%
T01
X787Y3150
X1575
X3150
X2950Y3627
X2756Y3937
X3150Y4724
X3937
X2461Y5020
X1575Y4724
X1181Y5512
X1575Y6299
X787
X1181Y7087
X1969
X2461Y6988
X1618Y8130
X787Y7874
X1658Y10237
X1670Y11615
X1673Y12303
X2362Y13287
X2786Y13317
X2461Y14075
X295Y14665
Y15354
X5118Y14961
X5906Y14862
X4823Y13681
X4724Y11024
X6004Y10236
X5709Y7874
Y7480
X5906Y7087
X5118
X7874Y6950
Y6493
X8221Y6721
X8268Y8858
X8563Y9252
X8858Y9547
X8268Y10925
Y11417
Y11811
X6988Y12697
X8113Y14117
X8691Y14060
X9350Y13386
X8268Y15551
X12123Y14854
X14147Y14862
Y13950
X13681Y14370
X14147Y9350
X14173Y8461
X12123Y9342
X12178Y10335
X10728Y7185
Y6755
X12178Y4823
X12205Y3839
X14147
X14272Y2461
X14272Y1575
X14272Y787
X9843Y787
X9055
X8268
X7480
X6693
X5906
X5118
X5512Y1575
X6299
X7087
X7874
X8661
X8268Y2362
X7480
X6693
X5906
X5118
X5512Y3150
X6299
X4724
X5118Y3937
X6791Y4823
X4724Y1575
X3740Y787
X394Y3937
X15650Y1673
X17402Y2283
X18307Y1673
X19390Y2264
X19094Y492
X17618
X17913Y7185
X17028Y7874
X16142Y7283
X16135Y6882
X16142Y12400
X16170Y12757
X16938Y13395
X17913Y12697
Y18209
X16948Y18916
X16142Y18286
X16361Y17912
X17520Y20669
Y21358
Y22047
X19094Y21358
X14173Y19488
X10433Y19784
Y20374
X9449Y20079
X8612Y19833
X7776Y19783
X8957Y18012
X9646Y16634
X7806Y15800
X7382Y15748
X6988Y15650
X12178Y15846
X4134Y23130
T02
X5906Y3937
X6906
X7906
X3937Y8811
Y9811
Y10811
Y11811
T03
X4134Y1518
Y2518
X5413Y5496
Y6496
X8268Y8268
X9268
T04
X22182Y8465
X23005
X23031Y13976
X22181Y13962
Y19474
X23031Y19488
T05
X3937Y5496
Y6496
X19534Y6299
Y5119
X20714Y5119
Y6299
Y10631
Y11811
X19534
Y10631
Y16143
Y17323
X20714
Y16143
X16831Y20669
X15831
Y21669
X16831
X14831
Y20669
X13831
Y21669
X12831
Y20669
T06
X1772Y16929
X1772Y19094
X4016Y19094
Y16929
X6260
Y19094
T07
X22415Y5709
Y11220
Y16732
T08
X1772Y21969
X6260Y21969
T09
X1575Y1575
X22047
Y22047
X9350
M30
