G04*
G04 #@! TF.GenerationSoftware,Altium Limited,Altium Designer,20.2.6 (244)*
G04*
G04 Layer_Color=255*
%FSLAX25Y25*%
%MOIN*%
G70*
G04*
G04 #@! TF.SameCoordinates,023A6027-31B4-44E3-9114-37264AD4D944*
G04*
G04*
G04 #@! TF.FilePolarity,Positive*
G04*
G01*
G75*
%ADD28R,0.03937X0.03543*%
%ADD29R,0.04134X0.03543*%
%ADD32R,0.03150X0.03937*%
%ADD33R,0.03543X0.03937*%
%ADD34R,0.04724X0.05512*%
%ADD36R,0.04560X0.03985*%
%ADD44R,0.03937X0.03937*%
%ADD84O,0.09000X0.07000*%
%ADD85R,0.09000X0.07000*%
%ADD86C,0.12008*%
%ADD87C,0.17717*%
%ADD88C,0.07000*%
%ADD89R,0.07000X0.07000*%
%ADD90C,0.19685*%
%ADD91R,0.09000X0.07500*%
%ADD92O,0.09000X0.07500*%
%ADD93C,0.08000*%
%ADD94C,0.11811*%
%ADD95O,0.07000X0.09000*%
%ADD96R,0.07000X0.09000*%
%ADD97C,0.04724*%
G04:AMPARAMS|DCode=102|XSize=25.59mil|YSize=64.96mil|CornerRadius=1.92mil|HoleSize=0mil|Usage=FLASHONLY|Rotation=90.000|XOffset=0mil|YOffset=0mil|HoleType=Round|Shape=RoundedRectangle|*
%AMROUNDEDRECTD102*
21,1,0.02559,0.06112,0,0,90.0*
21,1,0.02175,0.06496,0,0,90.0*
1,1,0.00384,0.03056,0.01088*
1,1,0.00384,0.03056,-0.01088*
1,1,0.00384,-0.03056,-0.01088*
1,1,0.00384,-0.03056,0.01088*
%
%ADD102ROUNDEDRECTD102*%
G04:AMPARAMS|DCode=103|XSize=12.3mil|YSize=70.41mil|CornerRadius=6.15mil|HoleSize=0mil|Usage=FLASHONLY|Rotation=270.000|XOffset=0mil|YOffset=0mil|HoleType=Round|Shape=RoundedRectangle|*
%AMROUNDEDRECTD103*
21,1,0.01230,0.05810,0,0,270.0*
21,1,0.00000,0.07041,0,0,270.0*
1,1,0.01230,-0.02905,0.00000*
1,1,0.01230,-0.02905,0.00000*
1,1,0.01230,0.02905,0.00000*
1,1,0.01230,0.02905,0.00000*
%
%ADD103ROUNDEDRECTD103*%
G04:AMPARAMS|DCode=104|XSize=70.41mil|YSize=12.3mil|CornerRadius=6.15mil|HoleSize=0mil|Usage=FLASHONLY|Rotation=270.000|XOffset=0mil|YOffset=0mil|HoleType=Round|Shape=RoundedRectangle|*
%AMROUNDEDRECTD104*
21,1,0.07041,0.00000,0,0,270.0*
21,1,0.05810,0.01230,0,0,270.0*
1,1,0.01230,0.00000,-0.02905*
1,1,0.01230,0.00000,0.02905*
1,1,0.01230,0.00000,0.02905*
1,1,0.01230,0.00000,-0.02905*
%
%ADD104ROUNDEDRECTD104*%
%ADD105R,0.01230X0.07041*%
%ADD106R,0.03543X0.04134*%
%ADD107R,0.03985X0.04560*%
%ADD108R,0.03740X0.02756*%
%ADD109R,0.07480X0.06299*%
%ADD110R,0.03150X0.02362*%
%ADD111R,0.02362X0.03937*%
D28*
X127689Y157874D02*
D03*
Y151181D02*
D03*
Y102756D02*
D03*
Y96063D02*
D03*
Y47638D02*
D03*
Y40945D02*
D03*
D29*
X161153Y189579D02*
D03*
Y194894D02*
D03*
X160889Y78543D02*
D03*
Y83858D02*
D03*
X161153Y139480D02*
D03*
Y134165D02*
D03*
D32*
X41339Y226378D02*
D03*
X47244D02*
D03*
D33*
X179331Y206693D02*
D03*
X186024D02*
D03*
X179331Y220472D02*
D03*
X186024D02*
D03*
X179331Y213583D02*
D03*
X186024D02*
D03*
X27559Y102362D02*
D03*
X20866D02*
D03*
X27559Y116142D02*
D03*
X20866D02*
D03*
X27559Y81693D02*
D03*
X20866D02*
D03*
Y123031D02*
D03*
X27559D02*
D03*
X27559Y88583D02*
D03*
X20866D02*
D03*
X27559Y95472D02*
D03*
X20866D02*
D03*
X27559Y109252D02*
D03*
X20866D02*
D03*
D34*
X83268Y168307D02*
D03*
X89961D02*
D03*
D36*
X108571Y86614D02*
D03*
X102059D02*
D03*
X89567Y159449D02*
D03*
X83055D02*
D03*
X50575Y92520D02*
D03*
X57087D02*
D03*
X50575Y83661D02*
D03*
X57087D02*
D03*
D44*
X43307Y133661D02*
D03*
Y139961D02*
D03*
X111221Y109252D02*
D03*
Y115551D02*
D03*
D84*
X39370Y98110D02*
D03*
Y88110D02*
D03*
Y108110D02*
D03*
D85*
Y118110D02*
D03*
D86*
X62599Y219685D02*
D03*
X17717Y219685D02*
D03*
D87*
X62598Y169291D02*
D03*
X40157D02*
D03*
X17717D02*
D03*
X40157Y190945D02*
D03*
X62598Y190945D02*
D03*
X17717D02*
D03*
D88*
X148307Y206693D02*
D03*
X138307D02*
D03*
X158307D02*
D03*
X168307D02*
D03*
X148307Y216693D02*
D03*
X138307D02*
D03*
X158307D02*
D03*
X128307Y206693D02*
D03*
Y216693D02*
D03*
D89*
X168307D02*
D03*
D90*
X93504Y220472D02*
D03*
X15748Y15748D02*
D03*
X220472Y220472D02*
D03*
Y15748D02*
D03*
D91*
X39370Y64961D02*
D03*
D92*
Y54961D02*
D03*
D93*
X207137Y173228D02*
D03*
X195337D02*
D03*
X207137Y161429D02*
D03*
X195337Y161428D02*
D03*
Y51192D02*
D03*
X207137Y51193D02*
D03*
X195337Y62992D02*
D03*
X207137D02*
D03*
Y118110D02*
D03*
X195337D02*
D03*
X207137Y106311D02*
D03*
X195337Y106310D02*
D03*
D94*
X224145Y167323D02*
D03*
Y57087D02*
D03*
Y112205D02*
D03*
D95*
X79055Y39370D02*
D03*
X69055D02*
D03*
D96*
X59055D02*
D03*
D97*
X41339Y25184D02*
D03*
Y15184D02*
D03*
X54134Y64961D02*
D03*
Y54961D02*
D03*
X82677Y82677D02*
D03*
X92677D02*
D03*
D102*
X89862Y68524D02*
D03*
Y63524D02*
D03*
Y58524D02*
D03*
Y53524D02*
D03*
X67618Y68524D02*
D03*
Y63524D02*
D03*
Y58524D02*
D03*
Y53524D02*
D03*
D103*
X56102Y139764D02*
D03*
Y137795D02*
D03*
Y135827D02*
D03*
Y133858D02*
D03*
X56102Y131890D02*
D03*
Y129921D02*
D03*
Y127953D02*
D03*
X56102Y125984D02*
D03*
Y124016D02*
D03*
X56102Y122047D02*
D03*
Y120079D02*
D03*
Y118110D02*
D03*
Y116142D02*
D03*
X56102Y114173D02*
D03*
Y112205D02*
D03*
Y110236D02*
D03*
X100915D02*
D03*
Y112205D02*
D03*
Y114173D02*
D03*
Y116142D02*
D03*
Y118110D02*
D03*
Y120079D02*
D03*
Y122047D02*
D03*
Y124016D02*
D03*
Y125984D02*
D03*
Y127953D02*
D03*
Y129921D02*
D03*
Y131890D02*
D03*
Y133858D02*
D03*
Y135827D02*
D03*
Y137795D02*
D03*
Y139764D02*
D03*
D104*
X63745Y102594D02*
D03*
X65713D02*
D03*
X67682D02*
D03*
X69650D02*
D03*
X71619D02*
D03*
X73587D02*
D03*
X75556D02*
D03*
X77525D02*
D03*
X79493D02*
D03*
X81462D02*
D03*
X83430D02*
D03*
X85399D02*
D03*
X87367D02*
D03*
X89336D02*
D03*
X91304D02*
D03*
X93273D02*
D03*
Y147406D02*
D03*
X91304D02*
D03*
X89336D02*
D03*
X87367D02*
D03*
X85399Y147406D02*
D03*
X83430D02*
D03*
X81462D02*
D03*
X79493Y147406D02*
D03*
X77525D02*
D03*
X75556Y147406D02*
D03*
X73588D02*
D03*
X71619D02*
D03*
X69650Y147406D02*
D03*
X67682D02*
D03*
X65713D02*
D03*
D105*
X63745D02*
D03*
D106*
X41634Y207677D02*
D03*
X46949D02*
D03*
X41339Y217520D02*
D03*
X47047Y217520D02*
D03*
D107*
X130905Y143323D02*
D03*
Y136811D02*
D03*
X34449Y134236D02*
D03*
Y140748D02*
D03*
X183071Y5299D02*
D03*
Y11811D02*
D03*
X122047Y136811D02*
D03*
Y143323D02*
D03*
D108*
X83366Y175197D02*
D03*
X89862D02*
D03*
D109*
X112205Y135827D02*
D03*
Y147244D02*
D03*
D110*
X98425Y55512D02*
D03*
Y60630D02*
D03*
Y68898D02*
D03*
Y74016D02*
D03*
D111*
X24606Y74606D02*
D03*
X20866Y65158D02*
D03*
X28346D02*
D03*
X24606Y45472D02*
D03*
X28346Y54921D02*
D03*
X20866D02*
D03*
M02*
