G04*
G04 #@! TF.GenerationSoftware,Altium Limited,Altium Designer,20.2.6 (244)*
G04*
G04 Layer_Color=8388736*
%FSLAX25Y25*%
%MOIN*%
G70*
G04*
G04 #@! TF.SameCoordinates,023A6027-31B4-44E3-9114-37264AD4D944*
G04*
G04*
G04 #@! TF.FilePolarity,Positive*
G04*
G01*
G75*
%ADD121C,0.00039*%
D121*
X90551Y177756D02*
Y177559D01*
X90420D01*
X90322Y177690D02*
X90256D01*
X90223Y177657D01*
Y177559D01*
X90322D01*
X90354Y177592D01*
X90322Y177625D01*
X90223D01*
X90158Y177559D02*
Y177690D01*
X90059D01*
X90026Y177657D01*
Y177559D01*
X89830Y177756D02*
Y177559D01*
X89928D01*
X89961Y177592D01*
Y177657D01*
X89928Y177690D01*
X89830D01*
X89567Y177559D02*
Y177756D01*
X89469D01*
X89436Y177723D01*
Y177657D01*
X89469Y177625D01*
X89567D01*
X89338Y177690D02*
X89272D01*
X89239Y177657D01*
Y177559D01*
X89338D01*
X89370Y177592D01*
X89338Y177625D01*
X89239D01*
X89141Y177723D02*
Y177690D01*
X89174D01*
X89108D01*
X89141D01*
Y177592D01*
X89108Y177559D01*
X88977Y177723D02*
Y177690D01*
X89010D01*
X88944D01*
X88977D01*
Y177592D01*
X88944Y177559D01*
X88747D02*
X88813D01*
X88846Y177592D01*
Y177657D01*
X88813Y177690D01*
X88747D01*
X88714Y177657D01*
Y177625D01*
X88846D01*
X88649Y177690D02*
Y177559D01*
Y177625D01*
X88616Y177657D01*
X88583Y177690D01*
X88551D01*
X88452Y177559D02*
Y177690D01*
X88354D01*
X88321Y177657D01*
Y177559D01*
X88059D02*
Y177690D01*
X87993Y177756D01*
X87927Y177690D01*
Y177559D01*
Y177657D01*
X88059D01*
X87730Y177756D02*
Y177559D01*
X87829D01*
X87862Y177592D01*
Y177657D01*
X87829Y177690D01*
X87730D01*
X87632D02*
X87567D01*
X87534Y177657D01*
Y177559D01*
X87632D01*
X87665Y177592D01*
X87632Y177625D01*
X87534D01*
X87468Y177494D02*
Y177690D01*
X87370D01*
X87337Y177657D01*
Y177592D01*
X87370Y177559D01*
X87468D01*
X87239Y177723D02*
Y177690D01*
X87271D01*
X87206D01*
X87239D01*
Y177592D01*
X87206Y177559D01*
X87009D02*
X87075D01*
X87107Y177592D01*
Y177657D01*
X87075Y177690D01*
X87009D01*
X86976Y177657D01*
Y177625D01*
X87107D01*
X86779Y177756D02*
Y177559D01*
X86878D01*
X86911Y177592D01*
Y177657D01*
X86878Y177690D01*
X86779D01*
X86484Y177559D02*
Y177723D01*
Y177657D01*
X86517D01*
X86451D01*
X86484D01*
Y177723D01*
X86451Y177756D01*
X86320Y177559D02*
X86255D01*
X86222Y177592D01*
Y177657D01*
X86255Y177690D01*
X86320D01*
X86353Y177657D01*
Y177592D01*
X86320Y177559D01*
X86156Y177690D02*
Y177559D01*
Y177625D01*
X86123Y177657D01*
X86091Y177690D01*
X86058D01*
X85631Y177756D02*
X85763D01*
Y177657D01*
X85697D01*
X85763D01*
Y177559D01*
X85566D02*
X85500D01*
X85533D01*
Y177756D01*
X85566D01*
X85369Y177559D02*
X85303D01*
X85271Y177592D01*
Y177657D01*
X85303Y177690D01*
X85369D01*
X85402Y177657D01*
Y177592D01*
X85369Y177559D01*
X85205Y177690D02*
Y177592D01*
X85172Y177559D01*
X85140Y177592D01*
X85107Y177559D01*
X85074Y177592D01*
Y177690D01*
X84680Y177723D02*
X84713Y177756D01*
X84779D01*
X84812Y177723D01*
Y177690D01*
X84779Y177657D01*
X84713D01*
X84680Y177625D01*
Y177592D01*
X84713Y177559D01*
X84779D01*
X84812Y177592D01*
X84582Y177559D02*
X84516D01*
X84483Y177592D01*
Y177657D01*
X84516Y177690D01*
X84582D01*
X84615Y177657D01*
Y177592D01*
X84582Y177559D01*
X84418D02*
X84352D01*
X84385D01*
Y177756D01*
X84418D01*
X84123D02*
Y177559D01*
X84221D01*
X84254Y177592D01*
Y177657D01*
X84221Y177690D01*
X84123D01*
X83959Y177559D02*
X84024D01*
X84057Y177592D01*
Y177657D01*
X84024Y177690D01*
X83959D01*
X83926Y177657D01*
Y177625D01*
X84057D01*
X83860Y177690D02*
Y177559D01*
Y177625D01*
X83828Y177657D01*
X83795Y177690D01*
X83762D01*
X83663Y177559D02*
X83598D01*
X83631D01*
Y177690D01*
X83663D01*
X83499Y177559D02*
Y177690D01*
X83401D01*
X83368Y177657D01*
Y177559D01*
X83237Y177494D02*
X83204D01*
X83172Y177526D01*
Y177690D01*
X83270D01*
X83303Y177657D01*
Y177592D01*
X83270Y177559D01*
X83172D01*
M02*
