G04*
G04 #@! TF.GenerationSoftware,Altium Limited,Altium Designer,20.2.6 (244)*
G04*
G04 Layer_Color=8421504*
%FSLAX25Y25*%
%MOIN*%
G70*
G04*
G04 #@! TF.SameCoordinates,023A6027-31B4-44E3-9114-37264AD4D944*
G04*
G04*
G04 #@! TF.FilePolarity,Positive*
G04*
G01*
G75*
%ADD20R,0.04488X0.03583*%
%ADD21O,0.04488X0.03583*%
%ADD22R,0.03150X0.03150*%
%ADD23R,0.04469X0.04182*%
%ADD24R,0.04134X0.02362*%
%ADD25R,0.03937X0.03150*%
%ADD26O,0.07874X0.05118*%
%ADD27R,0.07874X0.05118*%
%ADD28R,0.03937X0.03543*%
%ADD29R,0.04134X0.03543*%
%ADD30R,0.03591X0.03772*%
%ADD31R,0.03150X0.03150*%
%ADD32R,0.03150X0.03937*%
%ADD33R,0.03543X0.03937*%
%ADD34R,0.04724X0.05512*%
%ADD35R,0.07087X0.05118*%
%ADD36R,0.04560X0.03985*%
%ADD37R,0.07008X0.05591*%
%ADD38R,0.04921X0.02756*%
%ADD39R,0.04528X0.02756*%
%ADD40R,0.03937X0.03937*%
%ADD41R,0.03937X0.02362*%
%ADD42R,0.05118X0.13386*%
%ADD43R,0.09843X0.08661*%
%ADD44R,0.03937X0.03937*%
D20*
X115158Y53217D02*
D03*
Y163453D02*
D03*
Y108335D02*
D03*
D21*
Y48217D02*
D03*
Y43217D02*
D03*
Y38217D02*
D03*
X136654Y53217D02*
D03*
Y48217D02*
D03*
Y43217D02*
D03*
Y38217D02*
D03*
X115158Y158454D02*
D03*
Y153454D02*
D03*
Y148453D02*
D03*
X136654Y163453D02*
D03*
Y158454D02*
D03*
Y153454D02*
D03*
Y148453D02*
D03*
X115158Y103335D02*
D03*
Y98335D02*
D03*
Y93335D02*
D03*
X136654Y108335D02*
D03*
Y103335D02*
D03*
Y98335D02*
D03*
Y93335D02*
D03*
D22*
X81693Y203740D02*
D03*
X81693Y197835D02*
D03*
X90551Y203740D02*
D03*
Y197835D02*
D03*
X99409D02*
D03*
Y203740D02*
D03*
D23*
X125712Y24606D02*
D03*
X119291D02*
D03*
D24*
X156496Y65146D02*
D03*
X167126D02*
D03*
Y72627D02*
D03*
X156496Y68887D02*
D03*
X156496Y72627D02*
D03*
X156496Y175383D02*
D03*
X167126D02*
D03*
Y182863D02*
D03*
X156496Y179123D02*
D03*
Y182863D02*
D03*
Y120265D02*
D03*
X167126D02*
D03*
Y127745D02*
D03*
X156496Y124005D02*
D03*
Y127745D02*
D03*
D25*
X69882Y62992D02*
D03*
Y57087D02*
D03*
X64961Y143701D02*
D03*
Y137795D02*
D03*
D26*
X167520Y23016D02*
D03*
X167520Y5299D02*
D03*
X200591Y23016D02*
D03*
D27*
Y5299D02*
D03*
D28*
X74803Y121260D02*
D03*
Y127953D02*
D03*
X156496Y11205D02*
D03*
Y4512D02*
D03*
D29*
X74803Y143701D02*
D03*
Y137992D02*
D03*
D30*
X64961Y127469D02*
D03*
Y121744D02*
D03*
D31*
X138779Y7874D02*
D03*
X132874D02*
D03*
X138779Y15748D02*
D03*
X132874D02*
D03*
X138779Y24606D02*
D03*
X132874D02*
D03*
D32*
X125984Y7874D02*
D03*
X120079D02*
D03*
X125984Y15748D02*
D03*
X120079D02*
D03*
D33*
X44685Y3937D02*
D03*
X37992D02*
D03*
D34*
X72244Y84646D02*
D03*
X65551D02*
D03*
D35*
X106299Y52745D02*
D03*
Y41328D02*
D03*
Y162981D02*
D03*
Y151564D02*
D03*
Y107863D02*
D03*
Y96446D02*
D03*
D36*
X72457Y75787D02*
D03*
X65945D02*
D03*
X41339Y36417D02*
D03*
X34827D02*
D03*
D37*
X78740Y49882D02*
D03*
Y60354D02*
D03*
D38*
X137205Y179576D02*
D03*
Y174576D02*
D03*
Y184576D02*
D03*
Y189576D02*
D03*
X137205Y69339D02*
D03*
Y64339D02*
D03*
Y74339D02*
D03*
Y79339D02*
D03*
X137205Y134458D02*
D03*
Y129457D02*
D03*
Y119457D02*
D03*
Y124458D02*
D03*
D39*
X123032Y182076D02*
D03*
X123032Y71839D02*
D03*
X123032Y126957D02*
D03*
D40*
X13780Y146653D02*
D03*
X7480D02*
D03*
X13780Y153543D02*
D03*
X7480D02*
D03*
D41*
X9514Y136811D02*
D03*
X18962Y140551D02*
D03*
Y133071D02*
D03*
D42*
X174016Y51170D02*
D03*
X150788D02*
D03*
Y161406D02*
D03*
X174016D02*
D03*
X150788Y106288D02*
D03*
X174016D02*
D03*
D43*
X213318Y84646D02*
D03*
X194815D02*
D03*
Y194882D02*
D03*
X213318D02*
D03*
X194815Y139764D02*
D03*
X213318D02*
D03*
D44*
X96457Y43887D02*
D03*
Y50186D02*
D03*
X174213Y72627D02*
D03*
Y78926D02*
D03*
Y189162D02*
D03*
Y182863D02*
D03*
X96457Y160422D02*
D03*
Y154123D02*
D03*
X174213Y134044D02*
D03*
Y127745D02*
D03*
X96457Y105304D02*
D03*
Y99005D02*
D03*
M02*
