G04*
G04 #@! TF.GenerationSoftware,Altium Limited,Altium Designer,20.2.6 (244)*
G04*
G04 Layer_Color=16711935*
%FSLAX25Y25*%
%MOIN*%
G70*
G04*
G04 #@! TF.SameCoordinates,023A6027-31B4-44E3-9114-37264AD4D944*
G04*
G04*
G04 #@! TF.FilePolarity,Positive*
G04*
G01*
G75*
%ADD16C,0.00787*%
D16*
X97811Y82653D02*
Y90575D01*
X112819D01*
Y82653D02*
Y90575D01*
X97811Y82653D02*
X112819D01*
X50614Y152895D02*
X106404D01*
Y97105D02*
Y152895D01*
X50614Y97105D02*
X106404D01*
X50614D02*
Y152895D01*
X126945Y132563D02*
X134866D01*
X126945D02*
Y147571D01*
X134866D01*
Y132563D02*
Y147571D01*
X78807Y155488D02*
Y163410D01*
X93815D01*
Y155488D02*
Y163410D01*
X78807Y155488D02*
X93815D01*
X30488Y144996D02*
X38410D01*
Y129988D02*
Y144996D01*
X30488Y129988D02*
X38410D01*
X30488D02*
Y144996D01*
X187032Y1051D02*
Y16059D01*
X179110D02*
X187032D01*
X179110Y1051D02*
Y16059D01*
Y1051D02*
X187032D01*
X126008Y132563D02*
Y147571D01*
X118086D02*
X126008D01*
X118086Y132563D02*
Y147571D01*
Y132563D02*
X126008D01*
X46327Y88559D02*
X61335D01*
Y96481D01*
X46327D02*
X61335D01*
X46327Y88559D02*
Y96481D01*
X46327Y79700D02*
X61335D01*
Y87622D01*
X46327D02*
X61335D01*
X46327Y79700D02*
Y87622D01*
M02*
